font.ufo
<glyph name="quotesingle" format="1">
	<unicode hex="0027"/>
	<advance width="600"/>
	<outline>
		<contour>
			<point x="263" y="327" type="line"/>
			<point x="337" y="327" type="line"/>
			<point x="367" y="558" type="line"/>
			<point x="370" y="686" type="line"/>
			<point x="230" y="686" type="line"/>
			<point x="233" y="558" type="line"/>
		</contour>
	</outline>
</glyph>
<glyph name="parenleft" format="1">
  <advance width="600"/>
  <unicode hex="0028"/>
  <outline>
    <contour>
      <point x="412" y="-177" type="curve"/>
      <point x="476" y="-124" type="line"/>
      <point x="349" y="-9"/>
      <point x="293" y="115"/>
      <point x="293" y="278" type="curve" smooth="yes"/>
      <point x="293" y="441"/>
      <point x="349" y="565"/>
      <point x="476" y="680" type="curve"/>
      <point x="412" y="733" type="line"/>
      <point x="278" y="622"/>
      <point x="194" y="468"/>
      <point x="194" y="278" type="curve" smooth="yes"/>
      <point x="194" y="88"/>
      <point x="278" y="-66"/>
    </contour>
  </outline>
</glyph>
<glyph name="parenright" format="1">
  <advance width="600"/>
  <unicode hex="0029"/>
  <outline>
    <contour>
      <point x="188" y="-177" type="line"/>
      <point x="322" y="-66"/>
      <point x="406" y="88"/>
      <point x="406" y="278" type="curve" smooth="yes"/>
      <point x="406" y="468"/>
      <point x="322" y="622"/>
      <point x="188" y="733" type="curve"/>
      <point x="124" y="680" type="line"/>
      <point x="251" y="565"/>
      <point x="307" y="441"/>
      <point x="307" y="278" type="curve" smooth="yes"/>
      <point x="307" y="115"/>
      <point x="251" y="-9"/>
      <point x="124" y="-124" type="curve"/>
    </contour>
  </outline>
</glyph>
<glyph name="one" format="1">
  <advance width="600"/>
  <unicode hex="0031"/>
  <outline>
    <contour>
      <point x="90" y="0" type="line"/>
      <point x="532" y="0" type="line"/>
      <point x="532" y="94" type="line"/>
      <point x="377" y="94" type="line"/>
      <point x="377" y="636" type="line"/>
      <point x="292" y="636" type="line"/>
      <point x="248" y="612"/>
      <point x="198" y="596"/>
      <point x="128" y="584" type="curve"/>
      <point x="128" y="512" type="line"/>
      <point x="262" y="512" type="line"/>
      <point x="262" y="94" type="line"/>
      <point x="90" y="94" type="line"/>
    </contour>
  </outline>
</glyph>
<glyph name="four" format="1">
	<unicode hex="0034"/>
	<advance width="600"/>
	<outline>
		<contour>
			<point x="354" y="0" type="line"/>
			<point x="462" y="0" type="line"/>
			<point x="462" y="637" type="line"/>
			<point x="329" y="637" type="line"/>
			<point x="37" y="242" type="line"/>
			<point x="37" y="164" type="line"/>
			<point x="552" y="164" type="line"/>
			<point x="552" y="253" type="line"/>
			<point x="154" y="253" type="line"/>
			<point x="288" y="430" type="line" smooth="yes"/>
			<point x="310" y="464"/>
			<point x="334" y="498"/>
			<point x="355" y="531" type="curve"/>
			<point x="360" y="531" type="line"/>
			<point x="358" y="493"/>
			<point x="355" y="443"/>
			<point x="354" y="405" type="curve" smooth="yes"/>
		</contour>
	</outline>
</glyph>
<glyph name="five" format="1">
  <advance width="600"/>
  <unicode hex="0035"/>
  <outline>
    <contour>
      <point x="284" y="-12" type="curve" smooth="yes"/>
      <point x="411" y="-12"/>
      <point x="527" y="68"/>
      <point x="527" y="207" type="curve" smooth="yes"/>
      <point x="527" y="344"/>
      <point x="428" y="406"/>
      <point x="308" y="406" type="curve" smooth="yes"/>
      <point x="269" y="406"/>
      <point x="241" y="398"/>
      <point x="208" y="385" type="curve"/>
      <point x="222" y="539" type="line"/>
      <point x="497" y="539" type="line"/>
      <point x="497" y="636" type="line"/>
      <point x="122" y="636" type="line"/>
      <point x="102" y="322" type="line"/>
      <point x="157" y="287" type="line"/>
      <point x="201" y="312"/>
      <point x="228" y="323"/>
      <point x="275" y="323" type="curve" smooth="yes"/>
      <point x="356" y="323"/>
      <point x="411" y="280"/>
      <point x="411" y="204" type="curve" smooth="yes"/>
      <point x="411" y="127"/>
      <point x="350" y="82"/>
      <point x="270" y="82" type="curve" smooth="yes"/>
      <point x="197" y="82"/>
      <point x="147" y="114"/>
      <point x="104" y="150" type="curve"/>
      <point x="51" y="76" type="line"/>
      <point x="102" y="29"/>
      <point x="172" y="-12"/>
    </contour>
  </outline>
</glyph>
<glyph name="question" format="1">
	<unicode hex="003F"/>
	<advance width="600"/>
	<outline>
		<contour>
			<point x="230" y="244" type="curve"/>
			<point x="331" y="244" type="line"/>
			<point x="316" y="366"/>
			<point x="488" y="388"/>
			<point x="488" y="522" type="curve" smooth="yes"/>
			<point x="488" y="625"/>
			<point x="406" y="682"/>
			<point x="293" y="682" type="curve" smooth="yes"/>
			<point x="214" y="682"/>
			<point x="150" y="646"/>
			<point x="104" y="596" type="curve"/>
			<point x="169" y="536" type="line"/>
			<point x="202" y="568"/>
			<point x="239" y="588"/>
			<point x="285" y="588" type="curve" smooth="yes"/>
			<point x="342" y="588"/>
			<point x="377" y="556"/>
			<point x="377" y="508" type="curve" smooth="yes"/>
			<point x="377" y="420"/>
			<point x="207" y="382"/>
		</contour>
		<contour>
			<point x="286" y="-12" type="curve" smooth="yes"/>
			<point x="335" y="-12"/>
			<point x="373" y="24"/>
			<point x="373" y="78" type="curve" smooth="yes"/>
			<point x="373" y="131"/>
			<point x="335" y="166"/>
			<point x="286" y="166" type="curve" smooth="yes"/>
			<point x="237" y="166"/>
			<point x="199" y="131"/>
			<point x="199" y="78" type="curve" smooth="yes"/>
			<point x="199" y="24"/>
			<point x="237" y="-12"/>
		</contour>
	</outline>
</glyph>
<glyph name="A" format="1">
	<unicode hex="0041"/>
	<advance width="600"/>
	<outline>
		<contour>
			<point x="20" y="0" type="line"/>
			<point x="138" y="0" type="line"/>
			<point x="238" y="348" type="line" smooth="yes"/>
			<point x="258" y="417"/>
			<point x="278" y="491"/>
			<point x="296" y="564" type="curve"/>
			<point x="300" y="564" type="line"/>
			<point x="318" y="491"/>
			<point x="339" y="417"/>
			<point x="358" y="348" type="curve" smooth="yes"/>
			<point x="457" y="0" type="line"/>
			<point x="580" y="0" type="line"/>
			<point x="368" y="654" type="line"/>
			<point x="232" y="654" type="line"/>
		</contour>
		<contour>
			<point x="145" y="177" type="line"/>
			<point x="452" y="177" type="line"/>
			<point x="452" y="268" type="line"/>
			<point x="145" y="268" type="line"/>
		</contour>
		<contour>
			<point name="aboveUC" x="300" y="674" type="move"/>
		</contour>
		<contour>
			<point name="ogonekUC" x="499" y="0" type="move"/>
		</contour>
		<contour>
			<point name="baseLC" x="518" y="0" type="move"/>
		</contour>
		<contour>
			<point name="belowLC" x="300" y="-20" type="move"/>
		</contour>
	</outline>
</glyph>
<glyph name="E" format="1">
  <advance width="600"/>
  <unicode hex="0045"/>
  <outline>
    <contour>
      <point x="103" y="0" type="line"/>
      <point x="532" y="0" type="line"/>
      <point x="532" y="98" type="line"/>
      <point x="219" y="98" type="line"/>
      <point x="219" y="291" type="line"/>
      <point x="476" y="291" type="line"/>
      <point x="476" y="389" type="line"/>
      <point x="219" y="389" type="line"/>
      <point x="219" y="556" type="line"/>
      <point x="522" y="556" type="line"/>
      <point x="522" y="654" type="line"/>
      <point x="103" y="654" type="line"/>
    </contour>
    <contour>
      <point x="327" y="674" type="move" name="aboveUC"/>
    </contour>
    <contour>
      <point x="430" y="0" type="move" name="ogonekUC"/>
    </contour>
    <contour>
      <point x="324" y="0" type="move" name="baseLC"/>
    </contour>
    <contour>
      <point x="328" y="-20" type="move" name="belowLC"/>
    </contour>
  </outline>
</glyph>
<glyph name="I" format="1">
	<unicode hex="0049"/>
	<advance width="600"/>
	<outline>
		<contour>
			<point x="84" y="0" type="line"/>
			<point x="516" y="0" type="line"/>
			<point x="516" y="98" type="line"/>
			<point x="358" y="98" type="line"/>
			<point x="358" y="556" type="line"/>
			<point x="516" y="556" type="line"/>
			<point x="516" y="654" type="line"/>
			<point x="84" y="654" type="line"/>
			<point x="84" y="556" type="line"/>
			<point x="242" y="556" type="line"/>
			<point x="242" y="98" type="line"/>
			<point x="84" y="98" type="line"/>
		</contour>
		<contour>
			<point name="aboveUC" x="300" y="674" type="move"/>
		</contour>
		<contour>
			<point name="ogonekUC" x="300" y="0" type="move"/>
		</contour>
		<contour>
			<point name="baseLC" x="300" y="0" type="move"/>
		</contour>
		<contour>
			<point name="belowLC" x="300" y="-20" type="move"/>
		</contour>
	</outline>
</glyph>
<glyph name="K" format="1">
  <advance width="600"/>
  <unicode hex="004B"/>
  <outline>
    <contour>
      <point x="82" y="0" type="line"/>
      <point x="200" y="0" type="line"/>
      <point x="200" y="193" type="line"/>
      <point x="566" y="654" type="line"/>
      <point x="436" y="654" type="line"/>
      <point x="203" y="357" type="line"/>
      <point x="200" y="357" type="line"/>
      <point x="200" y="654" type="line"/>
      <point x="82" y="654" type="line"/>
    </contour>
    <contour>
      <point x="458" y="0" type="line"/>
      <point x="587" y="0" type="line"/>
      <point x="350" y="425" type="line"/>
      <point x="281" y="334" type="line"/>
    </contour>
    <contour>
      <point x="324" y="674" type="move" name="aboveUC"/>
    </contour>
    <contour>
      <point x="332" y="-20" type="move" name="belowLC"/>
    </contour>
  </outline>
</glyph>
<glyph name="N" format="1">
  <advance width="600"/>
  <unicode hex="004E"/>
  <outline>
    <contour>
      <point x="74" y="0" type="line"/>
      <point x="185" y="0" type="line"/>
      <point x="185" y="286" type="line" smooth="yes"/>
      <point x="185" y="359"/>
      <point x="174" y="438"/>
      <point x="169" y="507" type="curve"/>
      <point x="172" y="507" type="line"/>
      <point x="233" y="369" type="line"/>
      <point x="408" y="0" type="line"/>
      <point x="526" y="0" type="line"/>
      <point x="526" y="654" type="line"/>
      <point x="415" y="654" type="line"/>
      <point x="415" y="370" type="line" smooth="yes"/>
      <point x="415" y="297"/>
      <point x="426" y="214"/>
      <point x="431" y="147" type="curve"/>
      <point x="428" y="147" type="line"/>
      <point x="367" y="286" type="line"/>
      <point x="192" y="654" type="line"/>
      <point x="74" y="654" type="line"/>
    </contour>
    <contour>
      <point x="310" y="674" type="move" name="aboveUC"/>
    </contour>
    <contour>
      <point x="468" y="0" type="move" name="baseLC"/>
    </contour>
    <contour>
      <point x="300" y="-20" type="move" name="belowLC"/>
    </contour>
  </outline>
</glyph>
<glyph name="T" format="1">
  <advance width="600"/>
  <unicode hex="0054"/>
  <outline>
    <contour>
      <point x="242" y="0" type="line"/>
      <point x="358" y="0" type="line"/>
      <point x="358" y="556" type="line"/>
      <point x="564" y="556" type="line"/>
      <point x="564" y="654" type="line"/>
      <point x="36" y="654" type="line"/>
      <point x="36" y="556" type="line"/>
      <point x="242" y="556" type="line"/>
    </contour>
    <contour>
      <point x="300" y="674" type="move" name="aboveUC"/>
    </contour>
    <contour>
      <point x="300" y="0" type="move" name="baseLC"/>
    </contour>
    <contour>
      <point x="300" y="-20" type="move" name="belowLC"/>
    </contour>
  </outline>
</glyph>
<glyph name="U" format="1">
	<unicode hex="0055"/>
	<advance width="600"/>
	<outline>
		<contour>
			<point x="301" y="-12" type="curve" smooth="yes"/>
			<point x="445" y="-12"/>
			<point x="528" y="71"/>
			<point x="528" y="250" type="curve" smooth="yes"/>
			<point x="528" y="654" type="line"/>
			<point x="417" y="654" type="line"/>
			<point x="417" y="241" type="line" smooth="yes"/>
			<point x="417" y="134"/>
			<point x="372" y="89"/>
			<point x="301" y="89" type="curve" smooth="yes"/>
			<point x="231" y="89"/>
			<point x="188" y="134"/>
			<point x="188" y="241" type="curve" smooth="yes"/>
			<point x="188" y="654" type="line"/>
			<point x="72" y="654" type="line"/>
			<point x="72" y="250" type="line" smooth="yes"/>
			<point x="72" y="71"/>
			<point x="158" y="-12"/>
		</contour>
		<contour>
			<point name="aboveUC" x="300" y="674" type="move"/>
		</contour>
		<contour>
			<point name="hornLC" x="508" y="664" type="move"/>
		</contour>
		<contour>
			<point name="ogonekUC" x="300" y="0" type="move"/>
		</contour>
		<contour>
			<point name="baseLC" x="300" y="0" type="move"/>
		</contour>
		<contour>
			<point name="belowLC" x="300" y="-20" type="move"/>
		</contour>
	</outline>
</glyph>
<glyph name="V" format="1">
  <advance width="600"/>
  <unicode hex="0056"/>
  <outline>
    <contour>
      <point x="232" y="0" type="line"/>
      <point x="369" y="0" type="line"/>
      <point x="572" y="654" type="line"/>
      <point x="453" y="654" type="line"/>
      <point x="362" y="325" type="line" smooth="yes"/>
      <point x="342" y="251"/>
      <point x="327" y="187"/>
      <point x="305" y="112" type="curve"/>
      <point x="301" y="112" type="line"/>
      <point x="279" y="187"/>
      <point x="264" y="251"/>
      <point x="243" y="325" type="curve" smooth="yes"/>
      <point x="151" y="654" type="line"/>
      <point x="28" y="654" type="line"/>
    </contour>
    <contour>
      <point x="300" y="674" type="move" name="aboveUC"/>
    </contour>
    <contour>
      <point x="301" y="-20" type="move" name="belowLC"/>
    </contour>
  </outline>
</glyph>
<glyph name="Y" format="1">
  <advance width="600"/>
  <unicode hex="0059"/>
  <outline>
    <contour>
      <point x="242" y="0" type="line"/>
      <point x="358" y="0" type="line"/>
      <point x="358" y="227" type="line"/>
      <point x="573" y="654" type="line"/>
      <point x="453" y="654" type="line"/>
      <point x="372" y="479" type="line" smooth="yes"/>
      <point x="350" y="428"/>
      <point x="327" y="380"/>
      <point x="303" y="327" type="curve"/>
      <point x="299" y="327" type="line"/>
      <point x="276" y="380"/>
      <point x="255" y="428"/>
      <point x="232" y="478" type="curve" smooth="yes"/>
      <point x="150" y="654" type="line"/>
      <point x="27" y="654" type="line"/>
      <point x="242" y="227" type="line"/>
    </contour>
    <contour>
      <point x="300" y="674" type="move" name="aboveUC"/>
    </contour>
    <contour>
      <point x="300" y="0" type="move" name="ogonekUC"/>
    </contour>
    <contour>
      <point x="300" y="-20" type="move" name="belowLC"/>
    </contour>
  </outline>
</glyph>
<glyph name="b" format="1">
  <advance width="600"/>
  <unicode hex="0062"/>
  <outline>
    <contour>
      <point x="329" y="-12" type="curve" smooth="yes"/>
      <point x="442" y="-12"/>
      <point x="547" y="85"/>
      <point x="547" y="254" type="curve" smooth="yes"/>
      <point x="547" y="405"/>
      <point x="473" y="503"/>
      <point x="346" y="503" type="curve" smooth="yes"/>
      <point x="293" y="503"/>
      <point x="237" y="478"/>
      <point x="196" y="438" type="curve"/>
      <point x="193" y="438" type="line"/>
      <point x="198" y="524" type="line"/>
      <point x="198" y="706" type="line"/>
      <point x="82" y="706" type="line"/>
      <point x="82" y="0" type="line"/>
      <point x="173" y="0" type="line"/>
      <point x="183" y="54" type="line"/>
      <point x="186" y="54" type="line"/>
      <point x="229" y="12"/>
      <point x="283" y="-12"/>
    </contour>
    <contour>
      <point x="306" y="83" type="curve" smooth="yes"/>
      <point x="275" y="83"/>
      <point x="234" y="95"/>
      <point x="198" y="128" type="curve"/>
      <point x="198" y="349" type="line"/>
      <point x="238" y="390"/>
      <point x="277" y="408"/>
      <point x="314" y="408" type="curve" smooth="yes"/>
      <point x="394" y="408"/>
      <point x="428" y="350"/>
      <point x="428" y="252" type="curve" smooth="yes"/>
      <point x="428" y="141"/>
      <point x="375" y="83"/>
    </contour>
    <contour>
      <point x="142" y="734" type="move" name="aboveUC"/>
    </contour>
    <contour>
      <point x="310" y="-20" type="move" name="belowLC"/>
    </contour>
  </outline>
</glyph>
<glyph name="j" format="1">
	<unicode hex="006A"/>
	<advance width="600"/>
	<outline>
		<component base="dotlessj"/>
		<component base="dotaccentcmb" xOffset="46"/>
		<contour>
			<point name="aboveUC" x="346" y="750" type="move"/>
		</contour>
		<contour>
			<point name="belowLC" x="242" y="-212" type="move"/>
		</contour>
	</outline>
</glyph>
<glyph name="k" format="1">
  <advance width="600"/>
  <unicode hex="006B"/>
  <outline>
    <contour>
      <point x="90" y="0" type="line"/>
      <point x="206" y="0" type="line"/>
      <point x="206" y="128" type="line"/>
      <point x="559" y="491" type="line"/>
      <point x="431" y="491" type="line"/>
      <point x="210" y="264" type="line"/>
      <point x="206" y="264" type="line"/>
      <point x="206" y="706" type="line"/>
      <point x="90" y="706" type="line"/>
    </contour>
    <contour>
      <point x="454" y="0" type="line"/>
      <point x="580" y="0" type="line"/>
      <point x="354" y="314" type="line"/>
      <point x="287" y="242" type="line"/>
    </contour>
    <contour>
      <point x="171" y="734" type="move" name="aboveUC"/>
    </contour>
    <contour>
      <point x="330" y="-20" type="move" name="belowLC"/>
    </contour>
  </outline>
</glyph>
<glyph name="m" format="1">
  <advance width="600"/>
  <unicode hex="006D"/>
  <outline>
    <contour>
      <point x="46" y="0" type="line"/>
      <point x="158" y="0" type="line"/>
      <point x="158" y="343" type="line"/>
      <point x="176" y="384"/>
      <point x="193" y="405"/>
      <point x="219" y="405" type="curve" smooth="yes"/>
      <point x="247" y="405"/>
      <point x="258" y="383"/>
      <point x="258" y="340" type="curve" smooth="yes"/>
      <point x="258" y="0" type="line"/>
      <point x="354" y="0" type="line"/>
      <point x="354" y="343" type="line"/>
      <point x="374" y="384"/>
      <point x="389" y="405"/>
      <point x="416" y="405" type="curve" smooth="yes"/>
      <point x="443" y="405"/>
      <point x="455" y="383"/>
      <point x="455" y="340" type="curve" smooth="yes"/>
      <point x="455" y="0" type="line"/>
      <point x="566" y="0" type="line"/>
      <point x="566" y="348" type="line" smooth="yes"/>
      <point x="566" y="446"/>
      <point x="526" y="503"/>
      <point x="457" y="503" type="curve" smooth="yes"/>
      <point x="400" y="503"/>
      <point x="368" y="469"/>
      <point x="345" y="421" type="curve"/>
      <point x="332" y="475"/>
      <point x="301" y="503"/>
      <point x="256" y="503" type="curve" smooth="yes"/>
      <point x="199" y="503"/>
      <point x="168" y="471"/>
      <point x="147" y="429" type="curve"/>
      <point x="144" y="429" type="line"/>
      <point x="135" y="491" type="line"/>
      <point x="46" y="491" type="line"/>
    </contour>
    <contour>
      <point x="318" y="514" type="move" name="aboveLC"/>
    </contour>
    <contour>
      <point x="511" y="0" type="move" name="baseLC"/>
    </contour>
    <contour>
      <point x="305" y="-20" type="move" name="belowLC"/>
    </contour>
  </outline>
</glyph>
<glyph name="q" format="1">
	<unicode hex="0071"/>
	<advance width="600"/>
	<outline>
		<contour>
			<point x="402" y="-194" type="line"/>
			<point x="518" y="-194" type="line"/>
			<point x="518" y="491" type="line"/>
			<point x="427" y="491" type="line"/>
			<point x="417" y="439" type="line"/>
			<point x="414" y="439" type="line"/>
			<point x="371" y="482"/>
			<point x="327" y="503"/>
			<point x="270" y="503" type="curve" smooth="yes"/>
			<point x="158" y="503"/>
			<point x="53" y="405"/>
			<point x="53" y="245" type="curve" smooth="yes"/>
			<point x="53" y="83"/>
			<point x="137" y="-12"/>
			<point x="263" y="-12" type="curve" smooth="yes"/>
			<point x="316" y="-12"/>
			<point x="368" y="16"/>
			<point x="405" y="53" type="curve"/>
			<point x="408" y="53" type="line"/>
			<point x="402" y="-32" type="line"/>
		</contour>
		<contour>
			<point x="291" y="83" type="curve" smooth="yes"/>
			<point x="216" y="83"/>
			<point x="172" y="140"/>
			<point x="172" y="246" type="curve" smooth="yes"/>
			<point x="172" y="349"/>
			<point x="229" y="408"/>
			<point x="297" y="408" type="curve" smooth="yes"/>
			<point x="333" y="408"/>
			<point x="367" y="396"/>
			<point x="402" y="363" type="curve"/>
			<point x="402" y="142" type="line"/>
			<point x="368" y="102"/>
			<point x="332" y="83"/>
		</contour>
		<contour>
			<point name="aboveLC" x="306" y="512" type="move"/>
		</contour>
		<contour>
			<point name="belowLC" x="455" y="-212" type="move"/>
		</contour>
	</outline>
</glyph>
<glyph name="w" format="1">
  <advance width="600"/>
  <unicode hex="0077"/>
  <outline>
    <contour>
      <point x="99" y="0" type="line"/>
      <point x="238" y="0" type="line"/>
      <point x="278" y="196" type="line" smooth="yes"/>
      <point x="286" y="244"/>
      <point x="292" y="290"/>
      <point x="298" y="341" type="curve"/>
      <point x="302" y="341" type="line"/>
      <point x="309" y="282"/>
      <point x="316" y="234"/>
      <point x="323" y="196" type="curve" smooth="yes"/>
      <point x="364" y="0" type="line"/>
      <point x="504" y="0" type="line"/>
      <point x="594" y="491" type="line"/>
      <point x="487" y="491" type="line"/>
      <point x="445" y="236" type="line" smooth="yes"/>
      <point x="438" y="188"/>
      <point x="434" y="143"/>
      <point x="427" y="95" type="curve"/>
      <point x="423" y="95" type="line"/>
      <point x="416" y="143"/>
      <point x="406" y="188"/>
      <point x="395" y="236" type="curve" smooth="yes"/>
      <point x="351" y="443" type="line"/>
      <point x="256" y="443" type="line"/>
      <point x="211" y="236" type="line"/>
      <point x="200" y="189"/>
      <point x="191" y="143"/>
      <point x="185" y="95" type="curve"/>
      <point x="182" y="95" type="line"/>
      <point x="176" y="143"/>
      <point x="170" y="188"/>
      <point x="163" y="236" type="curve" smooth="yes"/>
      <point x="119" y="491" type="line"/>
      <point x="6" y="491" type="line"/>
    </contour>
    <contour>
      <point x="300" y="512" type="move" name="aboveLC"/>
    </contour>
    <contour>
      <point x="300" y="-20" type="move" name="belowLC"/>
    </contour>
  </outline>
</glyph>
<glyph name="y" format="1">
  <advance width="600"/>
  <unicode hex="0079"/>
  <outline>
    <contour>
      <point x="137" y="-202" type="curve" smooth="yes"/>
      <point x="255" y="-202"/>
      <point x="314" y="-133"/>
      <point x="356" y="-22" type="curve" smooth="yes"/>
      <point x="561" y="491" type="line"/>
      <point x="452" y="491" type="line"/>
      <point x="363" y="250" type="line" smooth="yes"/>
      <point x="347" y="204"/>
      <point x="329" y="153"/>
      <point x="314" y="106" type="curve"/>
      <point x="310" y="106" type="line"/>
      <point x="292" y="155"/>
      <point x="274" y="206"/>
      <point x="256" y="250" type="curve" smooth="yes"/>
      <point x="155" y="491" type="line"/>
      <point x="40" y="491" type="line"/>
      <point x="260" y="6" type="line"/>
      <point x="248" y="-25" type="line"/>
      <point x="228" y="-74"/>
      <point x="192" y="-109"/>
      <point x="130" y="-109" type="curve" smooth="yes"/>
      <point x="116" y="-109"/>
      <point x="102" y="-106"/>
      <point x="89" y="-102" type="curve"/>
      <point x="67" y="-192" type="line"/>
      <point x="86" y="-198"/>
      <point x="111" y="-202"/>
    </contour>
    <contour>
      <point x="276" y="-96" type="move" name="ogonekLC"/>
    </contour>
    <contour>
      <point x="306" y="512" type="move" name="aboveLC"/>
    </contour>
    <contour>
      <point x="267" y="-212" type="move" name="belowLC"/>
    </contour>
  </outline>
</glyph>
<glyph name="section" format="1">
  <advance width="600"/>
  <unicode hex="00A7"/>
  <outline>
    <contour>
      <point x="282" y="-74" type="curve" smooth="yes"/>
      <point x="392" y="-74"/>
      <point x="458" y="-11"/>
      <point x="458" y="73" type="curve" smooth="yes"/>
      <point x="458" y="245"/>
      <point x="179" y="223"/>
      <point x="179" y="342" type="curve" smooth="yes"/>
      <point x="179" y="382"/>
      <point x="207" y="407"/>
      <point x="254" y="426" type="curve"/>
      <point x="197" y="477" type="line"/>
      <point x="130" y="452"/>
      <point x="81" y="398"/>
      <point x="81" y="334" type="curve" smooth="yes"/>
      <point x="81" y="148"/>
      <point x="354" y="164"/>
      <point x="354" y="68" type="curve" smooth="yes"/>
      <point x="354" y="36"/>
      <point x="329" y="12"/>
      <point x="282" y="12" type="curve" smooth="yes"/>
      <point x="234" y="12"/>
      <point x="196" y="31"/>
      <point x="162" y="64" type="curve"/>
      <point x="94" y="4" type="line"/>
      <point x="138" y="-47"/>
      <point x="208" y="-74"/>
    </contour>
    <contour>
      <point x="342" y="190" type="curve"/>
      <point x="407" y="139" type="line"/>
      <point x="476" y="172"/>
      <point x="519" y="214"/>
      <point x="519" y="284" type="curve" smooth="yes"/>
      <point x="519" y="466"/>
      <point x="242" y="460"/>
      <point x="242" y="550" type="curve" smooth="yes"/>
      <point x="242" y="579"/>
      <point x="262" y="600"/>
      <point x="308" y="600" type="curve" smooth="yes"/>
      <point x="349" y="600"/>
      <point x="387" y="580"/>
      <point x="420" y="553" type="curve"/>
      <point x="474" y="626" type="line"/>
      <point x="433" y="657"/>
      <point x="374" y="687"/>
      <point x="302" y="687" type="curve" smooth="yes"/>
      <point x="196" y="687"/>
      <point x="137" y="625"/>
      <point x="137" y="545" type="curve" smooth="yes"/>
      <point x="137" y="375"/>
      <point x="421" y="398"/>
      <point x="421" y="275" type="curve" smooth="yes"/>
      <point x="421" y="231"/>
      <point x="394" y="209"/>
    </contour>
  </outline>
</glyph>
<glyph name="logicalnot" format="1">
	<unicode hex="00AC"/>
	<advance width="600"/>
	<outline>
		<contour>
			<point x="435" y="99" type="line"/>
			<point x="522" y="99" type="line"/>
			<point x="522" y="372" type="line"/>
			<point x="78" y="372" type="line"/>
			<point x="78" y="288" type="line"/>
			<point x="435" y="288" type="line"/>
		</contour>
	</outline>
</glyph>
<glyph name="degree" format="1">
  <advance width="600"/>
  <unicode hex="00B0"/>
  <outline>
    <contour>
      <point x="301" y="413" type="curve" smooth="yes"/>
      <point x="375" y="413"/>
      <point x="436" y="468"/>
      <point x="436" y="549" type="curve" smooth="yes"/>
      <point x="436" y="630"/>
      <point x="375" y="685"/>
      <point x="301" y="685" type="curve" smooth="yes"/>
      <point x="227" y="685"/>
      <point x="165" y="630"/>
      <point x="165" y="549" type="curve" smooth="yes"/>
      <point x="165" y="468"/>
      <point x="227" y="413"/>
    </contour>
    <contour>
      <point x="301" y="472" type="curve" smooth="yes"/>
      <point x="259" y="472"/>
      <point x="229" y="504"/>
      <point x="229" y="549" type="curve" smooth="yes"/>
      <point x="229" y="595"/>
      <point x="259" y="627"/>
      <point x="301" y="627" type="curve" smooth="yes"/>
      <point x="343" y="627"/>
      <point x="372" y="595"/>
      <point x="372" y="549" type="curve" smooth="yes"/>
      <point x="372" y="504"/>
      <point x="343" y="472"/>
    </contour>
  </outline>
</glyph>
<glyph name="Aacute" format="1">
  <advance width="600"/>
  <unicode hex="00C1"/>
  <outline>
    <component base="A"/>
    <component base="acutecmb.cap"/>
    <contour>
      <point x="499" y="0" type="move" name="ogonekUC"/>
    </contour>
  </outline>
</glyph>
<glyph name="AE" format="1">
  <advance width="600"/>
  <unicode hex="00C6"/>
  <outline>
    <contour>
      <point x="-2" y="0" type="line"/>
      <point x="118" y="0" type="line"/>
      <point x="243" y="366" type="line" smooth="yes"/>
      <point x="265" y="430"/>
      <point x="289" y="497"/>
      <point x="311" y="565" type="curve"/>
      <point x="314" y="565" type="line"/>
      <point x="314" y="0" type="line"/>
      <point x="593" y="0" type="line"/>
      <point x="593" y="98" type="line"/>
      <point x="418" y="98" type="line"/>
      <point x="418" y="292" type="line"/>
      <point x="550" y="292" type="line"/>
      <point x="550" y="390" type="line"/>
      <point x="418" y="390" type="line"/>
      <point x="418" y="556" type="line"/>
      <point x="584" y="556" type="line"/>
      <point x="584" y="654" type="line"/>
      <point x="238" y="654" type="line"/>
    </contour>
    <contour>
      <point x="132" y="170" type="line"/>
      <point x="362" y="170" type="line"/>
      <point x="362" y="261" type="line"/>
      <point x="132" y="261" type="line"/>
    </contour>
    <contour>
      <point x="406" y="674" type="move" name="aboveUC"/>
    </contour>
    <contour>
      <point x="466" y="0" type="move" name="baseLC"/>
    </contour>
    <contour>
      <point x="334" y="-20" type="move" name="belowLC"/>
    </contour>
  </outline>
</glyph>
<glyph name="adieresis" format="1">
	<unicode hex="00E4"/>
	<advance width="600"/>
	<outline>
		<component base="a"/>
		<component base="dieresiscmb" xOffset="20"/>
		<contour>
			<point name="ogonekLC" x="434" y="0" type="move"/>
		</contour>
	</outline>
</glyph>
<glyph name="oslash" format="1">
	<unicode hex="00F8"/>
	<advance width="600"/>
	<outline>
		<contour>
			<point x="300" y="-12" type="curve" smooth="yes"/>
			<point x="429" y="-12"/>
			<point x="547" y="82"/>
			<point x="547" y="245" type="curve" smooth="yes"/>
			<point x="547" y="409"/>
			<point x="429" y="503"/>
			<point x="300" y="503" type="curve" smooth="yes"/>
			<point x="171" y="503"/>
			<point x="53" y="409"/>
			<point x="53" y="245" type="curve" smooth="yes"/>
			<point x="53" y="82"/>
			<point x="171" y="-12"/>
		</contour>
		<contour>
			<point x="300" y="78" type="curve" smooth="yes"/>
			<point x="220" y="78"/>
			<point x="172" y="147"/>
			<point x="172" y="245" type="curve" smooth="yes"/>
			<point x="172" y="344"/>
			<point x="220" y="413"/>
			<point x="300" y="413" type="curve" smooth="yes"/>
			<point x="380" y="413"/>
			<point x="428" y="344"/>
			<point x="428" y="245" type="curve" smooth="yes"/>
			<point x="428" y="147"/>
			<point x="380" y="78"/>
		</contour>
		<contour>
			<point x="113" y="-29" type="line"/>
			<point x="539" y="476" type="line"/>
			<point x="487" y="520" type="line"/>
			<point x="61" y="16" type="line"/>
		</contour>
		<contour>
			<point name="aboveLC" x="300" y="512" type="move"/>
		</contour>
		<contour>
			<point name="baseLC" x="300" y="0" type="move"/>
		</contour>
		<contour>
			<point name="belowLC" x="300" y="-20" type="move"/>
		</contour>
	</outline>
</glyph>
<glyph name="Dcroat" format="1">
	<unicode hex="0110"/>
	<advance width="600"/>
	<outline>
		<component base="Eth"/>
		<contour>
			<point name="aboveUC" x="298" y="674" type="move"/>
		</contour>
		<contour>
			<point name="belowLC" x="290" y="-20" type="move"/>
		</contour>
	</outline>
</glyph>
<glyph name="IJ" format="1">
  <advance width="600"/>
  <unicode hex="0132"/>
  <outline>
    <contour>
      <point x="93" y="0" type="line"/>
      <point x="209" y="0" type="line"/>
      <point x="209" y="654" type="line"/>
      <point x="93" y="654" type="line"/>
    </contour>
    <contour>
      <point x="347" y="-174" type="curve" smooth="yes"/>
      <point x="467" y="-174"/>
      <point x="507" y="-96"/>
      <point x="507" y="8" type="curve" smooth="yes"/>
      <point x="507" y="654" type="line"/>
      <point x="391" y="654" type="line"/>
      <point x="391" y="7" type="line" smooth="yes"/>
      <point x="391" y="-50"/>
      <point x="378" y="-80"/>
      <point x="331" y="-80" type="curve" smooth="yes"/>
      <point x="315" y="-80"/>
      <point x="299" y="-76"/>
      <point x="284" y="-72" type="curve"/>
      <point x="263" y="-159" type="line"/>
      <point x="283" y="-166"/>
      <point x="309" y="-174"/>
    </contour>
  </outline>
</glyph>
<glyph name="lslash" format="1">
  <advance width="600"/>
  <unicode hex="0142"/>
  <outline>
    <contour>
      <point x="130" y="249" type="line"/>
      <point x="232" y="308" type="line"/>
      <point x="321" y="349" type="line"/>
      <point x="515" y="457" type="line"/>
      <point x="476" y="530" type="line"/>
      <point x="321" y="443" type="line"/>
      <point x="232" y="402" type="line"/>
      <point x="90" y="322" type="line"/>
    </contour>
    <component base="l"/>
    <contour>
      <point x="280" y="734" type="move" name="aboveUC"/>
    </contour>
    <contour>
      <point x="376" y="-20" type="move" name="belowLC"/>
    </contour>
  </outline>
</glyph>
<glyph name="oe" format="1">
  <advance width="600"/>
  <unicode hex="0153"/>
  <outline>
    <contour>
      <point x="197" y="82" type="curve" smooth="yes"/>
      <point x="144" y="82"/>
      <point x="117" y="147"/>
      <point x="117" y="245" type="curve" smooth="yes"/>
      <point x="117" y="344"/>
      <point x="144" y="409"/>
      <point x="197" y="409" type="curve" smooth="yes"/>
      <point x="243" y="409"/>
      <point x="272" y="344"/>
      <point x="272" y="246" type="curve" smooth="yes"/>
      <point x="272" y="147"/>
      <point x="243" y="82"/>
    </contour>
    <contour>
      <point x="189" y="-12" type="curve" smooth="yes"/>
      <point x="253" y="-12"/>
      <point x="301" y="25"/>
      <point x="327" y="118" type="curve"/>
      <point x="309" y="118" type="line"/>
      <point x="331" y="25"/>
      <point x="392" y="-12"/>
      <point x="455" y="-12" type="curve" smooth="yes"/>
      <point x="498" y="-12"/>
      <point x="545" y="6"/>
      <point x="580" y="33" type="curve"/>
      <point x="540" y="109" type="line"/>
      <point x="514" y="91"/>
      <point x="489" y="80"/>
      <point x="459" y="80" type="curve" smooth="yes"/>
      <point x="398" y="80"/>
      <point x="350" y="133"/>
      <point x="350" y="246" type="curve" smooth="yes"/>
      <point x="350" y="361"/>
      <point x="388" y="414"/>
      <point x="435" y="414" type="curve" smooth="yes"/>
      <point x="482" y="414"/>
      <point x="504" y="369"/>
      <point x="504" y="271" type="curve"/>
      <point x="523" y="291" type="line"/>
      <point x="330" y="291" type="line"/>
      <point x="330" y="212" type="line"/>
      <point x="590" y="212" type="line"/>
      <point x="592" y="227"/>
      <point x="595" y="249"/>
      <point x="595" y="272" type="curve" smooth="yes"/>
      <point x="595" y="397"/>
      <point x="544" y="503"/>
      <point x="445" y="503" type="curve" smooth="yes"/>
      <point x="387" y="503"/>
      <point x="331" y="462"/>
      <point x="309" y="370" type="curve"/>
      <point x="326" y="370" type="line"/>
      <point x="301" y="462"/>
      <point x="253" y="503"/>
      <point x="191" y="503" type="curve" smooth="yes"/>
      <point x="91" y="503"/>
      <point x="11" y="409"/>
      <point x="11" y="245" type="curve" smooth="yes"/>
      <point x="11" y="82"/>
      <point x="89" y="-12"/>
    </contour>
    <contour>
      <point x="317" y="512" type="move" name="aboveLC"/>
    </contour>
    <contour>
      <point x="446" y="0" type="move" name="baseLC"/>
    </contour>
    <contour>
      <point x="309" y="-20" type="move" name="belowLC"/>
    </contour>
  </outline>
</glyph>
<glyph name="Tbar" format="1">
  <advance width="600"/>
  <unicode hex="0166"/>
  <outline>
    <contour>
      <point x="105" y="299" type="line"/>
      <point x="495" y="299" type="line"/>
      <point x="495" y="358" type="line"/>
      <point x="196" y="358" type="line"/>
      <point x="105" y="354" type="line"/>
    </contour>
    <component base="T"/>
    <contour>
      <point x="300" y="674" type="move" name="aboveUC"/>
    </contour>
    <contour>
      <point x="300" y="-20" type="move" name="belowLC"/>
    </contour>
  </outline>
</glyph>
<glyph name="tbar" format="1">
  <advance width="600"/>
  <unicode hex="0167"/>
  <outline>
    <contour>
      <point x="59" y="225" type="line"/>
      <point x="509" y="225" type="line"/>
      <point x="509" y="284" type="line"/>
      <point x="198" y="284" type="line"/>
      <point x="59" y="279" type="line"/>
    </contour>
    <component base="t"/>
    <contour>
      <point x="260" y="650" type="move" name="aboveLC"/>
    </contour>
    <contour>
      <point x="374" y="-20" type="move" name="belowLC"/>
    </contour>
  </outline>
</glyph>
<glyph name="bstroke" format="1">
  <advance width="600"/>
  <unicode hex="0180"/>
  <outline>
    <contour>
      <point x="329" y="-12" type="curve" smooth="yes"/>
      <point x="443" y="-12"/>
      <point x="547" y="81"/>
      <point x="547" y="244" type="curve" smooth="yes"/>
      <point x="547" y="389"/>
      <point x="473" y="483"/>
      <point x="346" y="483" type="curve" smooth="yes"/>
      <point x="293" y="483"/>
      <point x="237" y="458"/>
      <point x="197" y="418" type="curve"/>
      <point x="193" y="418" type="line"/>
      <point x="196" y="500" type="line"/>
      <point x="197" y="706" type="line"/>
      <point x="82" y="706" type="line"/>
      <point x="82" y="0" type="line"/>
      <point x="173" y="0" type="line"/>
      <point x="183" y="54" type="line"/>
      <point x="186" y="54" type="line"/>
      <point x="230" y="12"/>
      <point x="283" y="-12"/>
    </contour>
    <contour>
      <point x="306" y="83" type="curve" smooth="yes"/>
      <point x="275" y="83"/>
      <point x="234" y="95"/>
      <point x="197" y="128" type="curve"/>
      <point x="197" y="329" type="line"/>
      <point x="238" y="370"/>
      <point x="277" y="388"/>
      <point x="314" y="388" type="curve" smooth="yes"/>
      <point x="394" y="388"/>
      <point x="428" y="334"/>
      <point x="428" y="242" type="curve" smooth="yes"/>
      <point x="428" y="137"/>
      <point x="375" y="83"/>
    </contour>
    <contour>
      <point x="13" y="558" type="line"/>
      <point x="395" y="558" type="line"/>
      <point x="395" y="627" type="line"/>
      <point x="89" y="627" type="line"/>
      <point x="13" y="622" type="line"/>
    </contour>
  </outline>
</glyph>
<glyph name="Dhook" format="1">
  <advance width="600"/>
  <unicode hex="018A"/>
  <outline>
    <contour>
      <point x="198" y="0" type="line"/>
      <point x="311" y="0" type="line" smooth="yes"/>
      <point x="471" y="0"/>
      <point x="574" y="114"/>
      <point x="574" y="337" type="curve" smooth="yes"/>
      <point x="574" y="555"/>
      <point x="471" y="666"/>
      <point x="275" y="666" type="curve" smooth="yes"/>
      <point x="95" y="666"/>
      <point x="12" y="570"/>
      <point x="12" y="438" type="curve" smooth="yes"/>
      <point x="12" y="347"/>
      <point x="53" y="292"/>
      <point x="122" y="258" type="curve"/>
      <point x="169" y="334" type="line"/>
      <point x="127" y="359"/>
      <point x="105" y="390"/>
      <point x="105" y="444" type="curve" smooth="yes"/>
      <point x="105" y="516"/>
      <point x="150" y="571"/>
      <point x="247" y="571" type="curve" smooth="yes"/>
      <point x="291" y="571" type="line" smooth="yes"/>
      <point x="408" y="571"/>
      <point x="462" y="498"/>
      <point x="462" y="337" type="curve" smooth="yes"/>
      <point x="462" y="170"/>
      <point x="411" y="94"/>
      <point x="324" y="94" type="curve" smooth="yes"/>
      <point x="307" y="94" type="line"/>
      <point x="307" y="606" type="line"/>
      <point x="198" y="606" type="line"/>
    </contour>
  </outline>
</glyph>
<glyph name="Schwa" format="1">
  <advance width="600"/>
  <unicode hex="018F"/>
  <outline>
    <contour>
      <point x="302" y="-12" type="curve" smooth="yes"/>
      <point x="451" y="-12"/>
      <point x="555" y="117"/>
      <point x="555" y="328" type="curve" smooth="yes"/>
      <point x="555" y="540"/>
      <point x="456" y="666"/>
      <point x="301" y="666" type="curve" smooth="yes"/>
      <point x="220" y="666"/>
      <point x="161" y="635"/>
      <point x="118" y="593" type="curve"/>
      <point x="172" y="514" type="line"/>
      <point x="202" y="544"/>
      <point x="242" y="566"/>
      <point x="292" y="566" type="curve" smooth="yes"/>
      <point x="389" y="566"/>
      <point x="440" y="486"/>
      <point x="440" y="328" type="curve" smooth="yes"/>
      <point x="440" y="158"/>
      <point x="384" y="88"/>
      <point x="302" y="88" type="curve" smooth="yes"/>
      <point x="219" y="88"/>
      <point x="166" y="157"/>
      <point x="166" y="328" type="curve"/>
      <point x="146" y="275" type="line"/>
      <point x="468" y="275" type="line"/>
      <point x="468" y="361" type="line"/>
      <point x="56" y="361" type="line"/>
      <point x="55" y="349"/>
      <point x="54" y="337"/>
      <point x="54" y="325" type="curve" smooth="yes"/>
      <point x="54" y="118"/>
      <point x="154" y="-12"/>
    </contour>
    <contour>
      <point x="318" y="674" type="move" name="aboveUC"/>
    </contour>
    <contour>
      <point x="310" y="0" type="move" name="ogonekUC"/>
    </contour>
    <contour>
      <point x="310" y="0" type="move" name="baseLC"/>
    </contour>
    <contour>
      <point x="306" y="-20" type="move" name="belowLC"/>
    </contour>
  </outline>
</glyph>
<glyph name="florin" format="1">
	<unicode hex="0192"/>
	<advance width="600"/>
	<outline>
		<contour>
			<point x="137" y="-97" type="curve" smooth="yes"/>
			<point x="268" y="-97"/>
			<point x="309" y="-7"/>
			<point x="324" y="113" type="curve" smooth="yes"/>
			<point x="366" y="470" type="line"/>
			<point x="374" y="527"/>
			<point x="399" y="573"/>
			<point x="458" y="573" type="curve" smooth="yes"/>
			<point x="484" y="573"/>
			<point x="503" y="567"/>
			<point x="519" y="560" type="curve"/>
			<point x="543" y="646" type="line"/>
			<point x="522" y="657"/>
			<point x="481" y="666"/>
			<point x="449" y="666" type="curve" smooth="yes"/>
			<point x="324" y="666"/>
			<point x="274" y="600"/>
			<point x="254" y="460" type="curve"/>
			<point x="219" y="144" type="line" smooth="yes"/>
			<point x="204" y="36"/>
			<point x="183" y="-4"/>
			<point x="122" y="-5" type="curve"/>
			<point x="102" y="-5"/>
			<point x="83" y="0"/>
			<point x="65" y="6" type="curve"/>
			<point x="48" y="-80" type="line"/>
			<point x="66" y="-89"/>
			<point x="98" y="-96"/>
		</contour>
		<contour>
			<point x="144" y="326" type="line"/>
			<point x="487" y="326" type="line"/>
			<point x="487" y="411" type="line"/>
			<point x="216" y="411" type="line"/>
			<point x="144" y="406" type="line"/>
		</contour>
	</outline>
</glyph>
<glyph name="ohorn" format="1">
  <advance width="600"/>
  <unicode hex="01A1"/>
  <outline>
    <contour>
      <point x="452" y="439" type="line"/>
      <point x="521" y="459"/>
      <point x="576" y="505"/>
      <point x="576" y="589" type="curve" smooth="yes"/>
      <point x="576" y="624"/>
      <point x="565" y="658"/>
      <point x="550" y="682" type="curve"/>
      <point x="463" y="643" type="line"/>
      <point x="473" y="628"/>
      <point x="478" y="604"/>
      <point x="478" y="581" type="curve" smooth="yes"/>
      <point x="478" y="520"/>
      <point x="446" y="491"/>
      <point x="393" y="480" type="curve"/>
    </contour>
    <component base="o"/>
    <contour>
      <point x="300" y="512" type="move" name="aboveLC"/>
    </contour>
    <contour>
      <point x="300" y="-20" type="move" name="belowLC"/>
    </contour>
  </outline>
</glyph>
<glyph name="Uhorn" format="1">
  <advance width="600"/>
  <unicode hex="01AF"/>
  <outline>
    <contour>
      <point x="528" y="609" type="line"/>
      <point x="598" y="623"/>
      <point x="646" y="661"/>
      <point x="646" y="740" type="curve" smooth="yes"/>
      <point x="646" y="775"/>
      <point x="634" y="808"/>
      <point x="619" y="830" type="curve"/>
      <point x="532" y="794" type="line"/>
      <point x="540" y="778"/>
      <point x="547" y="755"/>
      <point x="547" y="732" type="curve" smooth="yes"/>
      <point x="547" y="673"/>
      <point x="514" y="658"/>
      <point x="468" y="654" type="curve"/>
    </contour>
    <component base="U"/>
    <contour>
      <point x="300" y="674" type="move" name="aboveUC"/>
    </contour>
    <contour>
      <point x="300" y="-20" type="move" name="belowLC"/>
    </contour>
  </outline>
</glyph>
<glyph name="schwa" format="1">
  <advance width="600"/>
  <unicode hex="0259"/>
  <outline>
    <contour>
      <point x="294" y="-12" type="curve" smooth="yes"/>
      <point x="428" y="-12"/>
      <point x="542" y="83"/>
      <point x="542" y="246" type="curve" smooth="yes"/>
      <point x="542" y="408"/>
      <point x="434" y="503"/>
      <point x="285" y="503" type="curve" smooth="yes"/>
      <point x="213" y="503"/>
      <point x="146" y="479"/>
      <point x="93" y="446" type="curve"/>
      <point x="132" y="374" type="line"/>
      <point x="176" y="399"/>
      <point x="219" y="414"/>
      <point x="271" y="414" type="curve" smooth="yes"/>
      <point x="370" y="414"/>
      <point x="430" y="359"/>
      <point x="430" y="245" type="curve" smooth="yes"/>
      <point x="430" y="133"/>
      <point x="375" y="77"/>
      <point x="290" y="77" type="curve" smooth="yes"/>
      <point x="209" y="77"/>
      <point x="163" y="129"/>
      <point x="163" y="228" type="curve"/>
      <point x="142" y="203" type="line"/>
      <point x="460" y="203" type="line"/>
      <point x="460" y="284" type="line"/>
      <point x="67" y="284" type="line"/>
      <point x="65" y="272"/>
      <point x="62" y="248"/>
      <point x="62" y="226" type="curve" smooth="yes"/>
      <point x="62" y="89"/>
      <point x="143" y="-12"/>
    </contour>
    <contour>
      <point x="294" y="0" type="move" name="ogonekLC"/>
    </contour>
    <contour>
      <point x="310" y="512" type="move" name="aboveLC"/>
    </contour>
    <contour>
      <point x="294" y="0" type="move" name="baseLC"/>
    </contour>
    <contour>
      <point x="294" y="-20" type="move" name="belowLC"/>
    </contour>
  </outline>
</glyph>
<glyph name="eopen" format="1">
  <advance width="600"/>
  <unicode hex="025B"/>
  <outline>
    <contour>
      <point x="317" y="-12" type="curve" smooth="yes"/>
      <point x="412" y="-12"/>
      <point x="479" y="6"/>
      <point x="541" y="57" type="curve"/>
      <point x="493" y="131" type="line"/>
      <point x="451" y="95"/>
      <point x="399" y="77"/>
      <point x="338" y="77" type="curve" smooth="yes"/>
      <point x="242" y="77"/>
      <point x="194" y="103"/>
      <point x="194" y="150" type="curve" smooth="yes"/>
      <point x="194" y="195"/>
      <point x="239" y="212"/>
      <point x="326" y="212" type="curve"/>
      <point x="401" y="212" type="line"/>
      <point x="401" y="294" type="line"/>
      <point x="341" y="294" type="line"/>
      <point x="260" y="294"/>
      <point x="217" y="313"/>
      <point x="217" y="352" type="curve" smooth="yes"/>
      <point x="217" y="393"/>
      <point x="256" y="414"/>
      <point x="336" y="414" type="curve" smooth="yes"/>
      <point x="394" y="414"/>
      <point x="442" y="399"/>
      <point x="487" y="370" type="curve"/>
      <point x="530" y="443" type="line"/>
      <point x="475" y="480"/>
      <point x="406" y="503"/>
      <point x="330" y="503" type="curve" smooth="yes"/>
      <point x="198" y="503"/>
      <point x="104" y="462"/>
      <point x="104" y="368" type="curve" smooth="yes"/>
      <point x="104" y="324"/>
      <point x="136" y="282"/>
      <point x="195" y="262" type="curve"/>
      <point x="195" y="258" type="line"/>
      <point x="127" y="241"/>
      <point x="80" y="207"/>
      <point x="80" y="139" type="curve" smooth="yes"/>
      <point x="80" y="41"/>
      <point x="180" y="-12"/>
    </contour>
    <contour>
      <point x="330" y="512" type="move" name="aboveLC"/>
    </contour>
    <contour>
      <point x="314" y="0" type="move" name="baseLC"/>
    </contour>
    <contour>
      <point x="314" y="-20" type="move" name="belowLC"/>
    </contour>
  </outline>
</glyph>
<glyph name="ghook" format="1">
  <advance width="600"/>
  <unicode hex="0260"/>
  <outline>
    <contour>
      <point x="274" y="-205" type="curve" smooth="yes"/>
      <point x="425" y="-205"/>
      <point x="514" y="-134"/>
      <point x="514" y="-10" type="curve" smooth="yes"/>
      <point x="514" y="468" type="line" smooth="yes"/>
      <point x="514" y="519"/>
      <point x="529" y="550"/>
      <point x="570" y="550" type="curve" smooth="yes"/>
      <point x="579" y="550"/>
      <point x="588" y="548"/>
      <point x="595" y="545" type="curve"/>
      <point x="616" y="631" type="line"/>
      <point x="600" y="637"/>
      <point x="582" y="641"/>
      <point x="554" y="641" type="curve" smooth="yes"/>
      <point x="445" y="641"/>
      <point x="401" y="570"/>
      <point x="401" y="486" type="curve"/>
      <point x="403" y="445" type="line"/>
      <point x="400" y="445" type="line"/>
      <point x="365" y="480"/>
      <point x="324" y="503"/>
      <point x="270" y="503" type="curve" smooth="yes"/>
      <point x="161" y="503"/>
      <point x="54" y="406"/>
      <point x="54" y="254" type="curve" smooth="yes"/>
      <point x="54" y="106"/>
      <point x="137" y="9"/>
      <point x="262" y="9" type="curve" smooth="yes"/>
      <point x="314" y="9"/>
      <point x="365" y="34"/>
      <point x="400" y="70" type="curve"/>
      <point x="403" y="70" type="line"/>
      <point x="399" y="-10" type="line" smooth="yes"/>
      <point x="396" y="-72"/>
      <point x="357" y="-114"/>
      <point x="274" y="-114" type="curve" smooth="yes"/>
      <point x="229" y="-114"/>
      <point x="176" y="-102"/>
      <point x="128" y="-73" type="curve"/>
      <point x="88" y="-151" type="line"/>
      <point x="143" y="-186"/>
      <point x="214" y="-205"/>
    </contour>
    <contour>
      <point x="290" y="103" type="curve" smooth="yes"/>
      <point x="217" y="103"/>
      <point x="172" y="160"/>
      <point x="172" y="255" type="curve" smooth="yes"/>
      <point x="172" y="349"/>
      <point x="226" y="408"/>
      <point x="292" y="408" type="curve" smooth="yes"/>
      <point x="327" y="408"/>
      <point x="364" y="396"/>
      <point x="399" y="363" type="curve"/>
      <point x="399" y="163" type="line"/>
      <point x="364" y="121"/>
      <point x="329" y="103"/>
    </contour>
    <contour>
      <point x="306" y="512" type="move" name="aboveLC"/>
    </contour>
    <contour>
      <point x="296" y="-212" type="move" name="belowLC"/>
    </contour>
  </outline>
</glyph>
<glyph name="gsmall" format="1">
  <advance width="600"/>
  <unicode hex="0262"/>
  <outline>
    <contour>
      <point x="338" y="-12" type="curve" smooth="yes"/>
      <point x="415" y="-12"/>
      <point x="487" y="17"/>
      <point x="529" y="56" type="curve"/>
      <point x="529" y="280" type="line"/>
      <point x="317" y="280" type="line"/>
      <point x="317" y="201" type="line"/>
      <point x="430" y="201" type="line"/>
      <point x="430" y="104" type="line"/>
      <point x="406" y="87"/>
      <point x="377" y="77"/>
      <point x="342" y="77" type="curve" smooth="yes"/>
      <point x="253" y="77"/>
      <point x="188" y="139"/>
      <point x="188" y="244" type="curve" smooth="yes"/>
      <point x="188" y="357"/>
      <point x="264" y="414"/>
      <point x="350" y="414" type="curve" smooth="yes"/>
      <point x="408" y="414"/>
      <point x="439" y="392"/>
      <point x="474" y="365" type="curve"/>
      <point x="528" y="435" type="line"/>
      <point x="484" y="472"/>
      <point x="431" y="503"/>
      <point x="342" y="503" type="curve" smooth="yes"/>
      <point x="200" y="503"/>
      <point x="71" y="408"/>
      <point x="71" y="244" type="curve" smooth="yes"/>
      <point x="71" y="74"/>
      <point x="193" y="-12"/>
    </contour>
    <contour>
      <point x="336" y="512" type="move" name="aboveLC"/>
    </contour>
    <contour>
      <point x="324" y="-20" type="move" name="belowLC"/>
    </contour>
  </outline>
</glyph>
<glyph name="hhook" format="1">
  <advance width="600"/>
  <unicode hex="0266"/>
  <outline>
    <contour>
      <point x="82" y="0" type="line"/>
      <point x="198" y="0" type="line"/>
      <point x="198" y="323" type="line"/>
      <point x="243" y="369"/>
      <point x="276" y="392"/>
      <point x="324" y="392" type="curve" smooth="yes"/>
      <point x="391" y="392"/>
      <point x="416" y="356"/>
      <point x="416" y="277" type="curve" smooth="yes"/>
      <point x="416" y="0" type="line"/>
      <point x="532" y="0" type="line"/>
      <point x="532" y="292" type="line" smooth="yes"/>
      <point x="532" y="419"/>
      <point x="480" y="491"/>
      <point x="367" y="491" type="curve" smooth="yes"/>
      <point x="292" y="491"/>
      <point x="237" y="452"/>
      <point x="194" y="407" type="curve"/>
      <point x="190" y="407" type="line"/>
      <point x="198" y="504" type="line"/>
      <point x="198" y="525" type="line"/>
      <point x="201" y="592"/>
      <point x="231" y="627"/>
      <point x="295" y="627" type="curve" smooth="yes"/>
      <point x="316" y="627"/>
      <point x="339" y="621"/>
      <point x="361" y="612" type="curve"/>
      <point x="384" y="698" type="line"/>
      <point x="358" y="708"/>
      <point x="321" y="718"/>
      <point x="280" y="718" type="curve" smooth="yes"/>
      <point x="141" y="718"/>
      <point x="82" y="631"/>
      <point x="82" y="518" type="curve"/>
    </contour>
    <contour>
      <point x="278" y="734" type="move" name="aboveUC"/>
    </contour>
    <contour>
      <point x="313" y="-20" type="move" name="belowLC"/>
    </contour>
  </outline>
</glyph>
<glyph name="ismall" format="1">
  <advance width="600"/>
  <unicode hex="026A"/>
  <outline>
    <contour>
      <point x="82" y="0" type="line"/>
      <point x="518" y="0" type="line"/>
      <point x="518" y="92" type="line"/>
      <point x="357" y="92" type="line"/>
      <point x="357" y="400" type="line"/>
      <point x="518" y="400" type="line"/>
      <point x="518" y="491" type="line"/>
      <point x="82" y="491" type="line"/>
      <point x="82" y="400" type="line"/>
      <point x="242" y="400" type="line"/>
      <point x="242" y="92" type="line"/>
      <point x="82" y="92" type="line"/>
    </contour>
    <contour>
      <point x="300" y="512" type="move" name="aboveLC"/>
    </contour>
    <contour>
      <point x="300" y="-20" type="move" name="belowLC"/>
    </contour>
  </outline>
</glyph>
<glyph name="lretroflex" format="1">
  <advance width="600"/>
  <unicode hex="026D"/>
  <outline>
    <contour>
      <point x="401" y="-185" type="curve" smooth="yes"/>
      <point x="458" y="-185"/>
      <point x="493" y="-173"/>
      <point x="540" y="-157" type="curve"/>
      <point x="513" y="-72" type="line"/>
      <point x="480" y="-85"/>
      <point x="454" y="-91"/>
      <point x="429" y="-91" type="curve" smooth="yes"/>
      <point x="379" y="-91"/>
      <point x="341" y="-66"/>
      <point x="341" y="0" type="curve" smooth="yes"/>
      <point x="341" y="706" type="line"/>
      <point x="71" y="706" type="line"/>
      <point x="71" y="615" type="line"/>
      <point x="226" y="615" type="line"/>
      <point x="226" y="6" type="line" smooth="yes"/>
      <point x="226" y="-115"/>
      <point x="286" y="-185"/>
    </contour>
    <contour>
      <point x="280" y="734" type="move" name="aboveUC"/>
    </contour>
    <contour>
      <point x="376" y="-212" type="move" name="belowLC"/>
    </contour>
  </outline>
</glyph>
<glyph name="lezh" format="1">
  <advance width="600"/>
  <unicode hex="026E"/>
  <outline>
    <contour>
      <point x="60" y="0" type="line"/>
      <point x="175" y="0" type="line"/>
      <point x="175" y="706" type="line"/>
      <point x="60" y="706" type="line"/>
    </contour>
    <contour>
      <point x="364" y="-206" type="curve" smooth="yes"/>
      <point x="481" y="-206"/>
      <point x="585" y="-126"/>
      <point x="585" y="18" type="curve" smooth="yes"/>
      <point x="585" y="129"/>
      <point x="510" y="219"/>
      <point x="362" y="206" type="curve"/>
      <point x="374" y="182" type="line"/>
      <point x="563" y="430" type="line"/>
      <point x="563" y="491" type="line"/>
      <point x="171" y="491" type="line"/>
      <point x="171" y="400" type="line"/>
      <point x="423" y="400" type="line"/>
      <point x="249" y="171" type="line"/>
      <point x="290" y="114" type="line"/>
      <point x="312" y="123"/>
      <point x="324" y="127"/>
      <point x="355" y="127" type="curve" smooth="yes"/>
      <point x="425" y="127"/>
      <point x="469" y="85"/>
      <point x="469" y="14" type="curve" smooth="yes"/>
      <point x="469" y="-64"/>
      <point x="418" y="-112"/>
      <point x="351" y="-112" type="curve" smooth="yes"/>
      <point x="289" y="-112"/>
      <point x="246" y="-86"/>
      <point x="212" y="-55" type="curve"/>
      <point x="158" y="-127" type="line"/>
      <point x="203" y="-169"/>
      <point x="266" y="-206"/>
    </contour>
    <contour>
      <point x="118" y="734" type="move" name="aboveUC"/>
    </contour>
    <contour>
      <point x="362" y="-212" type="move" name="belowLC"/>
    </contour>
  </outline>
</glyph>
<glyph name="mhook" format="1">
  <advance width="600"/>
  <unicode hex="0271"/>
  <outline>
    <contour>
      <point x="429" y="-206" type="curve" smooth="yes"/>
      <point x="530" y="-206"/>
      <point x="566" y="-138"/>
      <point x="566" y="-43" type="curve"/>
      <point x="566" y="348" type="line" smooth="yes"/>
      <point x="566" y="446"/>
      <point x="525" y="503"/>
      <point x="457" y="503" type="curve" smooth="yes"/>
      <point x="401" y="503"/>
      <point x="368" y="469"/>
      <point x="345" y="421" type="curve"/>
      <point x="332" y="475"/>
      <point x="301" y="503"/>
      <point x="256" y="503" type="curve" smooth="yes"/>
      <point x="199" y="503"/>
      <point x="169" y="471"/>
      <point x="147" y="428" type="curve"/>
      <point x="144" y="428" type="line"/>
      <point x="135" y="491" type="line"/>
      <point x="46" y="491" type="line"/>
      <point x="46" y="0" type="line"/>
      <point x="158" y="0" type="line"/>
      <point x="158" y="343" type="line"/>
      <point x="176" y="384"/>
      <point x="193" y="405"/>
      <point x="219" y="405" type="curve" smooth="yes"/>
      <point x="247" y="405"/>
      <point x="258" y="383"/>
      <point x="258" y="340" type="curve" smooth="yes"/>
      <point x="258" y="0" type="line"/>
      <point x="354" y="0" type="line"/>
      <point x="354" y="343" type="line"/>
      <point x="374" y="384"/>
      <point x="389" y="405"/>
      <point x="416" y="405" type="curve" smooth="yes"/>
      <point x="443" y="405"/>
      <point x="455" y="383"/>
      <point x="455" y="340" type="curve" smooth="yes"/>
      <point x="455" y="-39" type="line"/>
      <point x="455" y="-87"/>
      <point x="448" y="-115"/>
      <point x="414" y="-115" type="curve" smooth="yes"/>
      <point x="402" y="-115"/>
      <point x="389" y="-112"/>
      <point x="379" y="-108" type="curve"/>
      <point x="358" y="-194" type="line"/>
      <point x="375" y="-202"/>
      <point x="399" y="-206"/>
    </contour>
    <contour>
      <point x="306" y="512" type="move" name="aboveLC"/>
    </contour>
    <contour>
      <point x="306" y="-212" type="move" name="belowLC"/>
    </contour>
  </outline>
</glyph>
<glyph name="nhookleft" format="1">
  <advance width="600"/>
  <unicode hex="0272"/>
  <outline>
    <contour>
      <point x="59" y="-185" type="curve" smooth="yes"/>
      <point x="168" y="-185"/>
      <point x="205" y="-112"/>
      <point x="205" y="-12" type="curve" smooth="yes"/>
      <point x="205" y="335" type="line"/>
      <point x="250" y="381"/>
      <point x="281" y="404"/>
      <point x="329" y="404" type="curve" smooth="yes"/>
      <point x="390" y="404"/>
      <point x="416" y="373"/>
      <point x="416" y="289" type="curve" smooth="yes"/>
      <point x="416" y="0" type="line"/>
      <point x="532" y="0" type="line"/>
      <point x="532" y="304" type="line" smooth="yes"/>
      <point x="532" y="431"/>
      <point x="481" y="503"/>
      <point x="368" y="503" type="curve" smooth="yes"/>
      <point x="296" y="503"/>
      <point x="244" y="464"/>
      <point x="197" y="417" type="curve"/>
      <point x="193" y="417" type="line"/>
      <point x="184" y="491" type="line"/>
      <point x="90" y="491" type="line"/>
      <point x="90" y="-14" type="line" smooth="yes"/>
      <point x="90" y="-66"/>
      <point x="78" y="-93"/>
      <point x="43" y="-93" type="curve" smooth="yes"/>
      <point x="31" y="-93"/>
      <point x="21" y="-90"/>
      <point x="11" y="-86" type="curve"/>
      <point x="-10" y="-172" type="line"/>
      <point x="6" y="-179"/>
      <point x="28" y="-185"/>
    </contour>
    <contour>
      <point x="332" y="512" type="move" name="aboveLC"/>
    </contour>
    <contour>
      <point x="220" y="-212" type="move" name="belowLC"/>
    </contour>
  </outline>
</glyph>
<glyph name="nsmall" format="1">
  <advance width="600"/>
  <unicode hex="0274"/>
  <outline>
    <contour>
      <point x="85" y="0" type="line"/>
      <point x="193" y="0" type="line"/>
      <point x="193" y="169" type="line" smooth="yes"/>
      <point x="193" y="220"/>
      <point x="188" y="283"/>
      <point x="183" y="346" type="curve"/>
      <point x="187" y="346" type="line"/>
      <point x="204" y="314"/>
      <point x="229" y="270"/>
      <point x="248" y="242" type="curve" smooth="yes"/>
      <point x="407" y="0" type="line"/>
      <point x="515" y="0" type="line"/>
      <point x="515" y="491" type="line"/>
      <point x="407" y="491" type="line"/>
      <point x="407" y="322" type="line" smooth="yes"/>
      <point x="407" y="271"/>
      <point x="412" y="207"/>
      <point x="417" y="146" type="curve"/>
      <point x="413" y="146" type="line"/>
      <point x="395" y="176"/>
      <point x="371" y="221"/>
      <point x="352" y="250" type="curve" smooth="yes"/>
      <point x="193" y="491" type="line"/>
      <point x="85" y="491" type="line"/>
    </contour>
    <contour>
      <point x="308" y="512" type="move" name="aboveLC"/>
    </contour>
    <contour>
      <point x="304" y="-20" type="move" name="belowLC"/>
    </contour>
  </outline>
</glyph>
<glyph name="oesmall" format="1">
  <advance width="600"/>
  <unicode hex="0276"/>
  <outline>
    <contour>
      <point x="239" y="-12" type="curve" smooth="yes"/>
      <point x="274" y="-12"/>
      <point x="302" y="-9"/>
      <point x="341" y="0" type="curve"/>
      <point x="590" y="0" type="line"/>
      <point x="590" y="92" type="line"/>
      <point x="406" y="92" type="line"/>
      <point x="406" y="212" type="line"/>
      <point x="547" y="212" type="line"/>
      <point x="547" y="294" type="line"/>
      <point x="406" y="294" type="line"/>
      <point x="406" y="399" type="line"/>
      <point x="580" y="399" type="line"/>
      <point x="580" y="491" type="line"/>
      <point x="341" y="491" type="line"/>
      <point x="299" y="501"/>
      <point x="274" y="503"/>
      <point x="239" y="503" type="curve" smooth="yes"/>
      <point x="127" y="503"/>
      <point x="26" y="416"/>
      <point x="26" y="245" type="curve" smooth="yes"/>
      <point x="26" y="73"/>
      <point x="127" y="-12"/>
    </contour>
    <contour>
      <point x="250" y="80" type="curve" smooth="yes"/>
      <point x="192" y="80"/>
      <point x="144" y="126"/>
      <point x="144" y="245" type="curve" smooth="yes"/>
      <point x="144" y="359"/>
      <point x="192" y="409"/>
      <point x="250" y="409" type="curve" smooth="yes"/>
      <point x="267" y="409"/>
      <point x="287" y="405"/>
      <point x="303" y="400" type="curve"/>
      <point x="303" y="89" type="line"/>
      <point x="286" y="84"/>
      <point x="266" y="80"/>
    </contour>
    <contour>
      <point x="356" y="512" type="move" name="aboveLC"/>
    </contour>
    <contour>
      <point x="350" y="-20" type="move" name="belowLC"/>
    </contour>
  </outline>
</glyph>
<glyph name="rsmall" format="1">
  <advance width="600"/>
  <unicode hex="0280"/>
  <outline>
    <contour>
      <point x="86" y="0" type="line"/>
      <point x="202" y="0" type="line"/>
      <point x="202" y="175" type="line"/>
      <point x="334" y="175" type="line"/>
      <point x="427" y="175"/>
      <point x="527" y="221"/>
      <point x="527" y="337" type="curve" smooth="yes"/>
      <point x="527" y="452"/>
      <point x="442" y="491"/>
      <point x="332" y="491" type="curve" smooth="yes"/>
      <point x="86" y="491" type="line"/>
    </contour>
    <contour>
      <point x="202" y="258" type="line"/>
      <point x="202" y="404" type="line"/>
      <point x="316" y="404" type="line" smooth="yes"/>
      <point x="379" y="404"/>
      <point x="413" y="383"/>
      <point x="413" y="334" type="curve" smooth="yes"/>
      <point x="413" y="285"/>
      <point x="379" y="258"/>
      <point x="316" y="258" type="curve" smooth="yes"/>
    </contour>
    <contour>
      <point x="426" y="0" type="line"/>
      <point x="556" y="0" type="line"/>
      <point x="382" y="237" type="line"/>
      <point x="283" y="205" type="line"/>
    </contour>
    <contour>
      <point x="314" y="512" type="move" name="aboveLC"/>
    </contour>
    <contour>
      <point x="314" y="-20" type="move" name="belowLC"/>
    </contour>
  </outline>
</glyph>
<glyph name="tturned" format="1">
  <advance width="600"/>
  <unicode hex="0287"/>
  <outline>
    <component base="t" xScale="-1.0" yScale="-1.0" xOffset="600" yOffset="491"/>
    <contour>
      <point x="242" y="512" type="move" name="aboveLC"/>
    </contour>
    <contour>
      <point x="347" y="-104" type="move" name="belowLC"/>
    </contour>
  </outline>
</glyph>
<glyph name="vhook" format="1">
  <advance width="600"/>
  <unicode hex="028B"/>
  <outline>
    <contour>
      <point x="297" y="-12" type="curve" smooth="yes"/>
      <point x="462" y="-12"/>
      <point x="547" y="115"/>
      <point x="547" y="297" type="curve" smooth="yes"/>
      <point x="547" y="439"/>
      <point x="479" y="503"/>
      <point x="381" y="503" type="curve" smooth="yes"/>
      <point x="349" y="503"/>
      <point x="333" y="501"/>
      <point x="314" y="495" type="curve"/>
      <point x="328" y="408" type="line"/>
      <point x="339" y="411"/>
      <point x="343" y="413"/>
      <point x="356" y="413" type="curve" smooth="yes"/>
      <point x="406" y="413"/>
      <point x="428" y="368"/>
      <point x="428" y="280" type="curve" smooth="yes"/>
      <point x="428" y="163"/>
      <point x="383" y="82"/>
      <point x="302" y="82" type="curve" smooth="yes"/>
      <point x="233" y="82"/>
      <point x="185" y="124"/>
      <point x="185" y="224" type="curve" smooth="yes"/>
      <point x="185" y="491" type="line"/>
      <point x="70" y="491" type="line"/>
      <point x="70" y="220" type="line" smooth="yes"/>
      <point x="70" y="63"/>
      <point x="162" y="-12"/>
    </contour>
    <contour>
      <point x="305" y="512" type="move" name="aboveLC"/>
    </contour>
    <contour>
      <point x="305" y="-20" type="move" name="belowLC"/>
    </contour>
  </outline>
</glyph>
<glyph name="yturned" format="1">
  <advance width="600"/>
  <unicode hex="028E"/>
  <outline>
    <contour>
      <point x="39" y="0" type="line"/>
      <point x="148" y="0" type="line"/>
      <point x="237" y="241" type="line" smooth="yes"/>
      <point x="253" y="287"/>
      <point x="271" y="338"/>
      <point x="286" y="386" type="curve"/>
      <point x="290" y="386" type="line"/>
      <point x="308" y="336"/>
      <point x="326" y="286"/>
      <point x="344" y="241" type="curve" smooth="yes"/>
      <point x="445" y="0" type="line"/>
      <point x="560" y="0" type="line"/>
      <point x="340" y="485" type="line"/>
      <point x="362" y="539" type="line"/>
      <point x="381" y="588"/>
      <point x="415" y="626"/>
      <point x="474" y="626" type="curve" smooth="yes"/>
      <point x="488" y="626"/>
      <point x="501" y="623"/>
      <point x="514" y="619" type="curve"/>
      <point x="536" y="708" type="line"/>
      <point x="516" y="714"/>
      <point x="492" y="718"/>
      <point x="467" y="718" type="curve" smooth="yes"/>
      <point x="352" y="718"/>
      <point x="295" y="647"/>
      <point x="254" y="537" type="curve" smooth="yes"/>
    </contour>
    <contour>
      <point x="376" y="734" type="move" name="aboveUC"/>
    </contour>
    <contour>
      <point x="304" y="-20" type="move" name="belowLC"/>
    </contour>
  </outline>
</glyph>
<glyph name="ysmall" format="1">
	<unicode hex="028F"/>
	<advance width="600"/>
	<outline>
		<contour>
			<point x="244" y="0" type="line"/>
			<point x="359" y="0" type="line"/>
			<point x="359" y="157" type="line"/>
			<point x="557" y="491" type="line"/>
			<point x="436" y="491" type="line"/>
			<point x="368" y="369" type="line" smooth="yes"/>
			<point x="344" y="324"/>
			<point x="325" y="287"/>
			<point x="304" y="240" type="curve"/>
			<point x="300" y="240" type="line"/>
			<point x="278" y="287"/>
			<point x="258" y="324"/>
			<point x="236" y="369" type="curve" smooth="yes"/>
			<point x="167" y="491" type="line"/>
			<point x="45" y="491" type="line"/>
			<point x="244" y="157" type="line"/>
		</contour>
		<contour>
			<point name="aboveLC" x="300" y="512" type="move"/>
		</contour>
		<contour>
			<point name="belowLC" x="300" y="-20" type="move"/>
		</contour>
	</outline>
</glyph>
<glyph name="zretroflex" format="1">
  <advance width="600"/>
  <unicode hex="0290"/>
  <outline>
    <contour>
      <point x="558" y="-185" type="curve" smooth="yes"/>
      <point x="589" y="-185"/>
      <point x="611" y="-179"/>
      <point x="627" y="-172" type="curve"/>
      <point x="606" y="-86" type="line"/>
      <point x="596" y="-90"/>
      <point x="585" y="-93"/>
      <point x="574" y="-93" type="curve" smooth="yes"/>
      <point x="539" y="-93"/>
      <point x="527" y="-66"/>
      <point x="527" y="-14" type="curve" smooth="yes"/>
      <point x="527" y="92" type="line"/>
      <point x="232" y="92" type="line"/>
      <point x="524" y="430" type="line"/>
      <point x="524" y="491" type="line"/>
      <point x="104" y="491" type="line"/>
      <point x="104" y="400" type="line"/>
      <point x="362" y="400" type="line"/>
      <point x="71" y="62" type="line"/>
      <point x="71" y="0" type="line"/>
      <point x="412" y="0" type="line"/>
      <point x="412" y="-24" type="line" smooth="yes"/>
      <point x="412" y="-112"/>
      <point x="448" y="-185"/>
    </contour>
    <contour>
      <point x="322" y="512" type="move" name="aboveLC"/>
    </contour>
  </outline>
</glyph>
<glyph name="ezh" format="1">
  <advance width="600"/>
  <unicode hex="0292"/>
  <outline>
    <contour>
      <point x="285" y="-206" type="curve" smooth="yes"/>
      <point x="415" y="-206"/>
      <point x="530" y="-125"/>
      <point x="530" y="22" type="curve" smooth="yes"/>
      <point x="530" y="131"/>
      <point x="450" y="212"/>
      <point x="321" y="212" type="curve" smooth="yes"/>
      <point x="300" y="212"/>
      <point x="282" y="208"/>
      <point x="258" y="196" type="curve"/>
      <point x="276" y="184" type="line"/>
      <point x="508" y="430" type="line"/>
      <point x="508" y="491" type="line"/>
      <point x="92" y="491" type="line"/>
      <point x="92" y="400" type="line"/>
      <point x="366" y="400" type="line"/>
      <point x="142" y="172" type="line"/>
      <point x="183" y="114" type="line"/>
      <point x="219" y="129"/>
      <point x="231" y="136"/>
      <point x="272" y="136" type="curve" smooth="yes"/>
      <point x="361" y="136"/>
      <point x="414" y="92"/>
      <point x="414" y="18" type="curve" smooth="yes"/>
      <point x="414" y="-62"/>
      <point x="352" y="-112"/>
      <point x="272" y="-112" type="curve" smooth="yes"/>
      <point x="200" y="-112"/>
      <point x="150" y="-79"/>
      <point x="109" y="-40" type="curve"/>
      <point x="56" y="-113" type="line"/>
      <point x="107" y="-161"/>
      <point x="175" y="-206"/>
    </contour>
    <contour>
      <point x="300" y="512" type="move" name="aboveLC"/>
    </contour>
    <contour>
      <point x="284" y="-223" type="move" name="belowLC"/>
    </contour>
  </outline>
</glyph>
<glyph name="glottalstop" format="1">
  <advance width="600"/>
  <unicode hex="0294"/>
  <outline>
    <contour>
      <point x="222" y="0" type="line"/>
      <point x="337" y="0" type="line"/>
      <point x="337" y="266" type="line"/>
      <point x="445" y="340"/>
      <point x="519" y="400"/>
      <point x="519" y="513" type="curve" smooth="yes"/>
      <point x="519" y="649"/>
      <point x="410" y="718"/>
      <point x="279" y="718" type="curve" smooth="yes"/>
      <point x="177" y="718"/>
      <point x="106" y="673"/>
      <point x="60" y="622" type="curve"/>
      <point x="119" y="549" type="line"/>
      <point x="153" y="589"/>
      <point x="202" y="624"/>
      <point x="268" y="624" type="curve" smooth="yes"/>
      <point x="352" y="624"/>
      <point x="403" y="581"/>
      <point x="403" y="509" type="curve" smooth="yes"/>
      <point x="403" y="433"/>
      <point x="353" y="389"/>
      <point x="222" y="312" type="curve"/>
    </contour>
    <contour>
      <point x="300" y="734" type="move" name="aboveUC"/>
    </contour>
    <contour>
      <point x="279" y="-20" type="move" name="belowLC"/>
    </contour>
  </outline>
</glyph>
<glyph name="glottalstopreversed" format="1">
  <advance width="600"/>
  <unicode hex="0295"/>
  <outline>
    <contour>
      <point x="261" y="0" type="line"/>
      <point x="376" y="0" type="line"/>
      <point x="376" y="312" type="line"/>
      <point x="244" y="389"/>
      <point x="195" y="433"/>
      <point x="195" y="509" type="curve" smooth="yes"/>
      <point x="195" y="581"/>
      <point x="246" y="624"/>
      <point x="330" y="624" type="curve" smooth="yes"/>
      <point x="395" y="624"/>
      <point x="445" y="589"/>
      <point x="479" y="549" type="curve"/>
      <point x="537" y="622" type="line"/>
      <point x="491" y="673"/>
      <point x="421" y="718"/>
      <point x="318" y="718" type="curve" smooth="yes"/>
      <point x="188" y="718"/>
      <point x="79" y="649"/>
      <point x="79" y="513" type="curve" smooth="yes"/>
      <point x="79" y="400"/>
      <point x="153" y="340"/>
      <point x="261" y="266" type="curve"/>
    </contour>
    <contour>
      <point x="304" y="734" type="move" name="aboveUC"/>
    </contour>
    <contour>
      <point x="320" y="-20" type="move" name="belowLC"/>
    </contour>
  </outline>
</glyph>
<glyph name="bsmall" format="1">
	<unicode hex="0299"/>
	<advance width="600"/>
	<outline>
		<component base="ve" xOffset="19"/>
		<contour>
			<point name="aboveLC" x="320" y="512" type="move"/>
		</contour>
		<contour>
			<point name="belowLC" x="320" y="-20" type="move"/>
		</contour>
	</outline>
</glyph>
<glyph name="kturned" format="1">
  <advance width="600"/>
  <unicode hex="029E"/>
  <outline>
    <contour>
      <point x="394" y="-194" type="line"/>
      <point x="510" y="-194" type="line"/>
      <point x="510" y="491" type="line"/>
      <point x="394" y="491" type="line"/>
      <point x="394" y="363" type="line"/>
      <point x="41" y="0" type="line"/>
      <point x="169" y="0" type="line"/>
      <point x="390" y="228" type="line"/>
      <point x="394" y="228" type="line"/>
    </contour>
    <contour>
      <point x="246" y="177" type="line"/>
      <point x="313" y="250" type="line"/>
      <point x="146" y="491" type="line"/>
      <point x="20" y="491" type="line"/>
    </contour>
    <contour>
      <point x="290" y="512" type="move" name="aboveLC"/>
    </contour>
    <contour>
      <point x="450" y="-212" type="move" name="belowLC"/>
    </contour>
  </outline>
</glyph>
<glyph name="dezh" format="1">
  <advance width="600"/>
  <unicode hex="02A4"/>
  <outline>
    <contour>
      <point x="151" y="-12" type="curve" smooth="yes"/>
      <point x="192" y="-12"/>
      <point x="224" y="15"/>
      <point x="247" y="51" type="curve"/>
      <point x="250" y="51" type="line"/>
      <point x="260" y="0" type="line"/>
      <point x="334" y="0" type="line"/>
      <point x="334" y="706" type="line"/>
      <point x="238" y="706" type="line"/>
      <point x="238" y="544" type="line"/>
      <point x="244" y="452" type="line"/>
      <point x="242" y="452" type="line"/>
      <point x="221" y="484"/>
      <point x="191" y="503"/>
      <point x="155" y="503" type="curve" smooth="yes"/>
      <point x="69" y="503"/>
      <point x="-4" y="402"/>
      <point x="-4" y="245" type="curve" smooth="yes"/>
      <point x="-4" y="86"/>
      <point x="61" y="-12"/>
    </contour>
    <contour>
      <point x="177" y="83" type="curve" smooth="yes"/>
      <point x="129" y="83"/>
      <point x="102" y="142"/>
      <point x="102" y="246" type="curve" smooth="yes"/>
      <point x="102" y="347"/>
      <point x="134" y="408"/>
      <point x="179" y="408" type="curve" smooth="yes"/>
      <point x="204" y="408"/>
      <point x="222" y="392"/>
      <point x="238" y="363" type="curve"/>
      <point x="238" y="146" type="line"/>
      <point x="225" y="108"/>
      <point x="204" y="83"/>
    </contour>
    <contour>
      <point x="444" y="-206" type="curve" smooth="yes"/>
      <point x="548" y="-206"/>
      <point x="618" y="-119"/>
      <point x="618" y="14" type="curve" smooth="yes"/>
      <point x="618" y="125"/>
      <point x="562" y="210"/>
      <point x="467" y="211" type="curve"/>
      <point x="458" y="211"/>
      <point x="450" y="202"/>
      <point x="439" y="199" type="curve"/>
      <point x="453" y="174" type="line"/>
      <point x="597" y="430" type="line"/>
      <point x="597" y="491" type="line"/>
      <point x="304" y="491" type="line"/>
      <point x="304" y="400" type="line"/>
      <point x="486" y="400" type="line"/>
      <point x="358" y="182" type="line"/>
      <point x="397" y="115" type="line"/>
      <point x="413" y="124"/>
      <point x="421" y="127"/>
      <point x="437" y="127" type="curve" smooth="yes"/>
      <point x="483" y="127"/>
      <point x="513" y="88"/>
      <point x="513" y="15" type="curve" smooth="yes"/>
      <point x="513" y="-73"/>
      <point x="479" y="-113"/>
      <point x="433" y="-113" type="curve" smooth="yes"/>
      <point x="399" y="-113"/>
      <point x="375" y="-99"/>
      <point x="351" y="-77" type="curve"/>
      <point x="303" y="-150" type="line"/>
      <point x="338" y="-184"/>
      <point x="380" y="-206"/>
    </contour>
    <contour>
      <point x="280" y="730" type="move" name="aboveUC"/>
    </contour>
    <contour>
      <point x="330" y="-212" type="move" name="belowLC"/>
    </contour>
  </outline>
</glyph>
<glyph name="tesh" format="1">
  <advance width="600"/>
  <unicode hex="02A7"/>
  <outline>
    <contour>
      <point x="248" y="-12" type="curve" smooth="yes"/>
      <point x="287" y="-12"/>
      <point x="320" y="-3"/>
      <point x="346" y="6" type="curve"/>
      <point x="327" y="91" type="line"/>
      <point x="310" y="84"/>
      <point x="291" y="80"/>
      <point x="272" y="80" type="curve" smooth="yes"/>
      <point x="231" y="80"/>
      <point x="212" y="108"/>
      <point x="212" y="166" type="curve" smooth="yes"/>
      <point x="212" y="400" type="line"/>
      <point x="433" y="400" type="line"/>
      <point x="433" y="491" type="line"/>
      <point x="212" y="491" type="line"/>
      <point x="212" y="625" type="line"/>
      <point x="116" y="625" type="line"/>
      <point x="103" y="491" type="line"/>
      <point x="27" y="486" type="line"/>
      <point x="27" y="400" type="line"/>
      <point x="97" y="400" type="line"/>
      <point x="97" y="166" type="line" smooth="yes"/>
      <point x="97" y="60"/>
      <point x="138" y="-12"/>
    </contour>
    <contour>
      <point x="362" y="-206" type="curve" smooth="yes"/>
      <point x="473" y="-206"/>
      <point x="514" y="-129"/>
      <point x="514" y="-25" type="curve" smooth="yes"/>
      <point x="514" y="540" type="line" smooth="yes"/>
      <point x="514" y="597"/>
      <point x="527" y="628"/>
      <point x="574" y="628" type="curve" smooth="yes"/>
      <point x="586" y="628"/>
      <point x="596" y="624"/>
      <point x="606" y="620" type="curve"/>
      <point x="628" y="706" type="line"/>
      <point x="611" y="713"/>
      <point x="590" y="719"/>
      <point x="560" y="719" type="curve" smooth="yes"/>
      <point x="441" y="719"/>
      <point x="398" y="642"/>
      <point x="398" y="543" type="curve" smooth="yes"/>
      <point x="398" y="-27" type="line"/>
      <point x="398" y="-84"/>
      <point x="387" y="-115"/>
      <point x="348" y="-115" type="curve" smooth="yes"/>
      <point x="333" y="-115"/>
      <point x="319" y="-111"/>
      <point x="306" y="-107" type="curve"/>
      <point x="284" y="-193" type="line"/>
      <point x="302" y="-200"/>
      <point x="327" y="-206"/>
    </contour>
    <contour>
      <point x="279" y="730" type="move" name="aboveUC"/>
    </contour>
    <contour>
      <point x="331" y="-212" type="move" name="belowLC"/>
    </contour>
  </outline>
</glyph>
<glyph name="verticallinemod" format="1">
	<unicode hex="02C8"/>
	<advance width="600"/>
	<outline>
		<contour>
			<point x="263" y="387" type="line"/>
			<point x="337" y="387" type="line"/>
			<point x="364" y="728" type="line"/>
			<point x="236" y="728" type="line"/>
		</contour>
	</outline>
</glyph>
<glyph name="colontriangularhalfmod" format="1">
  <advance width="600"/>
  <unicode hex="02D1"/>
  <outline>
    <contour>
      <point x="294" y="329" type="line"/>
      <point x="306" y="329" type="line"/>
      <point x="417" y="519" type="line"/>
      <point x="183" y="519" type="line"/>
    </contour>
  </outline>
</glyph>
<glyph name="tildecmb" format="1">
  <advance width="600"/>
  <unicode hex="0303"/>
  <outline>
    <contour>
      <point x="369" y="575" type="curve" smooth="yes"/>
      <point x="442" y="575"/>
      <point x="479" y="629"/>
      <point x="482" y="719" type="curve"/>
      <point x="408" y="723" type="line"/>
      <point x="404" y="681"/>
      <point x="392" y="656"/>
      <point x="368" y="656" type="curve" smooth="yes"/>
      <point x="328" y="656"/>
      <point x="298" y="730"/>
      <point x="231" y="730" type="curve" smooth="yes"/>
      <point x="158" y="730"/>
      <point x="121" y="677"/>
      <point x="118" y="586" type="curve"/>
      <point x="192" y="582" type="line"/>
      <point x="196" y="625"/>
      <point x="208" y="649"/>
      <point x="233" y="649" type="curve" smooth="yes"/>
      <point x="272" y="649"/>
      <point x="302" y="575"/>
    </contour>
    <contour>
      <point x="300" y="512" type="move" name="_aboveLC"/>
    </contour>
    <contour>
      <point x="300" y="644" type="move" name="aboveLC"/>
    </contour>
  </outline>
</glyph>
<glyph name="brevecmb" format="1">
  <advance width="600"/>
  <unicode hex="0306"/>
  <outline>
    <contour>
      <point x="300" y="571" type="curve" smooth="yes"/>
      <point x="411" y="571"/>
      <point x="458" y="644"/>
      <point x="463" y="726" type="curve"/>
      <point x="395" y="737" type="line"/>
      <point x="388" y="690"/>
      <point x="359" y="645"/>
      <point x="300" y="645" type="curve" smooth="yes"/>
      <point x="241" y="645"/>
      <point x="212" y="690"/>
      <point x="205" y="737" type="curve"/>
      <point x="137" y="726" type="line"/>
      <point x="142" y="644"/>
      <point x="189" y="571"/>
    </contour>
    <contour>
      <point x="300" y="512" type="move" name="_aboveLC"/>
    </contour>
    <contour>
      <point x="300" y="644" type="move" name="aboveLC"/>
    </contour>
  </outline>
</glyph>
<glyph name="dieresiscmb" format="1">
	<unicode hex="0308"/>
	<advance width="600"/>
	<outline>
		<contour>
			<point x="196" y="579" type="curve" smooth="yes"/>
			<point x="236" y="579"/>
			<point x="264" y="609"/>
			<point x="264" y="648" type="curve" smooth="yes"/>
			<point x="264" y="686"/>
			<point x="236" y="716"/>
			<point x="196" y="716" type="curve" smooth="yes"/>
			<point x="156" y="716"/>
			<point x="128" y="686"/>
			<point x="128" y="648" type="curve" smooth="yes"/>
			<point x="128" y="609"/>
			<point x="156" y="579"/>
		</contour>
		<contour>
			<point x="404" y="579" type="curve" smooth="yes"/>
			<point x="444" y="579"/>
			<point x="472" y="609"/>
			<point x="472" y="648" type="curve" smooth="yes"/>
			<point x="472" y="686"/>
			<point x="444" y="716"/>
			<point x="404" y="716" type="curve" smooth="yes"/>
			<point x="364" y="716"/>
			<point x="336" y="686"/>
			<point x="336" y="648" type="curve" smooth="yes"/>
			<point x="336" y="609"/>
			<point x="364" y="579"/>
		</contour>
		<contour>
			<point name="_aboveLC" x="300" y="512" type="move"/>
		</contour>
		<contour>
			<point name="aboveLC" x="300" y="582" type="move"/>
		</contour>
	</outline>
</glyph>
<glyph name="ringcmb" format="1">
  <advance width="600"/>
  <unicode hex="030A"/>
  <outline>
    <contour>
      <point x="300" y="569" type="curve" smooth="yes"/>
      <point x="378" y="569"/>
      <point x="421" y="613"/>
      <point x="421" y="668" type="curve" smooth="yes"/>
      <point x="421" y="724"/>
      <point x="378" y="768"/>
      <point x="300" y="768" type="curve" smooth="yes"/>
      <point x="222" y="768"/>
      <point x="179" y="724"/>
      <point x="179" y="668" type="curve" smooth="yes"/>
      <point x="179" y="613"/>
      <point x="222" y="569"/>
    </contour>
    <contour>
      <point x="300" y="615" type="curve" smooth="yes"/>
      <point x="272" y="615"/>
      <point x="250" y="638"/>
      <point x="250" y="668" type="curve" smooth="yes"/>
      <point x="250" y="699"/>
      <point x="272" y="722"/>
      <point x="300" y="722" type="curve" smooth="yes"/>
      <point x="328" y="722"/>
      <point x="350" y="699"/>
      <point x="350" y="668" type="curve" smooth="yes"/>
      <point x="350" y="638"/>
      <point x="328" y="615"/>
    </contour>
    <contour>
      <point x="300" y="512" type="move" name="_aboveLC"/>
    </contour>
    <contour>
      <point x="300" y="656" type="move" name="aboveLC"/>
    </contour>
  </outline>
</glyph>
<glyph name="caroncmb" format="1">
  <advance width="600"/>
  <unicode hex="030C"/>
  <outline>
    <contour>
      <point x="242" y="576" type="line"/>
      <point x="358" y="576" type="line"/>
      <point x="469" y="711" type="line"/>
      <point x="424" y="753" type="line"/>
      <point x="302" y="651" type="line"/>
      <point x="298" y="651" type="line"/>
      <point x="176" y="753" type="line"/>
      <point x="131" y="711" type="line"/>
    </contour>
    <contour>
      <point x="300" y="512" type="move" name="_aboveLC"/>
    </contour>
  </outline>
</glyph>
<glyph name="candrabinducmb" format="1">
  <advance width="600"/>
  <unicode hex="0310"/>
  <outline>
    <contour>
      <point x="300" y="571" type="curve" smooth="yes"/>
      <point x="414" y="571"/>
      <point x="466" y="644"/>
      <point x="471" y="726" type="curve"/>
      <point x="409" y="737" type="line"/>
      <point x="402" y="686"/>
      <point x="364" y="639"/>
      <point x="300" y="639" type="curve" smooth="yes"/>
      <point x="235" y="639"/>
      <point x="198" y="686"/>
      <point x="191" y="737" type="curve"/>
      <point x="129" y="726" type="line"/>
      <point x="134" y="644"/>
      <point x="186" y="571"/>
    </contour>
    <contour>
      <point x="300" y="701" type="curve" smooth="yes"/>
      <point x="338" y="701"/>
      <point x="366" y="727"/>
      <point x="366" y="766" type="curve" smooth="yes"/>
      <point x="366" y="805"/>
      <point x="338" y="832"/>
      <point x="300" y="832" type="curve" smooth="yes"/>
      <point x="262" y="832"/>
      <point x="234" y="805"/>
      <point x="234" y="766" type="curve" smooth="yes"/>
      <point x="234" y="727"/>
      <point x="262" y="701"/>
    </contour>
    <contour>
      <point x="300" y="512" type="move" name="_aboveLC"/>
    </contour>
  </outline>
</glyph>
<glyph name="breveinvertedcmb" format="1">
  <advance width="600"/>
  <unicode hex="0311"/>
  <outline>
    <contour>
      <point x="205" y="566" type="line"/>
      <point x="212" y="614"/>
      <point x="241" y="658"/>
      <point x="300" y="658" type="curve" smooth="yes"/>
      <point x="359" y="658"/>
      <point x="388" y="614"/>
      <point x="395" y="566" type="curve"/>
      <point x="463" y="578" type="line"/>
      <point x="458" y="659"/>
      <point x="411" y="732"/>
      <point x="300" y="732" type="curve" smooth="yes"/>
      <point x="189" y="732"/>
      <point x="142" y="659"/>
      <point x="137" y="578" type="curve"/>
    </contour>
    <contour>
      <point x="300" y="512" type="move" name="_aboveLC"/>
    </contour>
  </outline>
</glyph>
<glyph name="minusbelowcmb" format="1">
  <advance width="600"/>
  <unicode hex="0320"/>
  <outline>
    <contour>
      <point x="178" y="-152" type="line"/>
      <point x="422" y="-152" type="line"/>
      <point x="422" y="-93" type="line"/>
      <point x="178" y="-93" type="line"/>
    </contour>
    <contour>
      <point x="300" y="-20" type="move" name="_belowLC"/>
    </contour>
  </outline>
</glyph>
<glyph name="commabelowcmb" format="1">
  <advance width="600"/>
  <unicode hex="0326"/>
  <outline>
    <contour>
      <point x="206" y="-233" type="line"/>
      <point x="321" y="-228"/>
      <point x="387" y="-198"/>
      <point x="387" y="-135" type="curve" smooth="yes"/>
      <point x="387" y="-88"/>
      <point x="355" y="-64"/>
      <point x="258" y="-55" type="curve"/>
      <point x="234" y="-101" type="line"/>
      <point x="280" y="-105"/>
      <point x="302" y="-117"/>
      <point x="302" y="-140" type="curve" smooth="yes"/>
      <point x="302" y="-165"/>
      <point x="277" y="-178"/>
      <point x="196" y="-183" type="curve"/>
    </contour>
    <contour>
      <point x="300" y="-20" type="move" name="_belowLC"/>
    </contour>
  </outline>
</glyph>
<glyph name="verticallinebelowcmb" format="1">
	<unicode hex="0329"/>
	<advance width="600"/>
	<outline>
		<contour>
			<point x="253" y="-268" type="line"/>
			<point x="347" y="-268" type="line"/>
			<point x="341" y="-68" type="line"/>
			<point x="259" y="-68" type="line"/>
		</contour>
		<contour>
			<point name="_belowLC" x="300" y="-20" type="move"/>
		</contour>
	</outline>
</glyph>
<glyph name="bridgeinvertedbelowcmb" format="1">
	<unicode hex="033A"/>
	<advance width="600"/>
	<outline>
		<contour>
			<point x="173" y="-220" type="line"/>
			<point x="427" y="-220" type="line"/>
			<point x="427" y="-77" type="line"/>
			<point x="365" y="-77" type="line"/>
			<point x="365" y="-160" type="line"/>
			<point x="235" y="-160" type="line"/>
			<point x="235" y="-77" type="line"/>
			<point x="173" y="-77" type="line"/>
		</contour>
		<contour>
			<point name="_belowLC" x="300" y="-20" type="move"/>
		</contour>
	</outline>
</glyph>
<glyph name="seagullbelowcmb" format="1">
  <advance width="600"/>
  <unicode hex="033C"/>
  <outline>
    <contour>
      <point x="187" y="-240" type="line"/>
      <point x="187" y="-168"/>
      <point x="202" y="-151"/>
      <point x="229" y="-151" type="curve" smooth="yes"/>
      <point x="258" y="-151"/>
      <point x="270" y="-176"/>
      <point x="270" y="-218" type="curve" smooth="yes"/>
      <point x="270" y="-238" type="line"/>
      <point x="330" y="-238" type="line"/>
      <point x="330" y="-218" type="line" smooth="yes"/>
      <point x="330" y="-176"/>
      <point x="342" y="-151"/>
      <point x="370" y="-151" type="curve" smooth="yes"/>
      <point x="398" y="-151"/>
      <point x="413" y="-168"/>
      <point x="413" y="-240" type="curve"/>
      <point x="481" y="-232" type="line"/>
      <point x="482" y="-126"/>
      <point x="447" y="-78"/>
      <point x="375" y="-78" type="curve" smooth="yes"/>
      <point x="341" y="-78"/>
      <point x="313" y="-95"/>
      <point x="302" y="-134" type="curve"/>
      <point x="298" y="-134" type="line"/>
      <point x="287" y="-95"/>
      <point x="260" y="-78"/>
      <point x="225" y="-78" type="curve" smooth="yes"/>
      <point x="154" y="-78"/>
      <point x="118" y="-126"/>
      <point x="119" y="-232" type="curve"/>
    </contour>
    <contour>
      <point x="300" y="-20" type="move" name="_belowLC"/>
    </contour>
  </outline>
</glyph>
<glyph name="Alphatonos" format="1">
  <advance width="600"/>
  <unicode hex="0386"/>
  <outline>
    <contour>
      <point x="56" y="0" type="line"/>
      <point x="174" y="0" type="line"/>
      <point x="264" y="348" type="line" smooth="yes"/>
      <point x="282" y="417"/>
      <point x="296" y="474"/>
      <point x="314" y="552" type="curve"/>
      <point x="318" y="552" type="line"/>
      <point x="336" y="474"/>
      <point x="351" y="417"/>
      <point x="369" y="348" type="curve" smooth="yes"/>
      <point x="457" y="0" type="line"/>
      <point x="580" y="0" type="line"/>
      <point x="386" y="654" type="line"/>
      <point x="250" y="654" type="line"/>
    </contour>
    <contour>
      <point x="181" y="177" type="line"/>
      <point x="452" y="177" type="line"/>
      <point x="452" y="268" type="line"/>
      <point x="181" y="268" type="line"/>
    </contour>
    <component base="tonos.cap" xOffset="-206"/>
  </outline>
</glyph>
<glyph name="Epsilontonos" format="1">
  <advance width="600"/>
  <unicode hex="0388"/>
  <outline>
    <contour>
      <point x="205" y="0" type="line"/>
      <point x="532" y="0" type="line"/>
      <point x="532" y="98" type="line"/>
      <point x="309" y="98" type="line"/>
      <point x="309" y="291" type="line"/>
      <point x="476" y="291" type="line"/>
      <point x="476" y="389" type="line"/>
      <point x="309" y="389" type="line"/>
      <point x="309" y="556" type="line"/>
      <point x="522" y="556" type="line"/>
      <point x="522" y="654" type="line"/>
      <point x="205" y="654" type="line"/>
    </contour>
    <component base="tonos.cap" xOffset="-214"/>
  </outline>
</glyph>
<glyph name="Etatonos" format="1">
  <advance width="600"/>
  <unicode hex="0389"/>
  <outline>
    <contour>
      <point x="196" y="0" type="line"/>
      <point x="300" y="0" type="line"/>
      <point x="300" y="290" type="line"/>
      <point x="436" y="290" type="line"/>
      <point x="436" y="0" type="line"/>
      <point x="540" y="0" type="line"/>
      <point x="540" y="654" type="line"/>
      <point x="436" y="654" type="line"/>
      <point x="436" y="391" type="line"/>
      <point x="300" y="391" type="line"/>
      <point x="300" y="654" type="line"/>
      <point x="196" y="654" type="line"/>
    </contour>
    <component base="tonos.cap" xOffset="-214"/>
  </outline>
</glyph>
<glyph name="Iotatonos" format="1">
  <advance width="600"/>
  <unicode hex="038A"/>
  <outline>
    <contour>
      <point x="192" y="0" type="line"/>
      <point x="516" y="0" type="line"/>
      <point x="516" y="98" type="line"/>
      <point x="412" y="98" type="line"/>
      <point x="412" y="556" type="line"/>
      <point x="516" y="556" type="line"/>
      <point x="516" y="654" type="line"/>
      <point x="192" y="654" type="line"/>
      <point x="192" y="556" type="line"/>
      <point x="296" y="556" type="line"/>
      <point x="296" y="98" type="line"/>
      <point x="192" y="98" type="line"/>
    </contour>
    <component base="tonos.cap" xOffset="-214"/>
  </outline>
</glyph>
<glyph name="Omicrontonos" format="1">
  <advance width="600"/>
  <unicode hex="038C"/>
  <outline>
    <contour>
      <point x="351" y="-12" type="curve" smooth="yes"/>
      <point x="473" y="-12"/>
      <point x="557" y="108"/>
      <point x="557" y="330" type="curve" smooth="yes"/>
      <point x="557" y="551"/>
      <point x="473" y="666"/>
      <point x="351" y="666" type="curve" smooth="yes"/>
      <point x="230" y="666"/>
      <point x="145" y="551"/>
      <point x="145" y="330" type="curve" smooth="yes"/>
      <point x="145" y="114"/>
      <point x="230" y="-12"/>
    </contour>
    <contour>
      <point x="351" y="89" type="curve" smooth="yes"/>
      <point x="294" y="89"/>
      <point x="256" y="161"/>
      <point x="256" y="330" type="curve" smooth="yes"/>
      <point x="256" y="498"/>
      <point x="294" y="565"/>
      <point x="351" y="565" type="curve" smooth="yes"/>
      <point x="409" y="565"/>
      <point x="446" y="498"/>
      <point x="446" y="330" type="curve" smooth="yes"/>
      <point x="446" y="161"/>
      <point x="409" y="89"/>
    </contour>
    <component base="tonos.cap" xOffset="-214"/>
  </outline>
</glyph>
<glyph name="Upsilontonos" format="1">
  <advance width="600"/>
  <unicode hex="038E"/>
  <outline>
    <contour>
      <point x="352" y="0" type="line"/>
      <point x="456" y="0" type="line"/>
      <point x="456" y="227" type="line"/>
      <point x="613" y="654" type="line"/>
      <point x="511" y="654" type="line"/>
      <point x="453" y="478" type="line" smooth="yes"/>
      <point x="438" y="426"/>
      <point x="422" y="378"/>
      <point x="407" y="327" type="curve"/>
      <point x="403" y="327" type="line"/>
      <point x="388" y="378"/>
      <point x="373" y="424"/>
      <point x="357" y="478" type="curve" smooth="yes"/>
      <point x="301" y="654" type="line"/>
      <point x="195" y="654" type="line"/>
      <point x="352" y="227" type="line"/>
    </contour>
    <component base="tonos.cap" xOffset="-200"/>
  </outline>
</glyph>
<glyph name="Omegatonos" format="1">
  <advance width="600"/>
  <unicode hex="038F"/>
  <outline>
    <contour>
      <point x="127" y="0" type="line"/>
      <point x="318" y="0" type="line"/>
      <point x="318" y="84" type="line"/>
      <point x="274" y="164"/>
      <point x="251" y="235"/>
      <point x="251" y="348" type="curve" smooth="yes"/>
      <point x="251" y="486"/>
      <point x="288" y="565"/>
      <point x="350" y="565" type="curve" smooth="yes"/>
      <point x="414" y="565"/>
      <point x="450" y="486"/>
      <point x="450" y="348" type="curve" smooth="yes"/>
      <point x="450" y="235"/>
      <point x="427" y="164"/>
      <point x="383" y="84" type="curve"/>
      <point x="383" y="0" type="line"/>
      <point x="574" y="0" type="line"/>
      <point x="574" y="94" type="line"/>
      <point x="476" y="94" type="line"/>
      <point x="476" y="98" type="line"/>
      <point x="524" y="167"/>
      <point x="559" y="252"/>
      <point x="559" y="370" type="curve" smooth="yes"/>
      <point x="559" y="543"/>
      <point x="477" y="666"/>
      <point x="350" y="666" type="curve" smooth="yes"/>
      <point x="223" y="666"/>
      <point x="142" y="543"/>
      <point x="142" y="370" type="curve" smooth="yes"/>
      <point x="142" y="252"/>
      <point x="176" y="167"/>
      <point x="224" y="98" type="curve"/>
      <point x="224" y="94" type="line"/>
      <point x="127" y="94" type="line"/>
    </contour>
    <component base="tonos.cap" xOffset="-214"/>
  </outline>
</glyph>
<glyph name="Gamma" format="1">
  <advance width="600"/>
  <unicode hex="0393"/>
  <outline>
    <contour>
      <point x="125" y="0" type="line"/>
      <point x="241" y="0" type="line"/>
      <point x="241" y="556" type="line"/>
      <point x="530" y="556" type="line"/>
      <point x="530" y="654" type="line"/>
      <point x="125" y="654" type="line"/>
    </contour>
  </outline>
</glyph>
<glyph name="Delta" format="1">
  <advance width="600"/>
  <unicode hex="0394"/>
  <outline>
    <contour>
      <point x="37" y="0" type="line"/>
      <point x="563" y="0" type="line"/>
      <point x="563" y="70" type="line"/>
      <point x="368" y="654" type="line"/>
      <point x="232" y="654" type="line"/>
      <point x="37" y="70" type="line"/>
    </contour>
    <contour>
      <point x="162" y="98" type="line"/>
      <point x="240" y="357" type="line"/>
      <point x="296" y="560" type="line"/>
      <point x="300" y="560" type="line"/>
      <point x="356" y="357" type="line"/>
      <point x="436" y="98" type="line"/>
    </contour>
  </outline>
</glyph>
<glyph name="Lambda" format="1">
	<unicode hex="039B"/>
	<advance width="600"/>
	<outline>
		<contour>
			<point x="28" y="0" type="line"/>
			<point x="147" y="0" type="line"/>
			<point x="238" y="329" type="line"/>
			<point x="258" y="403"/>
			<point x="273" y="467"/>
			<point x="295" y="542" type="curve"/>
			<point x="299" y="542" type="line"/>
			<point x="321" y="467"/>
			<point x="336" y="403"/>
			<point x="357" y="329" type="curve"/>
			<point x="449" y="0" type="line"/>
			<point x="572" y="0" type="line"/>
			<point x="368" y="654" type="line"/>
			<point x="231" y="654" type="line"/>
		</contour>
	</outline>
</glyph>
<glyph name="Phi" format="1">
  <advance width="600"/>
  <unicode hex="03A6"/>
  <outline>
    <contour>
      <point x="280" y="63" type="curve"/>
      <point x="320" y="63" type="line" smooth="yes"/>
      <point x="475" y="63"/>
      <point x="579" y="161"/>
      <point x="579" y="331" type="curve" smooth="yes"/>
      <point x="579" y="498"/>
      <point x="475" y="592"/>
      <point x="320" y="592" type="curve" smooth="yes"/>
      <point x="280" y="592" type="line" smooth="yes"/>
      <point x="125" y="592"/>
      <point x="21" y="498"/>
      <point x="21" y="331" type="curve" smooth="yes"/>
      <point x="21" y="161"/>
      <point x="125" y="63"/>
    </contour>
    <contour>
      <point x="274" y="151" type="line" smooth="yes"/>
      <point x="184" y="151"/>
      <point x="127" y="222"/>
      <point x="127" y="331" type="curve" smooth="yes"/>
      <point x="127" y="437"/>
      <point x="184" y="504"/>
      <point x="274" y="504" type="curve" smooth="yes"/>
      <point x="326" y="504" type="line" smooth="yes"/>
      <point x="416" y="504"/>
      <point x="473" y="437"/>
      <point x="473" y="331" type="curve" smooth="yes"/>
      <point x="473" y="222"/>
      <point x="416" y="151"/>
      <point x="326" y="151" type="curve" smooth="yes"/>
    </contour>
    <contour>
      <point x="252" y="-22" type="line"/>
      <point x="348" y="-22" type="line"/>
      <point x="348" y="676" type="line"/>
      <point x="252" y="676" type="line"/>
    </contour>
  </outline>
</glyph>
<glyph name="Psi" format="1">
  <advance width="600"/>
  <unicode hex="03A8"/>
  <outline>
    <contour>
      <point x="277" y="230" type="curve"/>
      <point x="323" y="230" type="line" smooth="yes"/>
      <point x="475" y="230"/>
      <point x="567" y="305"/>
      <point x="567" y="466" type="curve" smooth="yes"/>
      <point x="567" y="654" type="line"/>
      <point x="460" y="654" type="line"/>
      <point x="460" y="472" type="line" smooth="yes"/>
      <point x="460" y="370"/>
      <point x="415" y="321"/>
      <point x="329" y="321" type="curve" smooth="yes"/>
      <point x="271" y="321" type="line" smooth="yes"/>
      <point x="185" y="321"/>
      <point x="140" y="370"/>
      <point x="140" y="472" type="curve" smooth="yes"/>
      <point x="140" y="654" type="line"/>
      <point x="33" y="654" type="line"/>
      <point x="33" y="466" type="line" smooth="yes"/>
      <point x="33" y="305"/>
      <point x="125" y="230"/>
    </contour>
    <contour>
      <point x="252" y="0" type="line"/>
      <point x="348" y="0" type="line"/>
      <point x="348" y="654" type="line"/>
      <point x="252" y="654" type="line"/>
    </contour>
  </outline>
</glyph>
<glyph name="alpha" format="1">
  <advance width="600"/>
  <unicode hex="03B1"/>
  <outline>
    <contour>
      <point x="246" y="-12" type="curve" smooth="yes"/>
      <point x="306" y="-12"/>
      <point x="353" y="17"/>
      <point x="392" y="78" type="curve"/>
      <point x="395" y="78" type="line"/>
      <point x="404" y="14"/>
      <point x="444" y="-12"/>
      <point x="507" y="-12" type="curve" smooth="yes"/>
      <point x="542" y="-12"/>
      <point x="566" y="-5"/>
      <point x="582" y="3" type="curve"/>
      <point x="568" y="89" type="line"/>
      <point x="557" y="85"/>
      <point x="545" y="82"/>
      <point x="534" y="82" type="curve" smooth="yes"/>
      <point x="507" y="82"/>
      <point x="486" y="97"/>
      <point x="486" y="130" type="curve" smooth="yes"/>
      <point x="486" y="212"/>
      <point x="523" y="370"/>
      <point x="549" y="491" type="curve"/>
      <point x="435" y="491" type="line"/>
      <point x="417" y="390" type="line"/>
      <point x="414" y="390" type="line"/>
      <point x="383" y="474"/>
      <point x="324" y="503"/>
      <point x="262" y="503" type="curve" smooth="yes"/>
      <point x="152" y="503"/>
      <point x="50" y="406"/>
      <point x="50" y="240" type="curve" smooth="yes"/>
      <point x="50" y="80"/>
      <point x="128" y="-12"/>
    </contour>
    <contour>
      <point x="272" y="83" type="curve" smooth="yes"/>
      <point x="207" y="83"/>
      <point x="168" y="137"/>
      <point x="168" y="241" type="curve" smooth="yes"/>
      <point x="168" y="354"/>
      <point x="226" y="408"/>
      <point x="284" y="408" type="curve" smooth="yes"/>
      <point x="321" y="408"/>
      <point x="368" y="382"/>
      <point x="392" y="300" type="curve"/>
      <point x="385" y="212" type="line" smooth="yes"/>
      <point x="379" y="141"/>
      <point x="326" y="83"/>
    </contour>
    <contour>
      <point x="318" y="512" type="move" name="aboveLC"/>
    </contour>
    <contour>
      <point x="306" y="-20" type="move" name="belowLC"/>
    </contour>
  </outline>
</glyph>
<glyph name="beta" format="1">
  <advance width="600"/>
  <unicode hex="03B2"/>
  <outline>
    <contour>
      <point x="82" y="-178" type="line"/>
      <point x="199" y="-178" type="line"/>
      <point x="196" y="-99"/>
      <point x="194" y="-22"/>
      <point x="191" y="58" type="curve"/>
      <point x="240" y="5"/>
      <point x="298" y="-12"/>
      <point x="354" y="-12" type="curve" smooth="yes"/>
      <point x="453" y="-12"/>
      <point x="551" y="58"/>
      <point x="551" y="196" type="curve" smooth="yes"/>
      <point x="551" y="294"/>
      <point x="488" y="364"/>
      <point x="400" y="379" type="curve"/>
      <point x="400" y="383" type="line"/>
      <point x="463" y="420"/>
      <point x="496" y="472"/>
      <point x="496" y="541" type="curve" smooth="yes"/>
      <point x="496" y="662"/>
      <point x="397" y="718"/>
      <point x="293" y="718" type="curve" smooth="yes"/>
      <point x="149" y="718"/>
      <point x="82" y="617"/>
      <point x="82" y="484" type="curve" smooth="yes"/>
    </contour>
    <contour>
      <point x="323" y="83" type="curve" smooth="yes"/>
      <point x="280" y="83"/>
      <point x="233" y="97"/>
      <point x="190" y="151" type="curve"/>
      <point x="190" y="258"/>
      <point x="192" y="362"/>
      <point x="194" y="468" type="curve" smooth="yes"/>
      <point x="196" y="572"/>
      <point x="232" y="627"/>
      <point x="294" y="627" type="curve" smooth="yes"/>
      <point x="342" y="627"/>
      <point x="384" y="595"/>
      <point x="384" y="531" type="curve" smooth="yes"/>
      <point x="384" y="471"/>
      <point x="353" y="414"/>
      <point x="265" y="398" type="curve"/>
      <point x="280" y="312" type="line"/>
      <point x="294" y="316"/>
      <point x="309" y="318"/>
      <point x="325" y="318" type="curve" smooth="yes"/>
      <point x="400" y="318"/>
      <point x="438" y="268"/>
      <point x="438" y="204" type="curve" smooth="yes"/>
      <point x="438" y="125"/>
      <point x="386" y="83"/>
    </contour>
  </outline>
</glyph>
<glyph name="gamma" format="1">
  <advance width="600"/>
  <unicode hex="03B3"/>
  <outline>
    <contour>
      <point x="236" y="-178" type="curve"/>
      <point x="355" y="-178" type="line"/>
      <point x="355" y="-122"/>
      <point x="353" y="-51"/>
      <point x="343" y="9" type="curve"/>
      <point x="474" y="210"/>
      <point x="518" y="324"/>
      <point x="550" y="491" type="curve"/>
      <point x="435" y="491" type="line"/>
      <point x="422" y="364"/>
      <point x="378" y="248"/>
      <point x="315" y="132" type="curve"/>
      <point x="311" y="132" type="line"/>
      <point x="275" y="280"/>
      <point x="209" y="426"/>
      <point x="151" y="503" type="curve"/>
      <point x="34" y="477" type="line"/>
      <point x="144" y="333"/>
      <point x="242" y="90"/>
      <point x="242" y="-49" type="curve" smooth="yes"/>
      <point x="242" y="-110"/>
      <point x="240" y="-135"/>
    </contour>
  </outline>
</glyph>
<glyph name="delta" format="1">
  <advance width="600"/>
  <unicode hex="03B4"/>
  <outline>
    <contour>
      <point x="299" y="-12" type="curve" smooth="yes"/>
      <point x="451" y="-12"/>
      <point x="541" y="82"/>
      <point x="541" y="221" type="curve" smooth="yes"/>
      <point x="541" y="333"/>
      <point x="477" y="394"/>
      <point x="377" y="456" type="curve" smooth="yes"/>
      <point x="285" y="514"/>
      <point x="220" y="550"/>
      <point x="220" y="593" type="curve" smooth="yes"/>
      <point x="220" y="614"/>
      <point x="240" y="632"/>
      <point x="286" y="632" type="curve" smooth="yes"/>
      <point x="342" y="632"/>
      <point x="412" y="617"/>
      <point x="500" y="588" type="curve"/>
      <point x="526" y="675" type="line"/>
      <point x="442" y="703"/>
      <point x="361" y="718"/>
      <point x="287" y="718" type="curve" smooth="yes"/>
      <point x="165" y="718"/>
      <point x="109" y="664"/>
      <point x="109" y="603" type="curve" smooth="yes"/>
      <point x="109" y="511"/>
      <point x="195" y="457"/>
      <point x="281" y="403" type="curve" smooth="yes"/>
      <point x="359" y="354"/>
      <point x="429" y="306"/>
      <point x="429" y="221" type="curve" smooth="yes"/>
      <point x="429" y="132"/>
      <point x="382" y="82"/>
      <point x="301" y="82" type="curve" smooth="yes"/>
      <point x="231" y="82"/>
      <point x="169" y="131"/>
      <point x="169" y="214" type="curve" smooth="yes"/>
      <point x="169" y="303"/>
      <point x="229" y="359"/>
      <point x="327" y="380" type="curve"/>
      <point x="273" y="444" type="line"/>
      <point x="161" y="411"/>
      <point x="59" y="337"/>
      <point x="59" y="212" type="curve" smooth="yes"/>
      <point x="59" y="72"/>
      <point x="172" y="-12"/>
    </contour>
  </outline>
</glyph>
<glyph name="epsilon" format="1">
  <advance width="600"/>
  <unicode hex="03B5"/>
  <outline>
    <contour>
      <point x="326" y="-12" type="curve" smooth="yes"/>
      <point x="404" y="-12"/>
      <point x="467" y="2"/>
      <point x="540" y="56" type="curve"/>
      <point x="494" y="130" type="line"/>
      <point x="439" y="88"/>
      <point x="387" y="77"/>
      <point x="337" y="77" type="curve" smooth="yes"/>
      <point x="238" y="77"/>
      <point x="194" y="104"/>
      <point x="194" y="149" type="curve" smooth="yes"/>
      <point x="194" y="193"/>
      <point x="236" y="214"/>
      <point x="322" y="214" type="curve" smooth="yes"/>
      <point x="347" y="214"/>
      <point x="374" y="213"/>
      <point x="402" y="211" type="curve"/>
      <point x="402" y="296" type="line"/>
      <point x="378" y="294"/>
      <point x="357" y="292"/>
      <point x="337" y="292" type="curve" smooth="yes"/>
      <point x="255" y="292"/>
      <point x="217" y="315"/>
      <point x="217" y="352" type="curve" smooth="yes"/>
      <point x="217" y="391"/>
      <point x="256" y="414"/>
      <point x="334" y="414" type="curve" smooth="yes"/>
      <point x="387" y="414"/>
      <point x="437" y="400"/>
      <point x="484" y="367" type="curve"/>
      <point x="527" y="442" type="line"/>
      <point x="470" y="482"/>
      <point x="400" y="503"/>
      <point x="329" y="503" type="curve" smooth="yes"/>
      <point x="198" y="503"/>
      <point x="103" y="461"/>
      <point x="103" y="367" type="curve" smooth="yes"/>
      <point x="103" y="324"/>
      <point x="134" y="281"/>
      <point x="193" y="261" type="curve"/>
      <point x="193" y="257" type="line"/>
      <point x="128" y="239"/>
      <point x="81" y="206"/>
      <point x="81" y="138" type="curve" smooth="yes"/>
      <point x="81" y="41"/>
      <point x="177" y="-12"/>
    </contour>
  </outline>
</glyph>
<glyph name="zeta" format="1">
  <advance width="600"/>
  <unicode hex="03B6"/>
  <outline>
    <contour>
      <point x="470" y="-186" type="line"/>
      <point x="512" y="-126"/>
      <point x="529" y="-68"/>
      <point x="529" y="-36" type="curve" smooth="yes"/>
      <point x="529" y="35"/>
      <point x="481" y="61"/>
      <point x="371" y="83" type="curve" smooth="yes"/>
      <point x="267" y="103"/>
      <point x="219" y="134"/>
      <point x="219" y="231" type="curve" smooth="yes"/>
      <point x="219" y="357"/>
      <point x="356" y="528"/>
      <point x="520" y="615" type="curve"/>
      <point x="525" y="615" type="line"/>
      <point x="525" y="706" type="line"/>
      <point x="132" y="706" type="line"/>
      <point x="132" y="615" type="line"/>
      <point x="205" y="620"/>
      <point x="337" y="620"/>
      <point x="395" y="622" type="curve"/>
      <point x="232" y="518"/>
      <point x="100" y="368"/>
      <point x="100" y="225" type="curve" smooth="yes"/>
      <point x="100" y="63"/>
      <point x="199" y="14"/>
      <point x="304" y="-8" type="curve" smooth="yes"/>
      <point x="401" y="-28"/>
      <point x="427" y="-37"/>
      <point x="427" y="-66" type="curve" smooth="yes"/>
      <point x="427" y="-92"/>
      <point x="411" y="-112"/>
      <point x="380" y="-153" type="curve"/>
    </contour>
  </outline>
</glyph>
<glyph name="eta" format="1">
  <advance width="600"/>
  <unicode hex="03B7"/>
  <outline>
    <contour>
      <point x="406" y="-178" type="curve"/>
      <point x="523" y="-178" type="line"/>
      <point x="523" y="308" type="line" smooth="yes"/>
      <point x="523" y="432"/>
      <point x="481" y="503"/>
      <point x="372" y="503" type="curve" smooth="yes"/>
      <point x="295" y="503"/>
      <point x="244" y="467"/>
      <point x="194" y="402" type="curve"/>
      <point x="191" y="402" type="line"/>
      <point x="182" y="491" type="line"/>
      <point x="79" y="491" type="line"/>
      <point x="86" y="438"/>
      <point x="88" y="387"/>
      <point x="88" y="348" type="curve" smooth="yes"/>
      <point x="88" y="0" type="line"/>
      <point x="203" y="0" type="line"/>
      <point x="203" y="318" type="line"/>
      <point x="250" y="383"/>
      <point x="285" y="404"/>
      <point x="334" y="404" type="curve" smooth="yes"/>
      <point x="392" y="404"/>
      <point x="414" y="374"/>
      <point x="414" y="293" type="curve" smooth="yes"/>
      <point x="414" y="166"/>
      <point x="411" y="-21"/>
    </contour>
    <contour>
      <point x="324" y="512" type="move" name="aboveLC"/>
    </contour>
    <contour>
      <point x="138" y="-20" type="move" name="belowLC"/>
    </contour>
  </outline>
</glyph>
<glyph name="iota" format="1">
  <advance width="600"/>
  <unicode hex="03B9"/>
  <outline>
    <contour>
      <point x="396" y="-12" type="curve" smooth="yes"/>
      <point x="456" y="-12"/>
      <point x="498" y="0"/>
      <point x="532" y="15" type="curve"/>
      <point x="506" y="100" type="line"/>
      <point x="478" y="88"/>
      <point x="447" y="82"/>
      <point x="425" y="82" type="curve" smooth="yes"/>
      <point x="364" y="82"/>
      <point x="334" y="107"/>
      <point x="334" y="173" type="curve" smooth="yes"/>
      <point x="334" y="257"/>
      <point x="340" y="385"/>
      <point x="342" y="491" type="curve"/>
      <point x="71" y="491" type="line"/>
      <point x="71" y="400" type="line"/>
      <point x="226" y="400" type="line"/>
      <point x="226" y="179" type="line" smooth="yes"/>
      <point x="226" y="58"/>
      <point x="270" y="-12"/>
    </contour>
    <contour>
      <point x="280" y="512" type="move" name="aboveLC"/>
    </contour>
  </outline>
</glyph>
<glyph name="kappa" format="1">
  <advance width="600"/>
  <unicode hex="03BA"/>
  <outline>
    <contour>
      <point x="97" y="0" type="line"/>
      <point x="205" y="0" type="line"/>
      <point x="205" y="27" type="line" smooth="yes"/>
      <point x="205" y="96"/>
      <point x="219" y="145"/>
      <point x="251" y="183" type="curve" smooth="yes"/>
      <point x="354" y="307"/>
      <point x="445" y="372"/>
      <point x="539" y="395" type="curve"/>
      <point x="529" y="503" type="line"/>
      <point x="406" y="479"/>
      <point x="291" y="379"/>
      <point x="214" y="251" type="curve"/>
      <point x="210" y="251" type="line"/>
      <point x="210" y="373" type="line" smooth="yes"/>
      <point x="210" y="418"/>
      <point x="208" y="462"/>
      <point x="201" y="491" type="curve"/>
      <point x="87" y="491" type="line"/>
      <point x="96" y="443"/>
      <point x="97" y="387"/>
      <point x="97" y="348" type="curve" smooth="yes"/>
    </contour>
    <contour>
      <point x="451" y="-10" type="curve"/>
      <point x="581" y="0" type="line"/>
      <point x="504" y="85"/>
      <point x="410" y="211"/>
      <point x="358" y="314" type="curve"/>
      <point x="283" y="240" type="line"/>
      <point x="332" y="142"/>
      <point x="400" y="52"/>
    </contour>
  </outline>
</glyph>
<glyph name="lambda" format="1">
	<unicode hex="03BB"/>
	<advance width="600"/>
	<outline>
		<contour>
			<point x="169" y="-10" type="line"/>
			<point x="314" y="368" type="line"/>
			<point x="318" y="368" type="line"/>
			<point x="440" y="0" type="line"/>
			<point x="565" y="0" type="line"/>
			<point x="375" y="512" type="line"/>
			<point x="328" y="656"/>
			<point x="273" y="718"/>
			<point x="163" y="718" type="curve" smooth="yes"/>
			<point x="111" y="718"/>
			<point x="85" y="710"/>
			<point x="57" y="699" type="curve"/>
			<point x="83" y="605" type="line"/>
			<point x="103" y="614"/>
			<point x="121" y="621"/>
			<point x="150" y="621" type="curve" smooth="yes"/>
			<point x="201" y="621"/>
			<point x="237" y="589"/>
			<point x="259" y="516" type="curve" smooth="yes"/>
			<point x="265" y="497" type="line"/>
			<point x="45" y="0" type="line"/>
		</contour>
	</outline>
</glyph>
<glyph name="xi" format="1">
  <advance width="600"/>
  <unicode hex="03BE"/>
  <outline>
    <contour>
      <point x="472" y="-186" type="line"/>
      <point x="515" y="-124"/>
      <point x="531" y="-68"/>
      <point x="531" y="-36" type="curve" smooth="yes"/>
      <point x="531" y="35"/>
      <point x="494" y="60"/>
      <point x="378" y="83" type="curve" smooth="yes"/>
      <point x="277" y="102"/>
      <point x="216" y="120"/>
      <point x="216" y="202" type="curve" smooth="yes"/>
      <point x="216" y="279"/>
      <point x="290" y="327"/>
      <point x="374" y="327" type="curve" smooth="yes"/>
      <point x="406" y="327"/>
      <point x="432" y="327"/>
      <point x="466" y="320" type="curve"/>
      <point x="466" y="412" type="line"/>
      <point x="434" y="404"/>
      <point x="414" y="405"/>
      <point x="381" y="405" type="curve" smooth="yes"/>
      <point x="316" y="405"/>
      <point x="260" y="453"/>
      <point x="260" y="511" type="curve" smooth="yes"/>
      <point x="260" y="576"/>
      <point x="314" y="615"/>
      <point x="383" y="615" type="curve" smooth="yes"/>
      <point x="525" y="615" type="line"/>
      <point x="525" y="706" type="line"/>
      <point x="75" y="706" type="line"/>
      <point x="75" y="615" type="line"/>
      <point x="134" y="619"/>
      <point x="160" y="620"/>
      <point x="207" y="622" type="curve"/>
      <point x="168" y="598"/>
      <point x="144" y="559"/>
      <point x="144" y="514" type="curve" smooth="yes"/>
      <point x="144" y="450"/>
      <point x="187" y="402"/>
      <point x="251" y="376" type="curve"/>
      <point x="251" y="372" type="line"/>
      <point x="169" y="346"/>
      <point x="98" y="276"/>
      <point x="98" y="185" type="curve" smooth="yes"/>
      <point x="98" y="58"/>
      <point x="192" y="16"/>
      <point x="305" y="-8" type="curve" smooth="yes"/>
      <point x="402" y="-28"/>
      <point x="429" y="-37"/>
      <point x="429" y="-66" type="curve" smooth="yes"/>
      <point x="429" y="-92"/>
      <point x="413" y="-112"/>
      <point x="381" y="-153" type="curve"/>
    </contour>
  </outline>
</glyph>
<glyph name="omicron" format="1">
  <advance width="600"/>
  <unicode hex="03BF"/>
  <outline>
    <contour>
      <point x="300" y="-12" type="curve" smooth="yes"/>
      <point x="431" y="-12"/>
      <point x="545" y="82"/>
      <point x="545" y="245" type="curve" smooth="yes"/>
      <point x="545" y="410"/>
      <point x="431" y="503"/>
      <point x="300" y="503" type="curve" smooth="yes"/>
      <point x="169" y="503"/>
      <point x="55" y="410"/>
      <point x="55" y="245" type="curve" smooth="yes"/>
      <point x="55" y="82"/>
      <point x="169" y="-12"/>
    </contour>
    <contour>
      <point x="300" y="82" type="curve" smooth="yes"/>
      <point x="217" y="82"/>
      <point x="173" y="146"/>
      <point x="173" y="245" type="curve" smooth="yes"/>
      <point x="173" y="344"/>
      <point x="217" y="409"/>
      <point x="300" y="409" type="curve" smooth="yes"/>
      <point x="383" y="409"/>
      <point x="427" y="344"/>
      <point x="427" y="245" type="curve" smooth="yes"/>
      <point x="427" y="146"/>
      <point x="383" y="82"/>
    </contour>
  </outline>
</glyph>
<glyph name="rho" format="1">
	<unicode hex="03C1"/>
	<advance width="600"/>
	<outline>
		<contour>
			<point x="82" y="-178" type="line"/>
			<point x="199" y="-178" type="line"/>
			<point x="196" y="-98"/>
			<point x="194" y="-32"/>
			<point x="191" y="50" type="curve"/>
			<point x="232" y="1"/>
			<point x="284" y="-12"/>
			<point x="335" y="-12" type="curve" smooth="yes"/>
			<point x="443" y="-12"/>
			<point x="547" y="85"/>
			<point x="547" y="253" type="curve" smooth="yes"/>
			<point x="547" y="410"/>
			<point x="463" y="503"/>
			<point x="317" y="503" type="curve" smooth="yes"/>
			<point x="186" y="503"/>
			<point x="82" y="421"/>
			<point x="82" y="243" type="curve" smooth="yes"/>
		</contour>
		<contour>
			<point x="310" y="83" type="curve" smooth="yes"/>
			<point x="271" y="83"/>
			<point x="231" y="91"/>
			<point x="192" y="136" type="curve"/>
			<point x="192" y="249" type="line" smooth="yes"/>
			<point x="192" y="352"/>
			<point x="246" y="408"/>
			<point x="313" y="408" type="curve" smooth="yes"/>
			<point x="393" y="408"/>
			<point x="428" y="350"/>
			<point x="428" y="252" type="curve" smooth="yes"/>
			<point x="428" y="141"/>
			<point x="375" y="83"/>
		</contour>
		<contour>
			<point name="aboveLC" x="334" y="512" type="move"/>
		</contour>
	</outline>
</glyph>
<glyph name="sigma.end" format="1">
  <advance width="600"/>
  <unicode hex="03C2"/>
  <outline>
    <contour>
      <point x="449" y="-183" type="line"/>
      <point x="492" y="-123"/>
      <point x="511" y="-62"/>
      <point x="511" y="-28" type="curve" smooth="yes"/>
      <point x="511" y="47"/>
      <point x="478" y="77"/>
      <point x="358" y="104" type="curve" smooth="yes"/>
      <point x="263" y="124"/>
      <point x="200" y="158"/>
      <point x="200" y="256" type="curve" smooth="yes"/>
      <point x="200" y="348"/>
      <point x="267" y="409"/>
      <point x="360" y="409" type="curve" smooth="yes"/>
      <point x="404" y="409"/>
      <point x="437" y="397"/>
      <point x="476" y="363" type="curve"/>
      <point x="531" y="436" type="line"/>
      <point x="490" y="476"/>
      <point x="431" y="503"/>
      <point x="352" y="503" type="curve" smooth="yes"/>
      <point x="211" y="503"/>
      <point x="81" y="413"/>
      <point x="81" y="256" type="curve" smooth="yes"/>
      <point x="81" y="93"/>
      <point x="196" y="36"/>
      <point x="309" y="10" type="curve" smooth="yes"/>
      <point x="391" y="-8"/>
      <point x="409" y="-24"/>
      <point x="409" y="-56" type="curve" smooth="yes"/>
      <point x="409" y="-83"/>
      <point x="390" y="-110"/>
      <point x="358" y="-151" type="curve"/>
    </contour>
  </outline>
</glyph>
<glyph name="tau" format="1">
  <advance width="600"/>
  <unicode hex="03C4"/>
  <outline>
    <contour>
      <point x="380" y="-12" type="curve" smooth="yes"/>
      <point x="421" y="-12"/>
      <point x="459" y="-4"/>
      <point x="488" y="6" type="curve"/>
      <point x="472" y="94" type="line"/>
      <point x="448" y="86"/>
      <point x="429" y="82"/>
      <point x="409" y="82" type="curve" smooth="yes"/>
      <point x="372" y="82"/>
      <point x="351" y="98"/>
      <point x="351" y="142" type="curve" smooth="yes"/>
      <point x="351" y="216"/>
      <point x="352" y="308"/>
      <point x="355" y="400" type="curve"/>
      <point x="542" y="400" type="line"/>
      <point x="542" y="491" type="line"/>
      <point x="130" y="491" type="line"/>
      <point x="58" y="486" type="line"/>
      <point x="58" y="400" type="line"/>
      <point x="242" y="400" type="line"/>
      <point x="242" y="148" type="line" smooth="yes"/>
      <point x="242" y="48"/>
      <point x="277" y="-12"/>
    </contour>
  </outline>
</glyph>
<glyph name="upsilon" format="1">
  <advance width="600"/>
  <unicode hex="03C5"/>
  <outline>
    <contour>
      <point x="294" y="-12" type="curve" smooth="yes"/>
      <point x="442" y="-12"/>
      <point x="532" y="90"/>
      <point x="532" y="266" type="curve" smooth="yes"/>
      <point x="532" y="345"/>
      <point x="516" y="425"/>
      <point x="492" y="503" type="curve"/>
      <point x="380" y="478" type="line"/>
      <point x="406" y="393"/>
      <point x="416" y="325"/>
      <point x="416" y="261" type="curve" smooth="yes"/>
      <point x="416" y="137"/>
      <point x="368" y="82"/>
      <point x="295" y="82" type="curve" smooth="yes"/>
      <point x="234" y="82"/>
      <point x="184" y="116"/>
      <point x="184" y="196" type="curve" smooth="yes"/>
      <point x="184" y="254"/>
      <point x="190" y="329"/>
      <point x="190" y="373" type="curve" smooth="yes"/>
      <point x="190" y="418"/>
      <point x="189" y="457"/>
      <point x="182" y="491" type="curve"/>
      <point x="70" y="491" type="line"/>
      <point x="79" y="438"/>
      <point x="80" y="387"/>
      <point x="80" y="348" type="curve" smooth="yes"/>
      <point x="80" y="300"/>
      <point x="76" y="252"/>
      <point x="76" y="204" type="curve" smooth="yes"/>
      <point x="76" y="68"/>
      <point x="150" y="-12"/>
    </contour>
    <contour>
      <point x="294" y="512" type="move" name="aboveLC"/>
    </contour>
    <contour>
      <point x="294" y="-20" type="move" name="belowLC"/>
    </contour>
  </outline>
</glyph>
<glyph name="phi" format="1">
  <advance width="600"/>
  <unicode hex="03C6"/>
  <outline>
    <contour>
      <point x="264" y="-9" type="curve"/>
      <point x="258" y="78" type="line"/>
      <point x="184" y="79"/>
      <point x="134" y="140"/>
      <point x="134" y="246" type="curve" smooth="yes"/>
      <point x="134" y="352"/>
      <point x="184" y="412"/>
      <point x="258" y="413" type="curve"/>
      <point x="264" y="500" type="line"/>
      <point x="142" y="499"/>
      <point x="34" y="410"/>
      <point x="34" y="246" type="curve" smooth="yes"/>
      <point x="34" y="82"/>
      <point x="142" y="-8"/>
    </contour>
    <contour>
      <point x="336" y="-9" type="line"/>
      <point x="458" y="-8"/>
      <point x="566" y="82"/>
      <point x="566" y="246" type="curve" smooth="yes"/>
      <point x="566" y="410"/>
      <point x="458" y="499"/>
      <point x="336" y="500" type="curve"/>
      <point x="342" y="413" type="line"/>
      <point x="417" y="412"/>
      <point x="466" y="352"/>
      <point x="466" y="246" type="curve" smooth="yes"/>
      <point x="466" y="140"/>
      <point x="417" y="79"/>
      <point x="342" y="78" type="curve"/>
    </contour>
    <contour>
      <point x="252" y="-178" type="line"/>
      <point x="348" y="-178" type="line"/>
      <point x="348" y="625" type="line"/>
      <point x="252" y="625" type="line"/>
    </contour>
  </outline>
</glyph>
<glyph name="chi" format="1">
  <advance width="600"/>
  <unicode hex="03C7"/>
  <outline>
    <contour>
      <point x="167" y="-190" type="line"/>
      <point x="303" y="72" type="line"/>
      <point x="307" y="72" type="line"/>
      <point x="457" y="-190" type="line"/>
      <point x="570" y="-163" type="line"/>
      <point x="362" y="166" type="line"/>
      <point x="541" y="491" type="line"/>
      <point x="421" y="491" type="line"/>
      <point x="307" y="266" type="line"/>
      <point x="303" y="266" type="line"/>
      <point x="164" y="503" type="line"/>
      <point x="50" y="477" type="line"/>
      <point x="247" y="164" type="line"/>
      <point x="49" y="-178" type="line"/>
    </contour>
  </outline>
</glyph>
<glyph name="psi" format="1">
	<unicode hex="03C8"/>
	<advance width="600"/>
	<outline>
		<contour>
			<point x="259" y="-12" type="curve"/>
			<point x="254" y="80" type="line"/>
			<point x="178" y="80"/>
			<point x="149" y="135"/>
			<point x="149" y="210" type="curve" smooth="yes"/>
			<point x="149" y="247"/>
			<point x="151" y="323"/>
			<point x="151" y="373" type="curve" smooth="yes"/>
			<point x="151" y="418"/>
			<point x="150" y="457"/>
			<point x="144" y="491" type="curve"/>
			<point x="36" y="491" type="line"/>
			<point x="43" y="438"/>
			<point x="45" y="387"/>
			<point x="45" y="348" type="curve" smooth="yes"/>
			<point x="45" y="218" type="line" smooth="yes"/>
			<point x="45" y="87"/>
			<point x="105" y="-12"/>
		</contour>
		<contour>
			<point x="339" y="-12" type="line"/>
			<point x="486" y="-12"/>
			<point x="567" y="86"/>
			<point x="567" y="261" type="curve" smooth="yes"/>
			<point x="567" y="346"/>
			<point x="555" y="423"/>
			<point x="527" y="503" type="curve"/>
			<point x="423" y="478" type="line"/>
			<point x="452" y="390"/>
			<point x="459" y="327"/>
			<point x="459" y="257" type="curve" smooth="yes"/>
			<point x="459" y="131"/>
			<point x="417" y="80"/>
			<point x="339" y="80" type="curve"/>
		</contour>
		<contour>
			<point x="250" y="-178" type="line"/>
			<point x="352" y="-178" type="line"/>
			<point x="352" y="625" type="line"/>
			<point x="250" y="625" type="line"/>
		</contour>
	</outline>
</glyph>
<glyph name="omega" format="1">
  <advance width="600"/>
  <unicode hex="03C9"/>
  <outline>
    <contour>
      <point x="193" y="-12" type="curve" smooth="yes"/>
      <point x="238" y="-12"/>
      <point x="275" y="11"/>
      <point x="297" y="67" type="curve"/>
      <point x="301" y="67" type="line"/>
      <point x="323" y="11"/>
      <point x="365" y="-12"/>
      <point x="411" y="-12" type="curve" smooth="yes"/>
      <point x="511" y="-12"/>
      <point x="572" y="77"/>
      <point x="572" y="244" type="curve" smooth="yes"/>
      <point x="572" y="352"/>
      <point x="539" y="429"/>
      <point x="492" y="503" type="curve"/>
      <point x="389" y="463" type="line"/>
      <point x="440" y="382"/>
      <point x="459" y="326"/>
      <point x="459" y="237" type="curve" smooth="yes"/>
      <point x="459" y="134"/>
      <point x="433" y="82"/>
      <point x="395" y="82" type="curve" smooth="yes"/>
      <point x="363" y="82"/>
      <point x="341" y="108"/>
      <point x="341" y="189" type="curve" smooth="yes"/>
      <point x="341" y="232"/>
      <point x="345" y="265"/>
      <point x="351" y="320" type="curve"/>
      <point x="246" y="320" type="line"/>
      <point x="252" y="265"/>
      <point x="256" y="232"/>
      <point x="256" y="189" type="curve" smooth="yes"/>
      <point x="256" y="113"/>
      <point x="233" y="82"/>
      <point x="199" y="82" type="curve" smooth="yes"/>
      <point x="160" y="82"/>
      <point x="135" y="134"/>
      <point x="135" y="219" type="curve" smooth="yes"/>
      <point x="135" y="311"/>
      <point x="162" y="378"/>
      <point x="214" y="460" type="curve"/>
      <point x="112" y="503" type="line"/>
      <point x="64" y="429"/>
      <point x="28" y="333"/>
      <point x="28" y="241" type="curve" smooth="yes"/>
      <point x="28" y="75"/>
      <point x="96" y="-12"/>
    </contour>
    <contour>
      <point x="300" y="512" type="move" name="aboveLC"/>
    </contour>
    <contour>
      <point x="300" y="-20" type="move" name="belowLC"/>
    </contour>
  </outline>
</glyph>
<glyph name="theta.a" format="1">
	<unicode hex="03D1"/>
	<advance width="600"/>
	<outline>
		<contour>
			<point x="298" y="-12" type="curve" smooth="yes"/>
			<point x="450" y="-12"/>
			<point x="537" y="101"/>
			<point x="537" y="358" type="curve" smooth="yes"/>
			<point x="537" y="585"/>
			<point x="445" y="718"/>
			<point x="275" y="718" type="curve" smooth="yes"/>
			<point x="159" y="718"/>
			<point x="68" y="640"/>
			<point x="68" y="530" type="curve" smooth="yes"/>
			<point x="68" y="435"/>
			<point x="144" y="287"/>
			<point x="442" y="332" type="curve"/>
			<point x="470" y="410" type="line"/>
			<point x="229" y="363"/>
			<point x="175" y="449"/>
			<point x="175" y="526" type="curve" smooth="yes"/>
			<point x="175" y="584"/>
			<point x="217" y="624"/>
			<point x="280" y="624" type="curve" smooth="yes"/>
			<point x="366" y="626"/>
			<point x="424" y="554"/>
			<point x="424" y="358" type="curve" smooth="yes"/>
			<point x="424" y="137"/>
			<point x="375" y="82"/>
			<point x="303" y="82" type="curve" smooth="yes"/>
			<point x="241" y="82"/>
			<point x="199" y="115"/>
			<point x="199" y="196" type="curve" smooth="yes"/>
			<point x="199" y="232"/>
			<point x="198" y="270"/>
			<point x="191" y="287" type="curve"/>
			<point x="82" y="287" type="line"/>
			<point x="90" y="256"/>
			<point x="91" y="228"/>
			<point x="91" y="180" type="curve" smooth="yes"/>
			<point x="91" y="65"/>
			<point x="159" y="-12"/>
		</contour>
	</outline>
</glyph>
<glyph name="phi.a" format="1">
  <advance width="600"/>
  <unicode hex="03D5"/>
  <outline>
    <contour>
      <point x="249" y="-178" type="line"/>
      <point x="359" y="-178" type="line"/>
      <point x="353" y="-24"/>
      <point x="350" y="135"/>
      <point x="350" y="289" type="curve" smooth="yes"/>
      <point x="350" y="375"/>
      <point x="371" y="408"/>
      <point x="404" y="408" type="curve" smooth="yes"/>
      <point x="443" y="408"/>
      <point x="464" y="355"/>
      <point x="464" y="252" type="curve" smooth="yes"/>
      <point x="464" y="136"/>
      <point x="412" y="79"/>
      <point x="336" y="77" type="curve"/>
      <point x="337" y="-9" type="line"/>
      <point x="458" y="-9"/>
      <point x="570" y="87"/>
      <point x="570" y="259" type="curve" smooth="yes"/>
      <point x="570" y="412"/>
      <point x="510" y="503"/>
      <point x="408" y="503" type="curve" smooth="yes"/>
      <point x="316" y="503"/>
      <point x="249" y="438"/>
      <point x="249" y="277" type="curve" smooth="yes"/>
    </contour>
    <contour>
      <point x="264" y="-9" type="curve"/>
      <point x="269" y="77" type="line"/>
      <point x="185" y="77"/>
      <point x="135" y="138"/>
      <point x="135" y="239" type="curve" smooth="yes"/>
      <point x="135" y="318"/>
      <point x="163" y="377"/>
      <point x="217" y="442" type="curve"/>
      <point x="135" y="509" type="line"/>
      <point x="75" y="438"/>
      <point x="30" y="344"/>
      <point x="30" y="251" type="curve" smooth="yes"/>
      <point x="30" y="79"/>
      <point x="141" y="-9"/>
    </contour>
  </outline>
</glyph>
<glyph name="Dje" format="1">
  <advance width="600"/>
  <unicode hex="0402"/>
  <outline>
    <contour>
      <point x="413" y="-12" type="curve" smooth="yes"/>
      <point x="499" y="-12"/>
      <point x="573" y="36"/>
      <point x="573" y="192" type="curve" smooth="yes"/>
      <point x="573" y="344"/>
      <point x="482" y="404"/>
      <point x="368" y="404" type="curve" smooth="yes"/>
      <point x="340" y="404"/>
      <point x="307" y="400"/>
      <point x="282" y="396" type="curve"/>
      <point x="282" y="556" type="line"/>
      <point x="467" y="556" type="line"/>
      <point x="467" y="654" type="line"/>
      <point x="14" y="654" type="line"/>
      <point x="14" y="556" type="line"/>
      <point x="166" y="556" type="line"/>
      <point x="166" y="0" type="line"/>
      <point x="282" y="0" type="line"/>
      <point x="282" y="302" type="line"/>
      <point x="301" y="307"/>
      <point x="327" y="311"/>
      <point x="351" y="311" type="curve" smooth="yes"/>
      <point x="420" y="311"/>
      <point x="463" y="273"/>
      <point x="463" y="191" type="curve" smooth="yes"/>
      <point x="463" y="102"/>
      <point x="426" y="82"/>
      <point x="396" y="82" type="curve" smooth="yes"/>
      <point x="386" y="82"/>
      <point x="374" y="84"/>
      <point x="366" y="88" type="curve"/>
      <point x="347" y="-2" type="line"/>
      <point x="364" y="-8"/>
      <point x="388" y="-12"/>
    </contour>
  </outline>
</glyph>
<glyph name="Ieukran" format="1">
  <advance width="600"/>
  <unicode hex="0404"/>
  <outline>
    <contour>
      <point x="355" y="-12" type="curve" smooth="yes"/>
      <point x="440" y="-12"/>
      <point x="508" y="22"/>
      <point x="561" y="83" type="curve"/>
      <point x="499" y="156" type="line"/>
      <point x="463" y="116"/>
      <point x="418" y="89"/>
      <point x="360" y="89" type="curve" smooth="yes"/>
      <point x="244" y="89"/>
      <point x="175" y="164"/>
      <point x="175" y="331" type="curve" smooth="yes"/>
      <point x="175" y="488"/>
      <point x="250" y="565"/>
      <point x="362" y="565" type="curve" smooth="yes"/>
      <point x="413" y="565"/>
      <point x="453" y="542"/>
      <point x="487" y="508" type="curve"/>
      <point x="549" y="583" type="line"/>
      <point x="507" y="627"/>
      <point x="441" y="666"/>
      <point x="359" y="666" type="curve" smooth="yes"/>
      <point x="191" y="666"/>
      <point x="61" y="552"/>
      <point x="61" y="325" type="curve" smooth="yes"/>
      <point x="61" y="98"/>
      <point x="187" y="-12"/>
    </contour>
    <contour>
      <point x="123" y="291" type="line"/>
      <point x="428" y="291" type="line"/>
      <point x="428" y="389" type="line"/>
      <point x="123" y="389" type="line"/>
    </contour>
  </outline>
</glyph>
<glyph name="Be" format="1">
  <advance width="600"/>
  <unicode hex="0411"/>
  <outline>
    <contour>
      <point x="86" y="0" type="line"/>
      <point x="313" y="0" type="line" smooth="yes"/>
      <point x="454" y="0"/>
      <point x="554" y="60"/>
      <point x="554" y="203" type="curve" smooth="yes"/>
      <point x="554" y="340"/>
      <point x="448" y="389"/>
      <point x="309" y="389" type="curve" smooth="yes"/>
      <point x="202" y="389" type="line"/>
      <point x="202" y="556" type="line"/>
      <point x="512" y="556" type="line"/>
      <point x="512" y="654" type="line"/>
      <point x="86" y="654" type="line"/>
    </contour>
    <contour>
      <point x="202" y="90" type="line"/>
      <point x="202" y="302" type="line"/>
      <point x="297" y="302" type="line" smooth="yes"/>
      <point x="392" y="302"/>
      <point x="441" y="274"/>
      <point x="441" y="201" type="curve" smooth="yes"/>
      <point x="441" y="125"/>
      <point x="394" y="90"/>
      <point x="299" y="90" type="curve" smooth="yes"/>
    </contour>
  </outline>
</glyph>
<glyph name="De" format="1">
  <advance width="600"/>
  <unicode hex="0414"/>
  <outline>
    <contour>
      <point x="28" y="-188" type="line"/>
      <point x="130" y="-188" type="line"/>
      <point x="130" y="0" type="line"/>
      <point x="470" y="0" type="line"/>
      <point x="470" y="-188" type="line"/>
      <point x="572" y="-188" type="line"/>
      <point x="583" y="26" type="line"/>
      <point x="583" y="98" type="line"/>
      <point x="17" y="98" type="line"/>
      <point x="17" y="26" type="line"/>
    </contour>
    <contour>
      <point x="391" y="0" type="line"/>
      <point x="507" y="0" type="line"/>
      <point x="507" y="654" type="line"/>
      <point x="177" y="654" type="line"/>
      <point x="159" y="522"/>
      <point x="147" y="450"/>
      <point x="126" y="328" type="curve" smooth="yes"/>
      <point x="97" y="163"/>
      <point x="72" y="107"/>
      <point x="46" y="98" type="curve"/>
      <point x="70" y="27" type="line"/>
      <point x="147" y="34"/>
      <point x="196" y="116"/>
      <point x="229" y="312" type="curve" smooth="yes"/>
      <point x="246" y="410"/>
      <point x="252" y="460"/>
      <point x="267" y="556" type="curve"/>
      <point x="391" y="556" type="line"/>
    </contour>
  </outline>
</glyph>
<glyph name="Zhe" format="1">
  <advance width="600"/>
  <unicode hex="0416"/>
  <outline>
    <contour>
      <point x="1" y="0" type="line"/>
      <point x="115" y="0" type="line"/>
      <point x="203" y="291" type="line"/>
      <point x="251" y="291" type="line"/>
      <point x="251" y="0" type="line"/>
      <point x="349" y="0" type="line"/>
      <point x="349" y="291" type="line"/>
      <point x="397" y="291" type="line"/>
      <point x="485" y="0" type="line"/>
      <point x="599" y="0" type="line"/>
      <point x="459" y="389" type="line"/>
      <point x="349" y="389" type="line"/>
      <point x="349" y="654" type="line"/>
      <point x="251" y="654" type="line"/>
      <point x="251" y="389" type="line"/>
      <point x="141" y="389" type="line"/>
    </contour>
    <contour>
      <point x="131" y="332" type="line"/>
      <point x="223" y="348" type="line"/>
      <point x="170" y="549" type="line" smooth="yes"/>
      <point x="144" y="645"/>
      <point x="100" y="666"/>
      <point x="45" y="666" type="curve" smooth="yes"/>
      <point x="31" y="666"/>
      <point x="12" y="663"/>
      <point x="1" y="660" type="curve"/>
      <point x="19" y="551" type="line"/>
      <point x="26" y="553"/>
      <point x="33" y="555"/>
      <point x="41" y="555" type="curve" smooth="yes"/>
      <point x="60" y="555"/>
      <point x="78" y="545"/>
      <point x="93" y="492" type="curve" smooth="yes"/>
    </contour>
    <contour>
      <point x="469" y="332" type="line"/>
      <point x="507" y="492" type="line" smooth="yes"/>
      <point x="522" y="545"/>
      <point x="540" y="555"/>
      <point x="559" y="555" type="curve" smooth="yes"/>
      <point x="567" y="555"/>
      <point x="574" y="553"/>
      <point x="581" y="551" type="curve"/>
      <point x="599" y="660" type="line"/>
      <point x="588" y="663"/>
      <point x="567" y="666"/>
      <point x="552" y="666" type="curve" smooth="yes"/>
      <point x="497" y="666"/>
      <point x="456" y="645"/>
      <point x="430" y="549" type="curve" smooth="yes"/>
      <point x="377" y="348" type="line"/>
    </contour>
    <contour>
      <point x="300" y="674" type="move" name="aboveUC"/>
    </contour>
  </outline>
</glyph>
<glyph name="Ka" format="1">
  <advance width="600"/>
  <unicode hex="041A"/>
  <outline>
    <contour>
      <point x="85" y="0" type="line"/>
      <point x="201" y="0" type="line"/>
      <point x="201" y="291" type="line"/>
      <point x="284" y="291" type="line"/>
      <point x="462" y="0" type="line"/>
      <point x="587" y="0" type="line"/>
      <point x="352" y="389" type="line"/>
      <point x="201" y="389" type="line"/>
      <point x="201" y="654" type="line"/>
      <point x="85" y="654" type="line"/>
    </contour>
    <contour>
      <point x="372" y="344" type="line"/>
      <point x="445" y="486" type="line" smooth="yes"/>
      <point x="476" y="545"/>
      <point x="495" y="556"/>
      <point x="524" y="556" type="curve" smooth="yes"/>
      <point x="530" y="556"/>
      <point x="541" y="556"/>
      <point x="550" y="552" type="curve"/>
      <point x="570" y="658" type="line"/>
      <point x="558" y="664"/>
      <point x="540" y="666"/>
      <point x="525" y="666" type="curve" smooth="yes"/>
      <point x="458" y="666"/>
      <point x="413" y="641"/>
      <point x="364" y="546" type="curve" smooth="yes"/>
      <point x="272" y="366" type="line"/>
    </contour>
    <contour>
      <point x="322" y="674" type="move" name="aboveUC"/>
    </contour>
  </outline>
</glyph>
<glyph name="El" format="1">
	<unicode hex="041B"/>
	<advance width="600"/>
	<outline>
		<contour>
			<point x="65" y="-12" type="curve" smooth="yes"/>
			<point x="152" y="-12"/>
			<point x="195" y="41"/>
			<point x="235" y="251" type="curve" smooth="yes"/>
			<point x="256" y="357"/>
			<point x="270" y="450"/>
			<point x="288" y="556" type="curve"/>
			<point x="412" y="556" type="line"/>
			<point x="412" y="0" type="line"/>
			<point x="528" y="0" type="line"/>
			<point x="528" y="654" type="line"/>
			<point x="198" y="654" type="line"/>
			<point x="173" y="515"/>
			<point x="156" y="398"/>
			<point x="128" y="263" type="curve" smooth="yes"/>
			<point x="97" y="114"/>
			<point x="78" y="98"/>
			<point x="48" y="98" type="curve" smooth="yes"/>
			<point x="37" y="98"/>
			<point x="29" y="100"/>
			<point x="20" y="102" type="curve"/>
			<point x="-2" y="-3" type="line"/>
			<point x="18" y="-10"/>
			<point x="37" y="-12"/>
		</contour>
	</outline>
</glyph>
<glyph name="Ucyr" format="1">
	<unicode hex="0423"/>
	<advance width="600"/>
	<outline>
		<contour>
			<point x="179" y="-12" type="curve" smooth="yes"/>
			<point x="271" y="-12"/>
			<point x="325" y="43"/>
			<point x="361" y="134" type="curve" smooth="yes"/>
			<point x="569" y="654" type="line"/>
			<point x="452" y="654" type="line"/>
			<point x="362" y="414" type="line"/>
			<point x="313" y="271" type="line"/>
			<point x="309" y="271" type="line"/>
			<point x="257" y="414" type="line"/>
			<point x="158" y="654" type="line"/>
			<point x="35" y="654" type="line"/>
			<point x="258" y="162" type="line"/>
			<point x="246" y="135" type="line"/>
			<point x="231" y="106"/>
			<point x="208" y="94"/>
			<point x="172" y="94" type="curve" smooth="yes"/>
			<point x="149" y="94"/>
			<point x="138" y="97"/>
			<point x="127" y="101" type="curve"/>
			<point x="105" y="0" type="line"/>
			<point x="124" y="-8"/>
			<point x="145" y="-12"/>
		</contour>
		<contour>
			<point name="aboveUC" x="306" y="674" type="move"/>
		</contour>
	</outline>
</glyph>
<glyph name="Tse" format="1">
  <advance width="600"/>
  <unicode hex="0426"/>
  <outline>
    <contour>
      <point x="71" y="0" type="line"/>
      <point x="525" y="0" type="line"/>
      <point x="525" y="654" type="line"/>
      <point x="409" y="654" type="line"/>
      <point x="409" y="98" type="line"/>
      <point x="187" y="98" type="line"/>
      <point x="187" y="654" type="line"/>
      <point x="71" y="654" type="line"/>
    </contour>
    <contour>
      <point x="491" y="-188" type="line"/>
      <point x="587" y="-188" type="line"/>
      <point x="598" y="26" type="line"/>
      <point x="598" y="98" type="line"/>
      <point x="458" y="98" type="line"/>
      <point x="458" y="0" type="line"/>
      <point x="491" y="0" type="line"/>
    </contour>
  </outline>
</glyph>
<glyph name="Hard" format="1">
  <advance width="600"/>
  <unicode hex="042A"/>
  <outline>
    <contour>
      <point x="183" y="0" type="line"/>
      <point x="346" y="0" type="line" smooth="yes"/>
      <point x="477" y="0"/>
      <point x="571" y="59"/>
      <point x="571" y="208" type="curve" smooth="yes"/>
      <point x="571" y="343"/>
      <point x="468" y="401"/>
      <point x="340" y="401" type="curve" smooth="yes"/>
      <point x="299" y="401" type="line"/>
      <point x="299" y="654" type="line"/>
      <point x="22" y="654" type="line"/>
      <point x="22" y="556" type="line"/>
      <point x="183" y="556" type="line"/>
    </contour>
    <contour>
      <point x="299" y="93" type="line"/>
      <point x="299" y="308" type="line"/>
      <point x="330" y="308" type="line" smooth="yes"/>
      <point x="416" y="308"/>
      <point x="461" y="274"/>
      <point x="461" y="206" type="curve" smooth="yes"/>
      <point x="461" y="126"/>
      <point x="418" y="93"/>
      <point x="336" y="93" type="curve" smooth="yes"/>
    </contour>
  </outline>
</glyph>
<glyph name="Yeru" format="1">
  <advance width="600"/>
  <unicode hex="042B"/>
  <outline>
    <contour>
      <point x="44" y="0" type="line"/>
      <point x="173" y="0" type="line" smooth="yes"/>
      <point x="297" y="0"/>
      <point x="384" y="59"/>
      <point x="384" y="208" type="curve" smooth="yes"/>
      <point x="384" y="345"/>
      <point x="298" y="401"/>
      <point x="174" y="401" type="curve" smooth="yes"/>
      <point x="148" y="401" type="line"/>
      <point x="148" y="654" type="line"/>
      <point x="44" y="654" type="line"/>
    </contour>
    <contour>
      <point x="148" y="93" type="line"/>
      <point x="148" y="308" type="line"/>
      <point x="168" y="308" type="line" smooth="yes"/>
      <point x="246" y="308"/>
      <point x="285" y="276"/>
      <point x="285" y="206" type="curve" smooth="yes"/>
      <point x="285" y="126"/>
      <point x="245" y="93"/>
      <point x="170" y="93" type="curve" smooth="yes"/>
    </contour>
    <contour>
      <point x="452" y="0" type="line"/>
      <point x="556" y="0" type="line"/>
      <point x="556" y="654" type="line"/>
      <point x="452" y="654" type="line"/>
    </contour>
    <contour>
      <point x="300" y="674" type="move" name="aboveUC"/>
    </contour>
  </outline>
</glyph>
<glyph name="Soft" format="1">
  <advance width="600"/>
  <unicode hex="042C"/>
  <outline>
    <contour>
      <point x="86" y="0" type="line"/>
      <point x="304" y="0" type="line" smooth="yes"/>
      <point x="450" y="0"/>
      <point x="554" y="59"/>
      <point x="554" y="208" type="curve" smooth="yes"/>
      <point x="554" y="345"/>
      <point x="450" y="401"/>
      <point x="305" y="401" type="curve" smooth="yes"/>
      <point x="202" y="401" type="line"/>
      <point x="202" y="654" type="line"/>
      <point x="86" y="654" type="line"/>
    </contour>
    <contour>
      <point x="202" y="93" type="line"/>
      <point x="202" y="308" type="line"/>
      <point x="293" y="308" type="line" smooth="yes"/>
      <point x="391" y="308"/>
      <point x="440" y="276"/>
      <point x="440" y="206" type="curve" smooth="yes"/>
      <point x="440" y="126"/>
      <point x="388" y="93"/>
      <point x="294" y="93" type="curve" smooth="yes"/>
    </contour>
  </outline>
</glyph>
<glyph name="Ecyr" format="1">
	<unicode hex="042D"/>
	<advance width="600"/>
	<outline>
		<contour>
			<point x="253" y="-12" type="curve" smooth="yes"/>
			<point x="415" y="-12"/>
			<point x="539" y="98"/>
			<point x="539" y="325" type="curve" smooth="yes"/>
			<point x="539" y="552"/>
			<point x="420" y="666"/>
			<point x="255" y="666" type="curve" smooth="yes"/>
			<point x="171" y="666"/>
			<point x="96" y="627"/>
			<point x="51" y="583" type="curve"/>
			<point x="113" y="508" type="line"/>
			<point x="151" y="543"/>
			<point x="195" y="565"/>
			<point x="249" y="565" type="curve" smooth="yes"/>
			<point x="361" y="565"/>
			<point x="425" y="488"/>
			<point x="425" y="331" type="curve" smooth="yes"/>
			<point x="425" y="165"/>
			<point x="358" y="89"/>
			<point x="251" y="89" type="curve" smooth="yes"/>
			<point x="188" y="89"/>
			<point x="141" y="116"/>
			<point x="101" y="156" type="curve"/>
			<point x="39" y="83" type="line"/>
			<point x="95" y="22"/>
			<point x="166" y="-12"/>
		</contour>
		<contour>
			<point x="172" y="291" type="line"/>
			<point x="477" y="291" type="line"/>
			<point x="477" y="389" type="line"/>
			<point x="172" y="389" type="line"/>
		</contour>
		<contour>
			<point name="aboveUC" x="278" y="674" type="move"/>
		</contour>
	</outline>
</glyph>
<glyph name="Yu" format="1">
  <advance width="600"/>
  <unicode hex="042E"/>
  <outline>
    <contour>
      <point x="37" y="0" type="line"/>
      <point x="146" y="0" type="line"/>
      <point x="146" y="290" type="line"/>
      <point x="269" y="290" type="line"/>
      <point x="269" y="391" type="line"/>
      <point x="146" y="391" type="line"/>
      <point x="146" y="654" type="line"/>
      <point x="37" y="654" type="line"/>
    </contour>
    <contour>
      <point x="383" y="-12" type="curve" smooth="yes"/>
      <point x="501" y="-12"/>
      <point x="572" y="97"/>
      <point x="572" y="331" type="curve" smooth="yes"/>
      <point x="572" y="563"/>
      <point x="501" y="666"/>
      <point x="383" y="666" type="curve" smooth="yes"/>
      <point x="275" y="666"/>
      <point x="207" y="563"/>
      <point x="207" y="331" type="curve" smooth="yes"/>
      <point x="207" y="97"/>
      <point x="275" y="-12"/>
    </contour>
    <contour>
      <point x="383" y="89" type="curve" smooth="yes"/>
      <point x="337" y="89"/>
      <point x="308" y="150"/>
      <point x="308" y="331" type="curve" smooth="yes"/>
      <point x="308" y="510"/>
      <point x="337" y="565"/>
      <point x="383" y="565" type="curve" smooth="yes"/>
      <point x="431" y="565"/>
      <point x="457" y="510"/>
      <point x="457" y="331" type="curve" smooth="yes"/>
      <point x="457" y="150"/>
      <point x="431" y="89"/>
    </contour>
    <contour>
      <point x="304" y="674" type="move" name="aboveUC"/>
    </contour>
  </outline>
</glyph>
<glyph name="icyr" format="1">
  <advance width="600"/>
  <unicode hex="0438"/>
  <outline>
    <contour>
      <point x="86" y="0" type="line"/>
      <point x="192" y="0" type="line"/>
      <point x="348" y="243" type="line"/>
      <point x="365" y="272"/>
      <point x="392" y="317"/>
      <point x="409" y="347" type="curve"/>
      <point x="413" y="347" type="line"/>
      <point x="408" y="285"/>
      <point x="402" y="220"/>
      <point x="402" y="169" type="curve" smooth="yes"/>
      <point x="402" y="0" type="line"/>
      <point x="514" y="0" type="line"/>
      <point x="514" y="491" type="line"/>
      <point x="408" y="491" type="line"/>
      <point x="252" y="248" type="line"/>
      <point x="236" y="219"/>
      <point x="208" y="174"/>
      <point x="191" y="144" type="curve"/>
      <point x="188" y="144" type="line"/>
      <point x="192" y="206"/>
      <point x="198" y="271"/>
      <point x="198" y="322" type="curve" smooth="yes"/>
      <point x="198" y="491" type="line"/>
      <point x="86" y="491" type="line"/>
    </contour>
    <contour>
      <point x="314" y="512" type="move" name="aboveLC"/>
    </contour>
  </outline>
</glyph>
<glyph name="en" format="1">
  <advance width="600"/>
  <unicode hex="043D"/>
  <outline>
    <contour>
      <point x="82" y="0" type="line"/>
      <point x="198" y="0" type="line"/>
      <point x="198" y="202" type="line"/>
      <point x="402" y="202" type="line"/>
      <point x="402" y="0" type="line"/>
      <point x="518" y="0" type="line"/>
      <point x="518" y="491" type="line"/>
      <point x="402" y="491" type="line"/>
      <point x="402" y="303" type="line"/>
      <point x="198" y="303" type="line"/>
      <point x="198" y="491" type="line"/>
      <point x="82" y="491" type="line"/>
    </contour>
    <contour>
      <point x="300" y="512" type="move" name="aboveLC"/>
    </contour>
  </outline>
</glyph>
<glyph name="pe" format="1">
	<unicode hex="043F"/>
	<advance width="600"/>
	<outline>
		<contour>
			<point x="82" y="0" type="line"/>
			<point x="198" y="0" type="line"/>
			<point x="198" y="400" type="line"/>
			<point x="402" y="400" type="line"/>
			<point x="402" y="0" type="line"/>
			<point x="518" y="0" type="line"/>
			<point x="518" y="491" type="line"/>
			<point x="82" y="491" type="line"/>
		</contour>
		<contour>
			<point name="aboveLC" x="300" y="512" type="move"/>
		</contour>
	</outline>
</glyph>
<glyph name="es" format="1">
	<unicode hex="0441"/>
	<advance width="600"/>
	<outline>
		<component base="c"/>
		<contour>
			<point name="aboveLC" x="344" y="512" type="move"/>
		</contour>
	</outline>
</glyph>
<glyph name="ef" format="1">
  <advance width="600"/>
  <unicode hex="0444"/>
  <outline>
    <contour>
      <point x="249" y="-194" type="line"/>
      <point x="351" y="-194" type="line"/>
      <point x="351" y="-54" type="line"/>
      <point x="348" y="20" type="line"/>
      <point x="371" y="2"/>
      <point x="397" y="-12"/>
      <point x="423" y="-12" type="curve" smooth="yes"/>
      <point x="502" y="-12"/>
      <point x="573" y="85"/>
      <point x="573" y="253" type="curve" smooth="yes"/>
      <point x="573" y="405"/>
      <point x="520" y="503"/>
      <point x="434" y="503" type="curve" smooth="yes"/>
      <point x="403" y="503"/>
      <point x="372" y="487"/>
      <point x="348" y="468" type="curve"/>
      <point x="351" y="545" type="line"/>
      <point x="351" y="706" type="line"/>
      <point x="249" y="706" type="line"/>
      <point x="249" y="545" type="line"/>
      <point x="252" y="472" type="line"/>
      <point x="231" y="489"/>
      <point x="208" y="503"/>
      <point x="175" y="503" type="curve" smooth="yes"/>
      <point x="99" y="503"/>
      <point x="27" y="405"/>
      <point x="27" y="245" type="curve" smooth="yes"/>
      <point x="27" y="83"/>
      <point x="85" y="-12"/>
      <point x="175" y="-12" type="curve" smooth="yes"/>
      <point x="205" y="-12"/>
      <point x="230" y="5"/>
      <point x="252" y="21" type="curve"/>
      <point x="249" y="-54" type="line"/>
    </contour>
    <contour>
      <point x="205" y="83" type="curve" smooth="yes"/>
      <point x="157" y="83"/>
      <point x="132" y="140"/>
      <point x="132" y="246" type="curve" smooth="yes"/>
      <point x="132" y="349"/>
      <point x="161" y="408"/>
      <point x="201" y="408" type="curve" smooth="yes"/>
      <point x="220" y="408"/>
      <point x="237" y="399"/>
      <point x="252" y="382" type="curve"/>
      <point x="252" y="111" type="line"/>
      <point x="237" y="92"/>
      <point x="223" y="83"/>
    </contour>
    <contour>
      <point x="396" y="83" type="curve" smooth="yes"/>
      <point x="383" y="83"/>
      <point x="364" y="91"/>
      <point x="348" y="109" type="curve"/>
      <point x="348" y="381" type="line"/>
      <point x="365" y="399"/>
      <point x="382" y="408"/>
      <point x="400" y="408" type="curve" smooth="yes"/>
      <point x="450" y="408"/>
      <point x="468" y="350"/>
      <point x="468" y="252" type="curve" smooth="yes"/>
      <point x="468" y="141"/>
      <point x="441" y="83"/>
    </contour>
  </outline>
</glyph>
<glyph name="che" format="1">
  <advance width="600"/>
  <unicode hex="0447"/>
  <outline>
    <contour>
      <point x="390" y="0" type="line"/>
      <point x="506" y="0" type="line"/>
      <point x="506" y="491" type="line"/>
      <point x="390" y="491" type="line"/>
      <point x="390" y="273" type="line"/>
      <point x="363" y="267"/>
      <point x="341" y="264"/>
      <point x="311" y="264" type="curve" smooth="yes"/>
      <point x="226" y="264"/>
      <point x="191" y="293"/>
      <point x="191" y="363" type="curve" smooth="yes"/>
      <point x="191" y="491" type="line"/>
      <point x="76" y="491" type="line"/>
      <point x="76" y="363" type="line" smooth="yes"/>
      <point x="76" y="224"/>
      <point x="158" y="172"/>
      <point x="286" y="172" type="curve" smooth="yes"/>
      <point x="335" y="172"/>
      <point x="355" y="175"/>
      <point x="390" y="183" type="curve"/>
    </contour>
    <contour>
      <point x="306" y="512" type="move" name="aboveLC"/>
    </contour>
  </outline>
</glyph>
<glyph name="soft" format="1">
  <advance width="600"/>
  <unicode hex="044C"/>
  <outline>
    <contour>
      <point x="103" y="0" type="line"/>
      <point x="327" y="0" type="line" smooth="yes"/>
      <point x="449" y="0"/>
      <point x="536" y="45"/>
      <point x="536" y="164" type="curve" smooth="yes"/>
      <point x="536" y="278"/>
      <point x="449" y="323"/>
      <point x="327" y="323" type="curve" smooth="yes"/>
      <point x="218" y="323" type="line"/>
      <point x="218" y="491" type="line"/>
      <point x="103" y="491" type="line"/>
    </contour>
    <contour>
      <point x="218" y="89" type="line"/>
      <point x="218" y="236" type="line"/>
      <point x="320" y="236" type="line" smooth="yes"/>
      <point x="391" y="236"/>
      <point x="425" y="213"/>
      <point x="425" y="164" type="curve" smooth="yes"/>
      <point x="425" y="113"/>
      <point x="391" y="89"/>
      <point x="320" y="89" type="curve" smooth="yes"/>
    </contour>
    <contour>
      <point x="162" y="512" type="move" name="aboveLC"/>
    </contour>
  </outline>
</glyph>
<glyph name="dje" format="1">
  <advance width="600"/>
  <unicode hex="0452"/>
  <outline>
    <contour>
      <point x="325" y="-206" type="curve" smooth="yes"/>
      <point x="460" y="-206"/>
      <point x="544" y="-118"/>
      <point x="544" y="176" type="curve" smooth="yes"/>
      <point x="544" y="373"/>
      <point x="477" y="483"/>
      <point x="352" y="483" type="curve" smooth="yes"/>
      <point x="285" y="483"/>
      <point x="235" y="445"/>
      <point x="194" y="400" type="curve"/>
      <point x="191" y="400" type="line"/>
      <point x="197" y="504" type="line"/>
      <point x="197" y="706" type="line"/>
      <point x="82" y="706" type="line"/>
      <point x="82" y="0" type="line"/>
      <point x="197" y="0" type="line"/>
      <point x="197" y="315" type="line"/>
      <point x="241" y="361"/>
      <point x="272" y="385"/>
      <point x="312" y="385" type="curve" smooth="yes"/>
      <point x="387" y="385"/>
      <point x="425" y="327"/>
      <point x="425" y="162" type="curve" smooth="yes"/>
      <point x="425" y="-58"/>
      <point x="377" y="-115"/>
      <point x="315" y="-115" type="curve" smooth="yes"/>
      <point x="302" y="-115"/>
      <point x="289" y="-111"/>
      <point x="277" y="-107" type="curve"/>
      <point x="256" y="-193" type="line"/>
      <point x="272" y="-200"/>
      <point x="295" y="-206"/>
    </contour>
    <contour>
      <point x="13" y="559" type="line"/>
      <point x="395" y="559" type="line"/>
      <point x="395" y="627" type="line"/>
      <point x="89" y="627" type="line"/>
      <point x="13" y="622" type="line"/>
    </contour>
  </outline>
</glyph>
<glyph name="nje" format="1">
  <advance width="600"/>
  <unicode hex="045A"/>
  <outline>
    <contour>
      <point x="47" y="0" type="line"/>
      <point x="153" y="0" type="line"/>
      <point x="153" y="202" type="line"/>
      <point x="256" y="202" type="line"/>
      <point x="256" y="0" type="line"/>
      <point x="361" y="0" type="line"/>
      <point x="361" y="491" type="line"/>
      <point x="256" y="491" type="line"/>
      <point x="256" y="303" type="line"/>
      <point x="153" y="303" type="line"/>
      <point x="153" y="491" type="line"/>
      <point x="47" y="491" type="line"/>
    </contour>
    <contour>
      <point x="256" y="0" type="line"/>
      <point x="382" y="0" type="line" smooth="yes"/>
      <point x="491" y="0"/>
      <point x="564" y="45"/>
      <point x="564" y="163" type="curve" smooth="yes"/>
      <point x="564" y="278"/>
      <point x="491" y="323"/>
      <point x="382" y="323" type="curve" smooth="yes"/>
      <point x="361" y="323" type="line"/>
      <point x="361" y="491" type="line"/>
      <point x="256" y="491" type="line"/>
    </contour>
    <contour>
      <point x="361" y="89" type="line"/>
      <point x="361" y="236" type="line"/>
      <point x="374" y="236" type="line" smooth="yes"/>
      <point x="435" y="236"/>
      <point x="464" y="214"/>
      <point x="464" y="163" type="curve" smooth="yes"/>
      <point x="464" y="112"/>
      <point x="435" y="89"/>
      <point x="374" y="89" type="curve" smooth="yes"/>
    </contour>
  </outline>
</glyph>
<glyph name="kabashkir" format="1">
  <advance width="600"/>
  <unicode hex="04A1"/>
  <outline>
    <contour>
      <point x="188" y="0" type="line"/>
      <point x="291" y="0" type="line"/>
      <point x="291" y="208" type="line"/>
      <point x="363" y="208" type="line"/>
      <point x="480" y="0" type="line"/>
      <point x="589" y="0" type="line"/>
      <point x="415" y="300" type="line"/>
      <point x="291" y="300" type="line"/>
      <point x="291" y="491" type="line"/>
      <point x="188" y="491" type="line"/>
    </contour>
    <contour>
      <point x="31" y="400" type="line"/>
      <point x="188" y="400" type="line"/>
      <point x="291" y="491" type="line"/>
      <point x="31" y="491" type="line"/>
    </contour>
    <contour>
      <point x="438" y="235" type="line"/>
      <point x="474" y="335" type="line" smooth="yes"/>
      <point x="492" y="385"/>
      <point x="508" y="393"/>
      <point x="528" y="393" type="curve" smooth="yes"/>
      <point x="535" y="393"/>
      <point x="540" y="392"/>
      <point x="546" y="390" type="curve"/>
      <point x="565" y="497" type="line"/>
      <point x="555" y="501"/>
      <point x="543" y="503"/>
      <point x="530" y="503" type="curve" smooth="yes"/>
      <point x="474" y="503"/>
      <point x="432" y="486"/>
      <point x="400" y="399" type="curve" smooth="yes"/>
      <point x="347" y="256" type="line"/>
    </contour>
  </outline>
</glyph>
<glyph name="ustraight" format="1">
  <advance width="600"/>
  <unicode hex="04AF"/>
  <outline>
    <contour>
      <point x="246" y="-194" type="line"/>
      <point x="361" y="-194" type="line"/>
      <point x="361" y="-8" type="line"/>
      <point x="559" y="491" type="line"/>
      <point x="448" y="491" type="line"/>
      <point x="354" y="243" type="line"/>
      <point x="335" y="192"/>
      <point x="320" y="145"/>
      <point x="305" y="98" type="curve"/>
      <point x="301" y="98" type="line"/>
      <point x="286" y="145"/>
      <point x="270" y="192"/>
      <point x="252" y="243" type="curve"/>
      <point x="158" y="491" type="line"/>
      <point x="41" y="491" type="line"/>
      <point x="246" y="-8" type="line"/>
    </contour>
  </outline>
</glyph>
<glyph name="Hadescender" format="1">
  <advance width="600"/>
  <unicode hex="04B2"/>
  <outline>
    <contour>
      <point x="482" y="-188" type="line"/>
      <point x="570" y="-188" type="line"/>
      <point x="581" y="26" type="line"/>
      <point x="581" y="98" type="line"/>
      <point x="456" y="98" type="line"/>
      <point x="456" y="0" type="line"/>
      <point x="482" y="0" type="line"/>
    </contour>
    <component base="Ha"/>
  </outline>
</glyph>
<glyph name="Shha" format="1">
  <advance width="600"/>
  <unicode hex="04BA"/>
  <outline>
    <contour>
      <point x="76" y="0" type="line"/>
      <point x="192" y="0" type="line"/>
      <point x="192" y="313" type="line"/>
      <point x="216" y="318"/>
      <point x="246" y="322"/>
      <point x="289" y="322" type="curve" smooth="yes"/>
      <point x="383" y="322"/>
      <point x="430" y="288"/>
      <point x="430" y="189" type="curve" smooth="yes"/>
      <point x="430" y="0" type="line"/>
      <point x="543" y="0" type="line"/>
      <point x="543" y="189" type="line" smooth="yes"/>
      <point x="543" y="356"/>
      <point x="452" y="415"/>
      <point x="301" y="415" type="curve" smooth="yes"/>
      <point x="253" y="415"/>
      <point x="223" y="412"/>
      <point x="192" y="407" type="curve"/>
      <point x="192" y="654" type="line"/>
      <point x="76" y="654" type="line"/>
    </contour>
  </outline>
</glyph>
<glyph name="underscoredbl" format="1">
	<unicode hex="2017"/>
	<advance width="600"/>
	<outline>
		<contour>
			<point x="60" y="-140" type="line"/>
			<point x="540" y="-140" type="line"/>
			<point x="540" y="-62" type="line"/>
			<point x="60" y="-62" type="line"/>
		</contour>
		<contour>
			<point x="60" y="-276" type="line"/>
			<point x="540" y="-276" type="line"/>
			<point x="540" y="-198" type="line"/>
			<point x="60" y="-198" type="line"/>
		</contour>
	</outline>
</glyph>
<glyph name="quoteleft" format="1">
	<unicode hex="2018"/>
	<advance width="600"/>
	<outline>
		<contour>
			<point x="300" y="319" type="curve" smooth="yes"/>
			<point x="350" y="319"/>
			<point x="385" y="355"/>
			<point x="385" y="409" type="curve" smooth="yes"/>
			<point x="385" y="457"/>
			<point x="352" y="490"/>
			<point x="304" y="490" type="curve" smooth="yes"/>
			<point x="281" y="490"/>
			<point x="254" y="477"/>
			<point x="236" y="460" type="curve"/>
			<point x="293" y="385" type="line"/>
			<point x="281" y="472" type="line" smooth="yes"/>
			<point x="281" y="545"/>
			<point x="319" y="599"/>
			<point x="389" y="635" type="curve"/>
			<point x="356" y="698" type="line"/>
			<point x="252" y="648"/>
			<point x="196" y="564"/>
			<point x="196" y="460" type="curve" smooth="yes"/>
			<point x="196" y="372"/>
			<point x="237" y="319"/>
		</contour>
	</outline>
</glyph>
<glyph name="quotereversed" format="1">
  <advance width="600"/>
  <unicode hex="201B"/>
  <outline>
    <contour>
      <point x="357" y="319" type="curve"/>
      <point x="390" y="382" type="line"/>
      <point x="320" y="418"/>
      <point x="282" y="472"/>
      <point x="282" y="545" type="curve" smooth="yes"/>
      <point x="295" y="632" type="line"/>
      <point x="238" y="557" type="line"/>
      <point x="256" y="540"/>
      <point x="282" y="527"/>
      <point x="306" y="527" type="curve" smooth="yes"/>
      <point x="353" y="527"/>
      <point x="387" y="560"/>
      <point x="387" y="608" type="curve" smooth="yes"/>
      <point x="387" y="662"/>
      <point x="351" y="698"/>
      <point x="302" y="698" type="curve" smooth="yes"/>
      <point x="238" y="698"/>
      <point x="198" y="645"/>
      <point x="198" y="557" type="curve" smooth="yes"/>
      <point x="198" y="453"/>
      <point x="254" y="369"/>
    </contour>
  </outline>
</glyph>
<glyph name="bullet" format="1">
	<unicode hex="2022"/>
	<advance width="600"/>
	<outline>
		<contour>
			<point x="300" y="108" type="curve" smooth="yes"/>
			<point x="386" y="108"/>
			<point x="456" y="172"/>
			<point x="456" y="262" type="curve" smooth="yes"/>
			<point x="456" y="352"/>
			<point x="386" y="416"/>
			<point x="300" y="416" type="curve" smooth="yes"/>
			<point x="214" y="416"/>
			<point x="144" y="352"/>
			<point x="144" y="262" type="curve" smooth="yes"/>
			<point x="144" y="172"/>
			<point x="214" y="108"/>
		</contour>
	</outline>
</glyph>
<glyph name="primereversed" format="1">
	<unicode hex="2035"/>
	<advance width="600"/>
	<outline>
		<contour>
			<point x="282" y="394" type="line"/>
			<point x="357" y="394" type="line"/>
			<point x="335" y="688" type="line"/>
			<point x="221" y="688" type="line"/>
			<point x="241" y="565" type="line"/>
		</contour>
	</outline>
</glyph>
<glyph name="interrobang" format="1">
  <advance width="600"/>
  <unicode hex="203D"/>
  <outline>
    <contour>
      <point x="274" y="244" type="curve"/>
      <point x="323" y="244" type="line"/>
      <point x="312" y="337"/>
      <point x="496" y="360"/>
      <point x="496" y="520" type="curve" smooth="yes"/>
      <point x="496" y="618"/>
      <point x="409" y="682"/>
      <point x="286" y="682" type="curve" smooth="yes"/>
      <point x="206" y="682"/>
      <point x="129" y="649"/>
      <point x="78" y="592" type="curve"/>
      <point x="144" y="533" type="line"/>
      <point x="183" y="574"/>
      <point x="224" y="594"/>
      <point x="278" y="594" type="curve" smooth="yes"/>
      <point x="347" y="594"/>
      <point x="391" y="556"/>
      <point x="391" y="500" type="curve" smooth="yes"/>
      <point x="391" y="386"/>
      <point x="252" y="377"/>
    </contour>
    <contour>
      <point x="242" y="244" type="line"/>
      <point x="311" y="244" type="line"/>
      <point x="313" y="436" type="line"/>
      <point x="314" y="520" type="line"/>
      <point x="220" y="520" type="line"/>
      <point x="227" y="436" type="line"/>
    </contour>
    <contour>
      <point x="280" y="-12" type="curve" smooth="yes"/>
      <point x="325" y="-12"/>
      <point x="361" y="24"/>
      <point x="361" y="74" type="curve" smooth="yes"/>
      <point x="361" y="124"/>
      <point x="325" y="159"/>
      <point x="280" y="159" type="curve" smooth="yes"/>
      <point x="235" y="159"/>
      <point x="199" y="124"/>
      <point x="199" y="74" type="curve" smooth="yes"/>
      <point x="199" y="24"/>
      <point x="235" y="-12"/>
    </contour>
  </outline>
</glyph>
<glyph name="undertie" format="1">
  <advance width="600"/>
  <unicode hex="203F"/>
  <outline>
    <contour>
      <point x="300" y="-232" type="curve" smooth="yes"/>
      <point x="464" y="-232"/>
      <point x="620" y="-190"/>
      <point x="756" y="-106" type="curve"/>
      <point x="724" y="-52" type="line"/>
      <point x="596" y="-127"/>
      <point x="435" y="-156"/>
      <point x="300" y="-156" type="curve" smooth="yes"/>
      <point x="165" y="-156"/>
      <point x="4" y="-127"/>
      <point x="-124" y="-52" type="curve"/>
      <point x="-156" y="-106" type="line"/>
      <point x="-20" y="-190"/>
      <point x="136" y="-232"/>
    </contour>
  </outline>
</glyph>
<glyph name="questionexclam" format="1">
  <advance width="600"/>
  <unicode hex="2048"/>
  <outline>
    <contour>
      <point x="90" y="244" type="curve"/>
      <point x="185" y="244" type="line"/>
      <point x="168" y="364"/>
      <point x="296" y="407"/>
      <point x="296" y="548" type="curve" smooth="yes"/>
      <point x="296" y="627"/>
      <point x="235" y="682"/>
      <point x="152" y="682" type="curve" smooth="yes"/>
      <point x="98" y="682"/>
      <point x="50" y="661"/>
      <point x="11" y="619" type="curve"/>
      <point x="64" y="552" type="line"/>
      <point x="86" y="578"/>
      <point x="104" y="588"/>
      <point x="129" y="588" type="curve" smooth="yes"/>
      <point x="165" y="588"/>
      <point x="185" y="562"/>
      <point x="185" y="526" type="curve" smooth="yes"/>
      <point x="185" y="431"/>
      <point x="66" y="376"/>
    </contour>
    <contour>
      <point x="146" y="-12" type="curve" smooth="yes"/>
      <point x="195" y="-12"/>
      <point x="233" y="24"/>
      <point x="233" y="78" type="curve" smooth="yes"/>
      <point x="233" y="131"/>
      <point x="195" y="166"/>
      <point x="146" y="166" type="curve" smooth="yes"/>
      <point x="97" y="166"/>
      <point x="59" y="131"/>
      <point x="59" y="78" type="curve" smooth="yes"/>
      <point x="59" y="24"/>
      <point x="97" y="-12"/>
    </contour>
    <component base="exclam" xOffset="140"/>
  </outline>
</glyph>
<glyph name="colonmonetary" format="1">
  <advance width="600"/>
  <unicode hex="20A1"/>
  <outline>
    <contour>
      <point x="358" y="-12" type="curve" smooth="yes"/>
      <point x="439" y="-12"/>
      <point x="502" y="22"/>
      <point x="555" y="81" type="curve"/>
      <point x="490" y="141" type="line"/>
      <point x="454" y="100"/>
      <point x="416" y="78"/>
      <point x="364" y="78" type="curve" smooth="yes"/>
      <point x="263" y="78"/>
      <point x="204" y="169"/>
      <point x="204" y="320" type="curve" smooth="yes"/>
      <point x="204" y="468"/>
      <point x="261" y="558"/>
      <point x="366" y="558" type="curve" smooth="yes"/>
      <point x="413" y="558"/>
      <point x="448" y="537"/>
      <point x="481" y="507" type="curve"/>
      <point x="546" y="570" type="line"/>
      <point x="502" y="618"/>
      <point x="438" y="648"/>
      <point x="374" y="648" type="curve" smooth="yes"/>
      <point x="201" y="648"/>
      <point x="87" y="524"/>
      <point x="87" y="316" type="curve" smooth="yes"/>
      <point x="87" y="106"/>
      <point x="200" y="-12"/>
    </contour>
    <contour>
      <point x="230" y="-105" type="line"/>
      <point x="272" y="-110" type="line"/>
      <point x="372" y="741" type="line"/>
      <point x="330" y="746" type="line"/>
    </contour>
    <contour>
      <point x="323" y="-105" type="line"/>
      <point x="365" y="-110" type="line"/>
      <point x="465" y="741" type="line"/>
      <point x="423" y="746" type="line"/>
    </contour>
  </outline>
</glyph>
<glyph name="lira" format="1">
	<unicode hex="20A4"/>
	<advance width="600"/>
	<outline>
		<contour>
			<point x="73" y="0" type="line"/>
			<point x="541" y="0" type="line"/>
			<point x="541" y="98" type="line"/>
			<point x="231" y="98" type="line"/>
			<point x="231" y="102" type="line"/>
			<point x="274" y="140"/>
			<point x="294" y="177"/>
			<point x="294" y="236" type="curve" smooth="yes"/>
			<point x="294" y="316"/>
			<point x="249" y="379"/>
			<point x="249" y="448" type="curve" smooth="yes"/>
			<point x="249" y="515"/>
			<point x="292" y="554"/>
			<point x="368" y="554" type="curve" smooth="yes"/>
			<point x="414" y="554"/>
			<point x="447" y="536"/>
			<point x="476" y="507" type="curve"/>
			<point x="540" y="570" type="line"/>
			<point x="497" y="618"/>
			<point x="440" y="648"/>
			<point x="359" y="648" type="curve" smooth="yes"/>
			<point x="229" y="648"/>
			<point x="139" y="574"/>
			<point x="139" y="454" type="curve" smooth="yes"/>
			<point x="139" y="384"/>
			<point x="193" y="310"/>
			<point x="193" y="237" type="curve" smooth="yes"/>
			<point x="193" y="164"/>
			<point x="148" y="103"/>
			<point x="73" y="71" type="curve"/>
		</contour>
		<contour>
			<point x="74" y="347" type="line"/>
			<point x="449" y="347" type="line"/>
			<point x="449" y="409" type="line"/>
			<point x="158" y="409" type="line"/>
			<point x="74" y="404" type="line"/>
		</contour>
		<contour>
			<point x="74" y="227" type="line"/>
			<point x="449" y="227" type="line"/>
			<point x="449" y="289" type="line"/>
			<point x="158" y="289" type="line"/>
			<point x="74" y="284" type="line"/>
		</contour>
	</outline>
</glyph>
<glyph name="naira" format="1">
  <advance width="600"/>
  <unicode hex="20A6"/>
  <outline>
    <contour>
      <point x="109" y="0" type="line"/>
      <point x="195" y="0" type="line"/>
      <point x="195" y="264" type="line"/>
      <point x="173" y="544" type="line"/>
      <point x="177" y="544" type="line"/>
      <point x="246" y="359" type="line"/>
      <point x="381" y="0" type="line"/>
      <point x="491" y="0" type="line"/>
      <point x="491" y="636" type="line"/>
      <point x="405" y="636" type="line"/>
      <point x="405" y="373" type="line"/>
      <point x="427" y="92" type="line"/>
      <point x="423" y="92" type="line"/>
      <point x="354" y="278" type="line"/>
      <point x="219" y="636" type="line"/>
      <point x="109" y="636" type="line"/>
    </contour>
    <contour>
      <point x="37" y="347" type="line"/>
      <point x="562" y="347" type="line"/>
      <point x="562" y="397" type="line"/>
      <point x="109" y="397" type="line"/>
      <point x="37" y="392" type="line"/>
    </contour>
    <contour>
      <point x="37" y="239" type="line"/>
      <point x="562" y="239" type="line"/>
      <point x="562" y="290" type="line"/>
      <point x="109" y="290" type="line"/>
      <point x="37" y="284" type="line"/>
    </contour>
  </outline>
</glyph>
<glyph name="won" format="1">
  <advance width="600"/>
  <unicode hex="20A9"/>
  <outline>
    <contour>
      <point x="128" y="0" type="line"/>
      <point x="256" y="0" type="line"/>
      <point x="286" y="329" type="line"/>
      <point x="298" y="509" type="line"/>
      <point x="302" y="509" type="line"/>
      <point x="315" y="329" type="line"/>
      <point x="347" y="0" type="line"/>
      <point x="480" y="0" type="line"/>
      <point x="548" y="637" type="line"/>
      <point x="453" y="637" type="line"/>
      <point x="421" y="224" type="line"/>
      <point x="412" y="86" type="line"/>
      <point x="408" y="86" type="line"/>
      <point x="396" y="224" type="line"/>
      <point x="358" y="597" type="line"/>
      <point x="250" y="597" type="line"/>
      <point x="212" y="224" type="line"/>
      <point x="201" y="86" type="line"/>
      <point x="197" y="86" type="line"/>
      <point x="189" y="224" type="line"/>
      <point x="156" y="637" type="line"/>
      <point x="53" y="637" type="line"/>
    </contour>
    <contour>
      <point x="18" y="293" type="line"/>
      <point x="581" y="293" type="line"/>
      <point x="581" y="353" type="line"/>
      <point x="90" y="353" type="line"/>
      <point x="18" y="347" type="line"/>
    </contour>
  </outline>
</glyph>
<glyph name="dong" format="1">
  <advance width="600"/>
  <unicode hex="20AB"/>
  <outline>
    <contour>
      <point x="269" y="113" type="curve" smooth="yes"/>
      <point x="317" y="113"/>
      <point x="358" y="133"/>
      <point x="389" y="164" type="curve"/>
      <point x="392" y="164" type="line"/>
      <point x="400" y="123" type="line"/>
      <point x="479" y="123" type="line"/>
      <point x="479" y="658" type="line"/>
      <point x="383" y="658" type="line"/>
      <point x="383" y="514" type="line"/>
      <point x="388" y="439" type="line"/>
      <point x="385" y="439" type="line"/>
      <point x="355" y="466"/>
      <point x="324" y="482"/>
      <point x="274" y="482" type="curve" smooth="yes"/>
      <point x="187" y="482"/>
      <point x="100" y="414"/>
      <point x="100" y="302" type="curve" smooth="yes"/>
      <point x="100" y="180"/>
      <point x="166" y="113"/>
    </contour>
    <contour>
      <point x="291" y="192" type="curve" smooth="yes"/>
      <point x="234" y="192"/>
      <point x="199" y="230"/>
      <point x="199" y="303" type="curve" smooth="yes"/>
      <point x="199" y="362"/>
      <point x="244" y="402"/>
      <point x="295" y="402" type="curve" smooth="yes"/>
      <point x="330" y="402"/>
      <point x="353" y="392"/>
      <point x="383" y="368" type="curve"/>
      <point x="383" y="236" type="line"/>
      <point x="353" y="204"/>
      <point x="325" y="192"/>
    </contour>
    <contour>
      <point x="228" y="538" type="line"/>
      <point x="479" y="538" type="line"/>
      <point x="554" y="544" type="line"/>
      <point x="554" y="600" type="line"/>
      <point x="228" y="600" type="line"/>
    </contour>
    <contour>
      <point x="112" y="0" type="line"/>
      <point x="511" y="0" type="line"/>
      <point x="511" y="62" type="line"/>
      <point x="112" y="62" type="line"/>
    </contour>
  </outline>
</glyph>
<glyph name="tugrik" format="1">
  <advance width="600"/>
  <unicode hex="20AE"/>
  <outline>
    <contour>
      <point x="242" y="0" type="line"/>
      <point x="358" y="0" type="line"/>
      <point x="358" y="551" type="line"/>
      <point x="555" y="551" type="line"/>
      <point x="555" y="636" type="line"/>
      <point x="45" y="636" type="line"/>
      <point x="45" y="551" type="line"/>
      <point x="242" y="551" type="line"/>
    </contour>
    <contour>
      <point x="116" y="104" type="line"/>
      <point x="248" y="167" type="line"/>
      <point x="352" y="210" type="line"/>
      <point x="512" y="288" type="line"/>
      <point x="484" y="340" type="line"/>
      <point x="352" y="277" type="line"/>
      <point x="352" y="340" type="line"/>
      <point x="512" y="418" type="line"/>
      <point x="484" y="470" type="line"/>
      <point x="352" y="408" type="line"/>
      <point x="248" y="364" type="line"/>
      <point x="88" y="288" type="line"/>
      <point x="116" y="234" type="line"/>
      <point x="248" y="297" type="line"/>
      <point x="248" y="234" type="line"/>
      <point x="88" y="157" type="line"/>
    </contour>
  </outline>
</glyph>
<glyph name="peso" format="1">
  <advance width="600"/>
  <unicode hex="20B1"/>
  <outline>
    <contour>
      <point x="118" y="0" type="line"/>
      <point x="227" y="0" type="line"/>
      <point x="227" y="230" type="line"/>
      <point x="283" y="230" type="line" smooth="yes"/>
      <point x="412" y="230"/>
      <point x="516" y="294"/>
      <point x="516" y="432" type="curve" smooth="yes"/>
      <point x="516" y="583"/>
      <point x="415" y="636"/>
      <point x="283" y="636" type="curve" smooth="yes"/>
      <point x="118" y="636" type="line"/>
    </contour>
    <contour>
      <point x="227" y="305" type="line"/>
      <point x="227" y="562" type="line"/>
      <point x="273" y="562" type="line" smooth="yes"/>
      <point x="360" y="562"/>
      <point x="408" y="525"/>
      <point x="408" y="432" type="curve" smooth="yes"/>
      <point x="408" y="350"/>
      <point x="360" y="305"/>
      <point x="273" y="305" type="curve" smooth="yes"/>
    </contour>
    <contour>
      <point x="31" y="460" type="line"/>
      <point x="585" y="460" type="line"/>
      <point x="585" y="510" type="line"/>
      <point x="125" y="510" type="line"/>
      <point x="31" y="505" type="line"/>
    </contour>
    <contour>
      <point x="31" y="359" type="line"/>
      <point x="585" y="359" type="line"/>
      <point x="585" y="408" type="line"/>
      <point x="125" y="408" type="line"/>
      <point x="31" y="403" type="line"/>
    </contour>
  </outline>
</glyph>
<glyph name="guarani" format="1">
  <advance width="600"/>
  <unicode hex="20B2"/>
  <outline>
    <contour>
      <point x="342" y="-12" type="curve" smooth="yes"/>
      <point x="414" y="-12"/>
      <point x="480" y="14"/>
      <point x="532" y="61" type="curve"/>
      <point x="532" y="347" type="line"/>
      <point x="333" y="347" type="line"/>
      <point x="333" y="252" type="line"/>
      <point x="428" y="252" type="line"/>
      <point x="428" y="107" type="line"/>
      <point x="412" y="93"/>
      <point x="381" y="82"/>
      <point x="349" y="82" type="curve" smooth="yes"/>
      <point x="251" y="82"/>
      <point x="192" y="169"/>
      <point x="192" y="320" type="curve" smooth="yes"/>
      <point x="192" y="468"/>
      <point x="249" y="558"/>
      <point x="351" y="558" type="curve" smooth="yes"/>
      <point x="397" y="558"/>
      <point x="433" y="537"/>
      <point x="465" y="505" type="curve"/>
      <point x="530" y="568" type="line"/>
      <point x="486" y="615"/>
      <point x="422" y="648"/>
      <point x="354" y="648" type="curve" smooth="yes"/>
      <point x="190" y="648"/>
      <point x="75" y="524"/>
      <point x="75" y="316" type="curve" smooth="yes"/>
      <point x="75" y="106"/>
      <point x="188" y="-12"/>
    </contour>
    <contour>
      <point x="302" y="610" type="line"/>
      <point x="382" y="610" type="line"/>
      <point x="382" y="746" type="line"/>
      <point x="302" y="746" type="line"/>
    </contour>
    <contour>
      <point x="302" y="-110" type="line"/>
      <point x="382" y="-110" type="line"/>
      <point x="382" y="33" type="line"/>
      <point x="302" y="33" type="line"/>
    </contour>
  </outline>
</glyph>
<glyph name="rupeeindian" format="1">
  <advance width="600"/>
  <unicode hex="20B9"/>
  <outline>
    <contour>
      <point x="98" y="226" type="line"/>
      <point x="190" y="226" type="line" smooth="yes"/>
      <point x="338" y="226"/>
      <point x="453" y="291"/>
      <point x="453" y="440" type="curve" smooth="yes"/>
      <point x="453" y="499"/>
      <point x="422" y="548"/>
      <point x="371" y="575" type="curve"/>
      <point x="524" y="575" type="line"/>
      <point x="524" y="636" type="line"/>
      <point x="98" y="636" type="line"/>
      <point x="98" y="544" type="line"/>
      <point x="174" y="544" type="line" smooth="yes"/>
      <point x="279" y="544"/>
      <point x="339" y="516"/>
      <point x="339" y="439" type="curve" smooth="yes"/>
      <point x="339" y="358"/>
      <point x="279" y="319"/>
      <point x="174" y="319" type="curve" smooth="yes"/>
      <point x="98" y="319" type="line"/>
    </contour>
    <contour>
      <point x="98" y="412" type="line"/>
      <point x="524" y="412" type="line"/>
      <point x="524" y="474" type="line"/>
      <point x="177" y="474" type="line"/>
      <point x="98" y="469" type="line"/>
    </contour>
    <contour>
      <point x="367" y="0" type="line"/>
      <point x="496" y="0" type="line"/>
      <point x="246" y="305" type="line"/>
      <point x="167" y="248" type="line"/>
    </contour>
  </outline>
</glyph>
<glyph name="liraturkish" format="1">
  <advance width="600"/>
  <unicode hex="20BA"/>
  <outline>
    <contour>
      <point x="140" y="-12" type="line"/>
      <point x="380" y="-18"/>
      <point x="544" y="72"/>
      <point x="544" y="247" type="curve" smooth="yes"/>
      <point x="544" y="262"/>
      <point x="541" y="280"/>
      <point x="536" y="302" type="curve"/>
      <point x="440" y="278" type="line"/>
      <point x="445" y="262"/>
      <point x="445" y="251"/>
      <point x="445" y="242" type="curve" smooth="yes"/>
      <point x="445" y="155"/>
      <point x="347" y="101"/>
      <point x="256" y="96" type="curve"/>
      <point x="256" y="297" type="line"/>
      <point x="442" y="386" type="line"/>
      <point x="413" y="439" type="line"/>
      <point x="256" y="364" type="line"/>
      <point x="256" y="427" type="line"/>
      <point x="442" y="516" type="line"/>
      <point x="413" y="570" type="line"/>
      <point x="256" y="494" type="line"/>
      <point x="256" y="636" type="line"/>
      <point x="140" y="636" type="line"/>
      <point x="140" y="438" type="line"/>
      <point x="31" y="386" type="line"/>
      <point x="60" y="333" type="line"/>
      <point x="140" y="370" type="line"/>
      <point x="140" y="307" type="line"/>
      <point x="31" y="256" type="line"/>
      <point x="60" y="202" type="line"/>
      <point x="140" y="240" type="line"/>
    </contour>
  </outline>
</glyph>
<glyph name="arrowboth" format="1">
  <advance width="600"/>
  <unicode hex="2194"/>
  <outline>
    <contour>
      <point x="612" y="254" type="line"/>
      <point x="433" y="472" type="line"/>
      <point x="371" y="424" type="line"/>
      <point x="479" y="298" type="line"/>
      <point x="121" y="298" type="line"/>
      <point x="229" y="424" type="line"/>
      <point x="167" y="472" type="line"/>
      <point x="-12" y="254" type="line"/>
      <point x="-12" y="250" type="line"/>
      <point x="167" y="32" type="line"/>
      <point x="229" y="80" type="line"/>
      <point x="121" y="206" type="line"/>
      <point x="479" y="206" type="line"/>
      <point x="371" y="80" type="line"/>
      <point x="433" y="32" type="line"/>
      <point x="612" y="250" type="line"/>
    </contour>
  </outline>
</glyph>
<glyph name="arrowupdn" format="1">
  <advance width="600"/>
  <unicode hex="2195"/>
  <outline>
    <contour>
      <point x="302" y="-57" type="line"/>
      <point x="520" y="122" type="line"/>
      <point x="472" y="184" type="line"/>
      <point x="346" y="76" type="line"/>
      <point x="346" y="427" type="line"/>
      <point x="472" y="319" type="line"/>
      <point x="520" y="381" type="line"/>
      <point x="302" y="560" type="line"/>
      <point x="298" y="560" type="line"/>
      <point x="80" y="381" type="line"/>
      <point x="128" y="319" type="line"/>
      <point x="254" y="427" type="line"/>
      <point x="254" y="76" type="line"/>
      <point x="128" y="184" type="line"/>
      <point x="80" y="122" type="line"/>
      <point x="298" y="-57" type="line"/>
    </contour>
  </outline>
</glyph>
<glyph name="arrowdblup" format="1">
  <advance width="600"/>
  <unicode hex="21D1"/>
  <outline>
    <contour>
      <point x="95" y="197" type="line"/>
      <point x="298" y="424" type="line"/>
      <point x="302" y="424" type="line"/>
      <point x="505" y="197" type="line"/>
      <point x="568" y="253" type="line"/>
      <point x="302" y="528" type="line"/>
      <point x="298" y="528" type="line"/>
      <point x="32" y="253" type="line"/>
    </contour>
    <contour>
      <point x="350" y="-25" type="line"/>
      <point x="420" y="-25" type="line"/>
      <point x="420" y="392" type="line"/>
      <point x="350" y="392" type="line"/>
    </contour>
    <contour>
      <point x="180" y="-25" type="line"/>
      <point x="250" y="-25" type="line"/>
      <point x="250" y="392" type="line"/>
      <point x="180" y="392" type="line"/>
    </contour>
  </outline>
</glyph>
<glyph name="arrowdblright" format="1">
  <advance width="600"/>
  <unicode hex="21D2"/>
  <outline>
    <contour>
      <point x="309" y="-16" type="line"/>
      <point x="584" y="250" type="line"/>
      <point x="584" y="254" type="line"/>
      <point x="309" y="520" type="line"/>
      <point x="253" y="457" type="line"/>
      <point x="479" y="254" type="line"/>
      <point x="479" y="250" type="line"/>
      <point x="253" y="47" type="line"/>
    </contour>
    <contour>
      <point x="30" y="132" type="line"/>
      <point x="448" y="132" type="line"/>
      <point x="448" y="202" type="line"/>
      <point x="30" y="202" type="line"/>
    </contour>
    <contour>
      <point x="30" y="302" type="line"/>
      <point x="448" y="302" type="line"/>
      <point x="448" y="372" type="line"/>
      <point x="30" y="372" type="line"/>
    </contour>
  </outline>
</glyph>
<glyph name="product" format="1">
	<unicode hex="220F"/>
	<advance width="600"/>
	<outline>
		<contour>
			<point x="38" y="-120" type="line"/>
			<point x="154" y="-120" type="line"/>
			<point x="154" y="535" type="line"/>
			<point x="445" y="535" type="line"/>
			<point x="445" y="-120" type="line"/>
			<point x="562" y="-120" type="line"/>
			<point x="562" y="636" type="line"/>
			<point x="38" y="636" type="line"/>
		</contour>
	</outline>
</glyph>
<glyph name="summation" format="1">
  <advance width="600"/>
  <unicode hex="2211"/>
  <outline>
    <contour>
      <point x="64" y="-120" type="line"/>
      <point x="553" y="-120" type="line"/>
      <point x="553" y="-22" type="line"/>
      <point x="208" y="-22" type="line"/>
      <point x="208" y="-18" type="line"/>
      <point x="406" y="258" type="line"/>
      <point x="217" y="535" type="line"/>
      <point x="217" y="539" type="line"/>
      <point x="527" y="539" type="line"/>
      <point x="527" y="636" type="line"/>
      <point x="75" y="636" type="line"/>
      <point x="75" y="566" type="line"/>
      <point x="286" y="258" type="line"/>
      <point x="64" y="-50" type="line"/>
    </contour>
  </outline>
</glyph>
<glyph name="intersection" format="1">
  <advance width="600"/>
  <unicode hex="2229"/>
  <outline>
    <contour>
      <point x="84" y="99" type="line"/>
      <point x="171" y="99" type="line"/>
      <point x="171" y="339" type="line" smooth="yes"/>
      <point x="171" y="435"/>
      <point x="222" y="488"/>
      <point x="300" y="488" type="curve" smooth="yes"/>
      <point x="378" y="488"/>
      <point x="429" y="435"/>
      <point x="429" y="339" type="curve" smooth="yes"/>
      <point x="429" y="99" type="line"/>
      <point x="516" y="99" type="line"/>
      <point x="516" y="351" type="line" smooth="yes"/>
      <point x="516" y="486"/>
      <point x="425" y="575"/>
      <point x="300" y="575" type="curve" smooth="yes"/>
      <point x="175" y="575"/>
      <point x="84" y="486"/>
      <point x="84" y="351" type="curve" smooth="yes"/>
    </contour>
  </outline>
</glyph>
<glyph name="house" format="1">
	<unicode hex="2302"/>
	<advance width="600"/>
	<outline>
		<contour>
			<point x="42" y="0" type="line"/>
			<point x="558" y="0" type="line"/>
			<point x="558" y="360" type="line"/>
			<point x="348" y="665" type="line"/>
			<point x="252" y="665" type="line"/>
			<point x="42" y="360" type="line"/>
		</contour>
		<contour>
			<point x="138" y="80" type="line"/>
			<point x="138" y="332" type="line"/>
			<point x="223" y="463" type="line"/>
			<point x="298" y="582" type="line"/>
			<point x="302" y="582" type="line"/>
			<point x="377" y="463" type="line"/>
			<point x="462" y="332" type="line"/>
			<point x="462" y="80" type="line"/>
		</contour>
	</outline>
</glyph>
<glyph name="revlogicalnot" format="1">
  <advance width="600"/>
  <unicode hex="2310"/>
  <outline>
    <contour>
      <point x="78" y="99" type="line"/>
      <point x="165" y="99" type="line"/>
      <point x="165" y="288" type="line"/>
      <point x="522" y="288" type="line"/>
      <point x="522" y="372" type="line"/>
      <point x="78" y="372" type="line"/>
    </contour>
  </outline>
</glyph>
<glyph name="ceilingleft" format="1">
	<unicode hex="231C"/>
	<advance width="600"/>
	<outline>
		<contour>
			<point x="212" y="0" type="line"/>
			<point x="302" y="0" type="line"/>
			<point x="302" y="637" type="line"/>
			<point x="499" y="637" type="line"/>
			<point x="499" y="700" type="line"/>
			<point x="212" y="700" type="line"/>
		</contour>
	</outline>
</glyph>
<glyph name="floorright" format="1">
  <advance width="600"/>
  <unicode hex="231F"/>
  <outline>
    <contour>
      <point x="101" y="-110" type="line"/>
      <point x="388" y="-110" type="line"/>
      <point x="388" y="636" type="line"/>
      <point x="298" y="636" type="line"/>
      <point x="298" y="-48" type="line"/>
      <point x="101" y="-48" type="line"/>
    </contour>
  </outline>
</glyph>
